<?xml version="1.0" encoding="utf-8"?>
<!-- Generator: Adobe Illustrator 24.0.1, SVG Export Plug-In . SVG Version: 6.00 Build 0)  -->
<svg version="1.1" id="Layer_1" xmlns="http://www.w3.org/2000/svg" xmlns:xlink="http://www.w3.org/1999/xlink" x="0px" y="0px"
	 viewBox="0 0 70 70" style="enable-background:new 0 0 70 70;" xml:space="preserve">
<style type="text/css">
	.st0{fill:#B56EF9;}
	.st1{fill:#914AE5;}
	.st2{fill:#FFFFFF;}
</style>
<g>
	<path class="st0" d="M23.8,40.7H4.1c-2.3,0-4.1,1.8-4.1,4.1v21.1C0,68.2,1.8,70,4.1,70h19.7c2.3,0,4.1-1.8,4.1-4.1V44.8
		C27.8,42.6,26,40.7,23.8,40.7z"/>
	<path class="st1" d="M23.8,40.7h-3.4c2.3,0,4.1,1.8,4.1,4.1v21.1c0,2.3-1.8,4.1-4.1,4.1h3.4c2.3,0,4.1-1.8,4.1-4.1V44.8
		C27.8,42.6,26,40.7,23.8,40.7z"/>
	<rect x="2.2" y="34.2" class="st0" width="23.4" height="5"/>
	<rect x="20.3" y="34.2" class="st1" width="5.3" height="5"/>
	<path class="st2" d="M21.7,60.6h-17c-0.7,0-1.3-0.6-1.3-1.3v-8.8c0-0.7,0.6-1.3,1.3-1.3h17c0.7,0,1.3,0.6,1.3,1.3v8.8
		C23,60,22.4,60.6,21.7,60.6z"/>
</g>
</svg>
