<?xml version="1.0" encoding="utf-8"?>
<!-- Generator: Adobe Illustrator 24.0.1, SVG Export Plug-In . SVG Version: 6.00 Build 0)  -->
<svg version="1.1" id="Layer_1" xmlns="http://www.w3.org/2000/svg" xmlns:xlink="http://www.w3.org/1999/xlink" x="0px" y="0px"
	 viewBox="0 0 70 70" style="enable-background:new 0 0 70 70;" xml:space="preserve">
<style type="text/css">
	.st0{fill:#B56EF9;}
	.st1{fill:#914AE5;}
	.st2{fill:#FFFFFF;}
</style>
<g>
	<g>
		<path class="st0" d="M14.1,29c-1.7,1.8-6.3,7.7-0.1,15c0.3,0.4,1,0.4,1.3,0c6.2-7.3,1.7-13.2-0.1-15C14.9,28.7,14.4,28.7,14.1,29z
			"/>
		<path class="st1" d="M14.7,44.4c0.2,0,0.5-0.1,0.7-0.3c6.2-7.3,1.7-13.2-0.1-15c-0.2-0.2-0.4-0.3-0.6-0.3c0,0,2,1.2,2,7.8
			C16.7,43.2,14.7,44.4,14.7,44.4z"/>
	</g>
	<g>
		<path class="st0" d="M28.3,41c-2.5-0.5-9.9-1-12.6,8.3c-0.1,0.5,0.2,1,0.7,1.1c9.6,1.1,12-5.9,12.5-8.4
			C29.1,41.5,28.8,41.1,28.3,41z"/>
		<path class="st1" d="M15.9,50c0.1,0.2,0.4,0.3,0.6,0.4c9.6,1.1,12-5.9,12.5-8.4c0.1-0.2,0-0.5-0.1-0.6c0,0,0.1,2.3-5.4,6
			C18,51,15.9,50,15.9,50z"/>
	</g>
	<g>
		<path class="st0" d="M13.2,49.3c-0.5-2.5-2.9-9.5-12.4-8.4C0.2,41-0.1,41.5,0,42c2.6,9.3,10,8.8,12.5,8.4
			C13,50.3,13.3,49.8,13.2,49.3z"/>
		<path class="st1" d="M0.1,41.3C0,41.5,0,41.7,0,42c2.6,9.3,10,8.8,12.5,8.4c0.2,0,0.4-0.2,0.6-0.4c0,0-2.1,1-7.6-2.7
			C0,43.6,0.1,41.3,0.1,41.3z"/>
	</g>
	<g>
		<path class="st0" d="M28.3,50.7c-2.5-0.5-9.9-1-12.6,8.3c-0.1,0.5,0.2,1,0.7,1.1c9.6,1.1,12-5.9,12.5-8.4
			C29.1,51.3,28.8,50.8,28.3,50.7z"/>
		<path class="st1" d="M15.9,59.7c0.1,0.2,0.4,0.3,0.6,0.4c9.6,1.1,12-5.9,12.5-8.4c0.1-0.2,0-0.5-0.1-0.6c0,0,0.1,2.3-5.4,6
			C18,60.8,15.9,59.7,15.9,59.7z"/>
	</g>
	<g>
		<path class="st0" d="M13.2,59.1c-0.5-2.5-2.9-9.5-12.4-8.4c-0.5,0.1-0.9,0.6-0.7,1.1c2.6,9.3,10,8.8,12.5,8.4
			C13,60,13.3,59.5,13.2,59.1z"/>
		<path class="st1" d="M0.1,51C0,51.2,0,51.5,0,51.7c2.6,9.3,10,8.8,12.5,8.4c0.2,0,0.4-0.2,0.6-0.4c0,0-2.1,1-7.6-2.7
			C0,53.3,0.1,51,0.1,51z"/>
	</g>
	<g>
		<path class="st0" d="M28.3,60.5c-2.5-0.5-9.9-1-12.6,8.3c-0.1,0.5,0.2,1,0.7,1.1c9.6,1.1,12-5.9,12.5-8.4
			C29.1,61,28.8,60.6,28.3,60.5z"/>
		<path class="st1" d="M15.9,69.5c0.1,0.2,0.4,0.3,0.6,0.4c9.6,1.1,12-5.9,12.5-8.4c0.1-0.2,0-0.5-0.1-0.6c0,0,0.1,2.3-5.4,6
			C18,70.5,15.9,69.5,15.9,69.5z"/>
	</g>
	<g>
		<path class="st0" d="M13.2,68.8c-0.5-2.5-2.9-9.5-12.4-8.4c-0.5,0.1-0.9,0.6-0.7,1.1c2.6,9.3,10,8.8,12.5,8.4
			C13,69.7,13.3,69.3,13.2,68.8z"/>
		<path class="st1" d="M0.1,60.7C0,60.9,0,61.2,0,61.5c2.6,9.3,10,8.8,12.5,8.4c0.2,0,0.4-0.2,0.6-0.4c0,0-2.1,1-7.6-2.7
			C0,63.1,0.1,60.7,0.1,60.7z"/>
	</g>
</g>
</svg>
