<?xml version="1.0" encoding="utf-8"?>
<!-- Generator: Adobe Illustrator 24.0.1, SVG Export Plug-In . SVG Version: 6.00 Build 0)  -->
<svg version="1.1" id="Layer_1" xmlns="http://www.w3.org/2000/svg" xmlns:xlink="http://www.w3.org/1999/xlink" x="0px" y="0px"
	 viewBox="0 0 70 70" style="enable-background:new 0 0 70 70;" xml:space="preserve">
<style type="text/css">
	.st0{fill:#B56EF9;}
	.st1{fill:#914AE5;}
	.st2{fill:#FFFFFF;}
</style>
<g>
	<path class="st0" d="M11.4,41.9C11.4,41.9,11.4,41.9,11.4,41.9c-0.9,0-1.8,0.2-2.7,0.5c0.4-0.5,0.8-1,1.3-1.3c0,0-2.9,1.6-4.6,3.7
		c-0.3,0.3-0.5,0.6-0.8,0.9c0.1-0.7,0.2-1.6,0.6-2.3c0,0-1.8,2.8-2.3,5.4c-0.2,0.5-0.4,1-0.6,1.6c-0.3-0.8-0.6-2-0.4-3
		c0,0-0.8,3.6-0.2,6.4c0,0.3-0.1,0.7-0.1,1.1c-0.4-0.7-0.9-1.7-1-2.6c0,0,0.1,3.3,1.1,5.9c0.1,0.7,0.2,1.4,0.3,2
		C1.4,59.8,0.4,59,0,58.1c0,0,1.1,2.7,2.8,4.7c0.2,0.6,0.5,1.1,0.8,1.7C3,64.1,2.4,63.7,2,63.1c0,0,1.9,3.3,4.3,4.9
		c0.2,0.2,0.4,0.3,0.6,0.4H1.6V70h9.7c0.1,0,0.1,0,0.2,0h20.6V41.9H11.4z"/>
	<path class="st1" d="M41.6,52.4c-0.1-0.8-0.3-1.5-0.5-2.2c0.7,0.4,1.6,1.1,2.1,1.8c0,0-1.2-2.3-3-4c-0.3-0.6-0.7-1.2-1-1.8
		c0.5,0.3,1.1,0.7,1.4,1.1c0,0-2.6-3.5-5.4-4.7c-1-0.5-2.1-0.8-3.2-0.8c-0.9,0-1.7,0.2-2.5,0.5c0.3-0.5,0.8-0.9,1.2-1.2
		c0,0-1.7,1-3.3,2.4c-0.7,0.6-1.4,1.2-2,2c0.1-0.7,0.2-1.5,0.6-2.1c0,0-1.4,2.2-2.1,4.7c-0.3,0.7-0.6,1.4-0.8,2.1
		c-0.3-0.8-0.5-1.8-0.4-2.8c0,0-0.7,3.2-0.3,5.9c-0.1,0.4-0.1,0.9-0.1,1.3c-0.4-0.7-0.8-1.5-0.9-2.4c0,0,0,2.9,0.9,5.4
		c0.1,0.8,0.2,1.6,0.4,2.4c-0.7-0.5-1.5-1.2-1.9-2.1c0,0,1,2.5,2.6,4.4c0.2,0.7,0.5,1.3,0.8,1.9c-0.5-0.3-1-0.8-1.4-1.3
		c0,0,1.5,2.6,3.5,4.3c0.4,0.4,0.8,0.7,1.2,1h-9.2V70h13.6c0.1,0,0.1,0,0.2,0c0,0,0.1,0,0.1,0h0.1v0c1.3,0,2.5-0.4,3.6-1.1
		c-0.3,0.4-0.6,0.8-1,1.1c0,0,3.6-2.5,4.9-5.3c0,0.8,0,1.7-0.3,2.5c0,0,1.7-3.3,1.8-6.2c0.1-0.4,0.2-0.8,0.3-1.2
		c0.4,0.8,0.9,2,0.8,3c0,0,0.4-3.7-0.4-6.4c0-0.2,0-0.3,0-0.5c0-0.2,0-0.4,0-0.5c0.5,0.7,1.1,1.5,1.2,2.4
		C43.2,57.8,42.8,54.8,41.6,52.4z"/>
</g>
</svg>
