<?xml version="1.0" encoding="utf-8"?>
<!-- Generator: Adobe Illustrator 24.0.1, SVG Export Plug-In . SVG Version: 6.00 Build 0)  -->
<svg version="1.1" id="Layer_1" xmlns="http://www.w3.org/2000/svg" xmlns:xlink="http://www.w3.org/1999/xlink" x="0px" y="0px"
	 viewBox="0 0 70 70" style="enable-background:new 0 0 70 70;" xml:space="preserve">
<style type="text/css">
	.st0{fill:#B56EF9;}
	.st1{fill:#914AE5;}
	.st2{fill:#FFFFFF;}
</style>
<g>
	<g>
		<path class="st0" d="M45.9,69.4c-1.8,0-1.4-1.5-1.4-1.5h0c0-0.1,0-0.2,0-0.3c0.3-1.8,1.1-11.4-11-15.8c2.2,0.3,4.5,1.4,4.5,1.4
			l0.5-5.4c-6.8-0.9-7.7,3.6-7.7,3.6l0,0c-13.2,4.2-12.3,14.3-12.1,16.1c0,0.1,0,0.2,0,0.3h0c0,0.1,0.4,1.5-1.4,1.5
			c0,0-0.5,0.2,0,0.6h1.8h12.4h12.4h1.8C46.3,69.6,45.9,69.4,45.9,69.4z"/>
		<path class="st1" d="M33.2,70h10.8h1.8c0.5-0.4,0-0.6,0-0.6c-1.8,0-1.4-1.5-1.4-1.5h0c0-0.1,0-0.2,0-0.3c0.3-1.8,1.1-11.4-11-15.8
			c2.2,0.3,4.5,1.4,4.5,1.4l0.2-3c-0.4-0.1-2.7-0.7-6.2,1.4c0,0,7.3,1.2,5.9,15C38,66.6,37.8,70,33.2,70z"/>
	</g>
	<g>
		<path class="st0" d="M28.6,69.4c-1.8,0-1.4-1.6-1.4-1.6l0,0c2.7-14.2,0.7-27.7-0.1-32.1l0,0l0,0c0,0,0,0,0,0
			c0-0.2-0.1-0.8,0.4-1.3c0.7-0.7,0.1-1.4-0.5-0.7c-0.4,0.5-1,0.8-1.8,1c0,0,0,0,0,0c-0.2,0.1-0.5,0.1-0.7,0.2
			c-1.9,0.4-5.1,0.8-10.1,0.8c-5.1,0-8.3-0.4-10.1-0.8c-0.2,0-0.5-0.1-0.7-0.2c0,0,0,0,0,0c-0.8-0.2-1.4-0.5-1.8-1
			c-0.6-0.7-1.2,0-0.5,0.7c0.5,0.5,0.5,1.2,0.4,1.3c0,0,0,0,0,0c0,0,0,0,0,0l0,0c-0.8,4.4-2.8,17.9-0.1,32.1l0,0
			c0,0,0.4,1.6-1.4,1.6c0,0-0.5,0.2,0,0.6H2l0,0h12.4h12.4l0,0h1.8C29,69.6,28.6,69.4,28.6,69.4z"/>
		<path class="st1" d="M28.6,69.4c-1.8,0-1.4-1.6-1.4-1.6l0,0c2.7-14.2,0.7-27.7-0.1-32.1l0,0c0,0,0,0,0,0c0-0.2-0.1-0.8,0.4-1.3
			c0.7-0.7,0.1-1.4-0.5-0.7c-0.4,0.5-1,0.8-1.8,1c0,0,0,0,0,0c-0.2,0.1-0.5,0.1-0.7,0.2c-1.2,0.2-2.9,0.5-5.2,0.7l0.3,2.2
			c-3.6,0.1-9.5,0.1-15.3-0.5c-0.2,0-0.3,0.1-0.3,0.2c0,0.1,0.1,0.3,0.2,0.3c4.1,0.4,8.3,0.5,11.6,0.5c1.5,0,2.8,0,3.9-0.1
			c1,1.8,5.1,10.6,1.2,28.2c0,0-0.1,0.4-0.2,0.9H4.4c-0.1,0-0.2,0.1-0.2,0.2s0.1,0.2,0.2,0.2h16.4c-0.1,0.7-0.1,1.5,0,2.2h6h1.8
			C29,69.6,28.6,69.4,28.6,69.4z"/>
		<rect x="4.1" y="62.5" class="st2" width="4.5" height="2.8"/>
	</g>
	<path class="st2" d="M10.2,47.4c0.2-0.2,0.5-0.3,0.7-0.5c0,0,0-0.1,0-0.1c-0.3-0.5-0.5-1-0.8-1.6c-0.1-0.3,0-0.6,0.3-0.6
		c0.2-0.1,0.4,0,0.5,0.2c0.2,0.4,0.5,0.9,0.7,1.3c0.2,0.3,0.3,0.6,0.5,0.9c0.2,0.4,0.4,0.8,0.5,1.2c0,0,0,0.1,0,0.1
		c0.2-0.1,0.3-0.2,0.5-0.3c0,0,0,0,0,0c0.1-0.2,0.3-0.2,0.4-0.2c0.1,0,0.3,0,0.4,0c0,0,0.1,0,0.1,0c0-0.3-0.1-0.5-0.1-0.8
		c0-0.2,0-0.5,0-0.7c0-0.1,0-0.3,0-0.4c0-0.7,0-1.3,0-2c0-0.3,0.3-0.5,0.6-0.4c0.2,0.1,0.3,0.2,0.3,0.5c0,0.6,0,1.2,0,1.7
		c0,0,0,0.1,0,0.1c0.3,0,0.6,0.1,0.8,0.1c0-0.3,0.1-0.5,0.2-0.8c0.1-0.5,0.4-0.9,0.7-1.3c0-0.1,0.1-0.1,0.1-0.2c0-0.6,0-1.2,0-1.8
		c0-0.3,0.2-0.5,0.4-0.5c0.2,0,0.4,0.2,0.4,0.4c0,0.4,0,0.7,0,1.1c0,0.3,0,0.6,0,0.8c0,0.1,0,0.1,0.1,0.2c0.4,0.5,0.7,1.1,0.8,1.7
		c0,0.1,0,0.2,0,0.4c0.3,0,0.6-0.1,0.9-0.1c0,0,0-0.1,0-0.1c0-0.6,0-1.2,0-1.8c0-0.3,0.3-0.5,0.6-0.4c0.2,0.1,0.3,0.2,0.3,0.5
		c0,0.5,0,1,0,1.6c0,0.3,0,0.6,0,1c0,0.4,0,0.8-0.1,1.3c0,0,0,0.1,0,0.1c0.2,0,0.3,0,0.5,0c0.3,0,0.5,0.2,0.5,0.5
		c0,0.5-0.1,1-0.3,1.5c0,0,0,0.1,0,0.1c0,0,0.1,0,0.1,0c0.2,0.1,0.3,0.2,0.3,0.4c0,0.5-0.1,1.1-0.3,1.6c0,0,0,0.1,0,0.1c0,0,0,0,0,0
		c0.3,0.1,0.3,0.2,0.3,0.5c0,0.5-0.1,1-0.3,1.4c0,0.1,0,0.1-0.1,0.2c0,0,0.1,0,0.1,0c0.1,0.1,0.2,0.2,0.2,0.3c0,1.1-0.3,2.1-1.1,2.9
		c-0.5,0.5-1.1,0.7-1.7,0.9c-0.2,0-0.4,0.1-0.6,0.1c0,0,0,0.1,0,0.1c0,1.3,0,2.5,0,3.8c0,0.2,0,0.3,0,0.5c0,0.2-0.2,0.3-0.3,0.4
		c-0.2,0-0.4,0-0.5-0.2c-0.3-0.6-0.6-1.2-0.9-1.8c-0.3-0.6-0.6-1.2-0.9-1.8c0,0,0-0.1-0.1-0.1c-0.3,0.1-0.5,0.2-0.8,0.2
		c-0.8,0.2-1.5,0.1-2.3-0.2c-0.5-0.3-0.9-0.6-1.3-1.1c-0.2-0.2-0.3-0.4-0.4-0.6c-0.2-0.3-0.1-0.4,0.1-0.6c-0.2-0.2-0.4-0.4-0.6-0.6
		C9,56.2,8.8,56,8.6,55.7c-0.1-0.2-0.1-0.3,0.1-0.6c0,0-0.1,0-0.1-0.1c-0.4-0.3-0.7-0.7-1-1.2c-0.2-0.3-0.1-0.4,0.1-0.6
		c0,0-0.1-0.1-0.1-0.1c-0.4-0.4-0.7-0.8-1-1.2c-0.1-0.2-0.1-0.5,0.2-0.6c0.2-0.1,0.3-0.1,0.5-0.2c-0.2-0.2-0.4-0.5-0.5-0.7
		c-0.1-0.2-0.2-0.4-0.3-0.6c-0.1-0.3-0.3-0.5-0.4-0.7c-0.2-0.4-0.5-0.9-0.7-1.3c-0.1-0.2-0.1-0.3,0-0.5C5.5,47,5.7,47,5.9,47
		c0.2,0,0.3,0.1,0.3,0.3c0.3,0.5,0.5,1,0.8,1.5c0,0,0,0.1,0.1,0.1c0.3-0.1,0.5-0.2,0.8-0.3c0-0.1-0.1-0.3-0.1-0.4
		c-0.2-0.6-0.2-1.2-0.1-1.8c0-0.1,0-0.2,0-0.3c-0.3-0.5-0.6-1.1-0.8-1.6c-0.1-0.3,0-0.6,0.3-0.6c0.2,0,0.3,0.1,0.5,0.3
		c0.3,0.5,0.6,1.1,0.8,1.6c0,0.1,0.1,0.1,0.2,0.2C9.2,46.3,9.7,46.7,10.2,47.4C10.1,47.4,10.1,47.4,10.2,47.4z M7.7,51.9
		c0.3,0.4,0.6,0.7,1,0.9c0.1,0,0.1,0.1,0.2,0c0.4-0.1,0.8-0.2,1.2-0.1c0.3,0,0.5,0.1,0.8,0.1c0.2,0.1,0.4,0.3,0.3,0.5
		c-0.1,0.2-0.3,0.4-0.5,0.3c-0.4-0.1-0.8-0.1-1.2-0.1c-0.2,0-0.5,0.1-0.7,0.2c0.2,0.4,0.7,0.8,1,1c0,0,0.1,0,0.1,0
		c0.4-0.1,0.8-0.2,1.3-0.1c0.3,0,0.5,0.1,0.7,0.1c0.2,0.1,0.3,0.2,0.3,0.4c0,0.2-0.1,0.4-0.3,0.4c-0.1,0-0.2,0-0.3,0
		c-0.6-0.2-1.2-0.1-1.8,0.1c0.3,0.3,0.5,0.6,0.9,0.9c0.1,0.1,0.2,0.1,0.4,0.1c0.7-0.2,1.3-0.2,2,0.1c0.2,0.1,0.4,0.2,0.7,0.3
		c0,0,0,0,0,0c-0.4-0.7-0.6-1.4-0.6-2.2c0-0.2,0-0.3,0.2-0.4c0.1,0,0.1-0.1,0.1-0.1c-0.1-0.3-0.2-0.7-0.3-1c0-0.2-0.1-0.5-0.1-0.7
		c0-0.2,0.1-0.4,0.3-0.4c-0.1-0.4-0.2-0.7-0.3-1c0-0.2-0.1-0.5-0.1-0.7c0-0.2,0.1-0.4,0.3-0.4c-0.1-0.3-0.2-0.6-0.3-0.9
		c-0.2,0.2-0.4,0.4-0.6,0.6c-0.4,0.4-0.6,0.9-0.7,1.5c0,0.5,0.1,1.1,0.3,1.5c0.2,0.4,0.4,0.8,0.6,1.1c0.1,0.2,0.1,0.5-0.1,0.6
		c-0.2,0.1-0.5,0.1-0.6-0.2c-0.1-0.1-0.1-0.2-0.2-0.3c-0.2-0.5-0.5-1-0.9-1.4c-0.5-0.5-1.1-0.9-1.9-0.9C8.5,51.6,8.1,51.7,7.7,51.9z
		 M10.7,57.6c0.9,1.3,2.1,1.5,3.3,1.1C13.2,57.5,12.1,57.1,10.7,57.6z M17.3,57.7c1.5-0.2,2.3-1.2,2.5-2.5
		C18.4,55.4,17.5,56.2,17.3,57.7z M16.3,57.7c-0.1-0.7-0.3-1.3-0.8-1.7c-0.5-0.5-1.1-0.6-1.7-0.7C14.1,56.7,14.9,57.5,16.3,57.7z
		 M16.3,51.2c-0.2-1.5-1.2-2.3-2.5-2.4c0.1,0.5,0.2,0.9,0.4,1.3c0,0,0.1,0.1,0.1,0.1c0.5,0.1,0.9,0.3,1.4,0.6
		C15.9,50.9,16.1,51,16.3,51.2z M16.3,55.5c-0.2-1.4-1-2.3-2.5-2.5c0.1,0.5,0.2,0.9,0.4,1.3c0,0,0.1,0.1,0.1,0.1
		c0.6,0.1,1.1,0.4,1.6,0.8C16.1,55.3,16.2,55.4,16.3,55.5z M17.3,55.5c0-0.1,0.1-0.1,0.1-0.1c0,0,0.1-0.1,0.1-0.1
		c0.5-0.4,1.1-0.7,1.7-0.9c0.1,0,0.1,0,0.2-0.1c0.1-0.2,0.2-0.4,0.3-0.6c0.1-0.2,0.1-0.4,0.2-0.6C18.2,53.3,17.4,54.2,17.3,55.5z
		 M19.8,50.9c-0.7,0.1-1.3,0.3-1.8,0.8c-0.4,0.5-0.7,1.2-0.7,1.6c0.1-0.1,0.3-0.3,0.4-0.4c0.4-0.3,0.9-0.5,1.4-0.7
		c0.1,0,0.1-0.1,0.2-0.1C19.6,51.8,19.7,51.3,19.8,50.9z M19.8,48.7c-0.7,0.1-1.4,0.4-1.9,0.9c-0.4,0.4-0.6,1-0.6,1.5
		c0,0,0.1-0.1,0.1-0.1c0,0,0.1-0.1,0.1-0.1c0.5-0.4,1-0.7,1.7-0.9c0,0,0.1,0,0.1-0.1C19.6,49.7,19.7,49.2,19.8,48.7z M13.8,50.9
		c0.1,0.4,0.2,0.9,0.4,1.2c0,0.1,0.1,0.1,0.2,0.2c0.7,0.2,1.3,0.5,1.8,1c0,0,0,0,0,0C16.1,51.8,15.2,51,13.8,50.9z M16.4,49.1
		c0-0.2,0-0.5,0-0.7c0-0.1,0-0.2-0.1-0.3c-0.2-0.3-0.4-0.5-0.5-0.8c-0.1-0.3-0.3-0.4-0.5-0.4c-0.2,0-0.4,0-0.6-0.1
		c0,0.3,0,0.6,0.1,0.9c0.1,0.3,0.3,0.6,0.6,0.7c0.1,0,0.2,0.1,0.4,0.2C15.9,48.7,16.1,48.9,16.4,49.1z M10.1,51
		c-0.1-0.3-0.3-0.5-0.4-0.8c0,0-0.1,0-0.1-0.1c-0.4-0.2-0.8-0.4-1.1-0.7c0,0-0.1,0-0.1,0c-0.3,0-0.7,0.1-1,0.3
		c0.2,0.3,0.4,0.7,0.7,0.9c0.1,0.1,0.3,0.2,0.5,0.2C9.1,50.8,9.6,50.8,10.1,51z M19,46.7c-0.3,0-0.7,0-1,0.2c0,0-0.1,0.1-0.1,0.1
		c-0.1,0.4-0.4,0.8-0.6,1.1c0,0-0.1,0.1-0.1,0.1c0,0.3,0,0.6,0,0.9c0,0,0,0,0,0c0,0,0-0.1,0-0.1c0.3-0.3,0.6-0.6,0.9-0.7
		c0.2-0.1,0.3-0.2,0.4-0.3C18.9,47.6,19,47.2,19,46.7z M11.3,47.7c-0.3,0.2-0.6,0.3-0.8,0.6c0,0,0,0.1,0,0.1c0,0.4,0.1,0.7,0,1.1
		c0,0.2,0,0.4,0.1,0.5c0.1,0.2,0.2,0.4,0.3,0.6c0.1-0.5,0.3-0.9,0.6-1.2c0.1-0.1,0.1-0.2,0.2-0.3C11.7,48.6,11.5,48.1,11.3,47.7z
		 M16.4,61.1C16.4,61.1,16.4,61.1,16.4,61.1c0-0.9,0-1.7,0-2.5c0-0.1,0-0.1-0.1-0.1c-0.5-0.1-0.9-0.2-1.4-0.4
		c-0.1,0-0.1-0.1-0.2-0.1C15.3,59,15.8,60.1,16.4,61.1z M9.6,49.2c0.2-0.8-0.5-2.1-1.2-2.3C8.3,47.8,8.9,48.9,9.6,49.2z M16.8,44.7
		c-0.6,0.8-0.6,2.1,0,2.6C17.4,46.5,17.4,45.5,16.8,44.7z"/>
</g>
</svg>
