<?xml version="1.0" encoding="utf-8"?>
<!-- Generator: Adobe Illustrator 24.0.1, SVG Export Plug-In . SVG Version: 6.00 Build 0)  -->
<svg version="1.1" id="Layer_1" xmlns="http://www.w3.org/2000/svg" xmlns:xlink="http://www.w3.org/1999/xlink" x="0px" y="0px"
	 viewBox="0 0 161.9 161.9" style="enable-background:new 0 0 161.9 161.9;" xml:space="preserve">
<style type="text/css">
	.st0{fill:url(#SVGID_1_);}
	.st1{fill:#0074FF;}
	.st2{fill:#002E77;}
	.st3{fill:url(#SVGID_2_);}
	.st4{fill:#FFFFFF;}
	.st5{fill:url(#SVGID_3_);}
</style>
<radialGradient id="SVGID_1_" cx="80.9694" cy="80.9694" r="80.9694" gradientUnits="userSpaceOnUse">
	<stop  offset="0" style="stop-color:#AECFFF"/>
	<stop  offset="0.197" style="stop-color:#C4DCFF"/>
	<stop  offset="0.5294" style="stop-color:#E4EFFF"/>
	<stop  offset="0.809" style="stop-color:#F8FBFF"/>
	<stop  offset="1" style="stop-color:#FFFFFF"/>
</radialGradient>
<circle class="st0" cx="81" cy="81" r="81"/>
<path class="st1" d="M62,67.7c0-0.2,0-0.3,0-0.5c0-3.9-3.1-7-7-7c0,0,0,0-0.1,0c-0.5-6-5.5-10.7-11.7-10.7
	c-6.5,0-11.7,5.2-11.7,11.7c0,0.6,0,1.2,0.1,1.8c-6.3,0.5-11.3,5.8-11.3,12.2c0,6.8,5.5,12.3,12.3,12.3h27.2c5.5,0,10-4.5,10-10
	C69.9,72.6,66.5,68.6,62,67.7z"/>
<path class="st2" d="M116.1,78.6c0-0.4,0.1-0.7,0.1-1.1c0-7.9-6.4-14.2-14.2-14.2c0,0-0.1,0-0.1,0c-1-12.3-11.3-21.9-23.8-21.9
	C64.7,41.4,54,52.1,54,65.3c0,1.2,0.1,2.4,0.3,3.6c-12.9,1.1-23,11.8-23,25c0,13.8,11.2,25.1,25.1,25.1h55.5
	c11.2,0,20.4-9.1,20.4-20.4C132.2,88.7,125.3,80.5,116.1,78.6z"/>
</svg>
