<?xml version="1.0" encoding="utf-8"?>
<!-- Generator: Adobe Illustrator 24.0.1, SVG Export Plug-In . SVG Version: 6.00 Build 0)  -->
<svg version="1.1" id="Layer_1" xmlns="http://www.w3.org/2000/svg" xmlns:xlink="http://www.w3.org/1999/xlink" x="0px" y="0px"
	 viewBox="0 0 35 35" style="enable-background:new 0 0 35 35;" xml:space="preserve">
<style type="text/css">
	.st0{fill:#F9E4CA;}
	.st1{fill:#EFCAA3;}
	.st2{fill:#F2D3B1;}
	.st3{fill:#FFFFFF;}
	.st4{fill:none;stroke:#EFCAA3;stroke-miterlimit:10;}
	.st5{fill:#993A3A;}
	.st6{fill:#842929;}
	.st7{fill:#F9B2B2;}
	.st8{fill:#F9CC9B;}
	.st9{fill:#FAFC9A;}
	.st10{fill:#FFFFC5;}
	.st11{fill:#F7B69C;}
	.st12{fill:#85A9F9;}
	.st13{fill:#B8CBFF;}
	.st14{fill:#D4E1FF;}
	.st15{fill:#1F39A2;}
	.st16{fill:none;stroke:#3B82FF;stroke-miterlimit:10;}
	.st17{fill:#559334;}
	.st18{fill:none;stroke:#B5F490;stroke-width:2;stroke-miterlimit:10;}
	.st19{fill:none;stroke:#B5F490;stroke-width:3;stroke-miterlimit:10;}
	.st20{fill:#81C462;}
	.st21{fill:#70AF4F;}
	.st22{fill:#51910D;}
	.st23{fill:#8C6D6D;}
	.st24{fill:#FF3E3E;}
	.st25{fill:#F22A2A;}
	.st26{fill:#FFD0C5;}
	.st27{fill:#FFF4E3;}
	.st28{fill:#FF9B80;}
</style>
<g>
	<path class="st26" d="M24.2,10c0-0.5-0.4-0.9-0.9-0.9H5.9C5.4,9.2,5,9.6,5,10V25c0,0.5,0.4,0.9,0.9,0.9h17.4c0.5,0,0.9-0.4,0.9-0.9
		V10z"/>
	<rect x="12.9" y="9.2" class="st27" width="3.3" height="3.6"/>
	<path class="st3" d="M13.2,23.4c0,0.1-0.1,0.3-0.3,0.3H7.3c-0.1,0-0.3-0.1-0.3-0.3V20c0-0.1,0.1-0.3,0.3-0.3h5.7
		c0.1,0,0.3,0.1,0.3,0.3V23.4z"/>
	<path class="st28" d="M29.1,9.2h-4.2h-0.2h-2v16.7h2h0.2h4.2c0.5,0,0.9-0.4,0.9-0.9V10C30,9.6,29.6,9.2,29.1,9.2z"/>
</g>
</svg>
