<?xml version="1.0" encoding="utf-8"?>
<!-- Generator: Adobe Illustrator 24.0.1, SVG Export Plug-In . SVG Version: 6.00 Build 0)  -->
<svg version="1.1" id="Layer_1" xmlns="http://www.w3.org/2000/svg" xmlns:xlink="http://www.w3.org/1999/xlink" x="0px" y="0px"
	 viewBox="0 0 35 35" style="enable-background:new 0 0 35 35;" xml:space="preserve">
<style type="text/css">
	.st0{fill:#F9E4CA;}
	.st1{fill:#EFCAA3;}
	.st2{fill:#F2D3B1;}
	.st3{fill:#FFFFFF;}
	.st4{fill:none;stroke:#EFCAA3;stroke-miterlimit:10;}
	.st5{fill:#993A3A;}
	.st6{fill:#842929;}
	.st7{fill:#F9B2B2;}
	.st8{fill:#F9CC9B;}
	.st9{fill:#FAFC9A;}
	.st10{fill:#FFFFC5;}
	.st11{fill:#F7B69C;}
	.st12{fill:#85A9F9;}
	.st13{fill:#B8CBFF;}
	.st14{fill:#D4E1FF;}
	.st15{fill:#1F39A2;}
	.st16{fill:none;stroke:#3B82FF;stroke-miterlimit:10;}
	.st17{fill:#559334;}
	.st18{fill:none;stroke:#B5F490;stroke-width:2;stroke-miterlimit:10;}
	.st19{fill:none;stroke:#B5F490;stroke-width:3;stroke-miterlimit:10;}
	.st20{fill:#81C462;}
	.st21{fill:#70AF4F;}
	.st22{fill:#51910D;}
	.st23{fill:#8C6D6D;}
	.st24{fill:#FF3E3E;}
	.st25{fill:#F22A2A;}
	.st26{fill:#FFD0C5;}
	.st27{fill:#FFF4E3;}
	.st28{fill:#FF9B80;}
</style>
<g>
	<path class="st3" d="M28.2,11c0.6-0.7,0.7-1.7,0-2.3c-0.6-0.6-1.6-0.5-2.3,0.1l0,0c0.6-0.7,0.6-1.7,0-2.3c-0.6-0.6-1.7-0.5-2.3,0.1
		c-0.5,0.5-0.6,1.1-0.4,1.7h0c0,0,0,0,0,0c0,0,0,0.1,0,0.1c0.1,0.3,0.4,1.2,0,1.6l-4.1,4.3l1.5,1.5l4.1-4.3l0,0
		c0.4-0.4,1.2-0.2,1.6-0.1c0,0,0.1,0,0.1,0c0,0,0,0,0,0l0,0C27.1,11.6,27.8,11.5,28.2,11z"/>
	<path class="st5" d="M23.4,20.1c0.1-0.1,0.1-0.2,0.2-0.3c0.1-0.3,0.2-0.4,0.2-0.4l0,0c1.2-2.7,1-5.6-0.9-7.4
		c-1.9-1.8-4.9-1.9-7.5-0.6l0,0c0,0-0.1,0.1-0.4,0.2c-0.1,0.1-0.2,0.1-0.3,0.2c-1.3,0.8-4.2,2.9-8.4,7.3l5.1,4.9l5.1,4.9
		C20.7,24.5,22.7,21.4,23.4,20.1z"/>
	<path class="st6" d="M23.4,12.6c0.3,1.5,0.1,3.1-0.6,4.7l0,0c0,0-0.1,0.1-0.2,0.4c-0.1,0.1-0.1,0.2-0.2,0.3
		c-0.7,1.3-2.7,4.3-6.9,8.7l-5.1-4.9L7,18.5c-0.2,0.2-0.4,0.4-0.6,0.6l5.1,4.9l5.1,4.9c4.2-4.4,6.1-7.4,6.9-8.7
		c0.1-0.1,0.1-0.2,0.2-0.3c0.1-0.3,0.2-0.4,0.2-0.4l0,0C24.9,17,24.8,14.4,23.4,12.6z"/>
	<path class="st3" d="M6.4,19.1c0.5-0.5,3.2,1.2,6,3.9c2.8,2.7,4.7,5.3,4.2,5.8c-0.5,0.5-3.2-1.2-6-3.9C7.7,22.3,5.8,19.7,6.4,19.1z
		"/>
	<path class="st7" d="M7.4,20.1c0.4-0.4,2.6,1,4.8,3.1c2.3,2.2,3.8,4.2,3.3,4.7c-0.4,0.4-2.6-1-4.8-3.1C8.5,22.6,7,20.5,7.4,20.1z"
		/>
	<path class="st3" d="M9.9,22.5c0.2-0.2,1,0.4,1.8,1.2c0.9,0.8,1.4,1.6,1.3,1.8c-0.2,0.2-1-0.4-1.8-1.2C10.3,23.5,9.8,22.7,9.9,22.5
		z"/>
</g>
</svg>
