<?xml version="1.0" encoding="utf-8"?>
<!-- Generator: Adobe Illustrator 24.0.1, SVG Export Plug-In . SVG Version: 6.00 Build 0)  -->
<svg version="1.1" id="Layer_1" xmlns="http://www.w3.org/2000/svg" xmlns:xlink="http://www.w3.org/1999/xlink" x="0px" y="0px"
	 viewBox="0 0 35 35" style="enable-background:new 0 0 35 35;" xml:space="preserve">
<style type="text/css">
	.st0{fill:#F9E4CA;}
	.st1{fill:#EFCAA3;}
	.st2{fill:#F2D3B1;}
	.st3{fill:#FFFFFF;}
	.st4{fill:none;stroke:#EFCAA3;stroke-miterlimit:10;}
	.st5{fill:#993A3A;}
	.st6{fill:#842929;}
	.st7{fill:#F9B2B2;}
	.st8{fill:#F9CC9B;}
	.st9{fill:#FAFC9A;}
	.st10{fill:#FFFFC5;}
	.st11{fill:#F7B69C;}
	.st12{fill:#85A9F9;}
	.st13{fill:#B8CBFF;}
	.st14{fill:#D4E1FF;}
	.st15{fill:#1F39A2;}
	.st16{fill:none;stroke:#3B82FF;stroke-miterlimit:10;}
	.st17{fill:#559334;}
	.st18{fill:none;stroke:#B5F490;stroke-width:2;stroke-miterlimit:10;}
	.st19{fill:none;stroke:#B5F490;stroke-width:3;stroke-miterlimit:10;}
	.st20{fill:#81C462;}
	.st21{fill:#70AF4F;}
	.st22{fill:#51910D;}
	.st23{fill:#8C6D6D;}
	.st24{fill:#FF3E3E;}
	.st25{fill:#F22A2A;}
	.st26{fill:#FFD0C5;}
	.st27{fill:#FFF4E3;}
	.st28{fill:#FF9B80;}
</style>
<g>
	<path class="st8" d="M24.8,8.5c-0.3-0.3-0.9-0.6-1.3-0.6H12.3c-0.4,0-0.6,0.3-0.3,0.6l2.2,2.6c0.3,0.3,0.7,0.6,0.9,0.6
		s0.4,0.4,0.4,0.8v16.8c0,0.4,0.4,0.8,0.8,0.8h10.4c0.4,0,0.8-0.4,0.8-0.8V12.5c0-0.4-0.2-1.1-0.5-1.4L24.8,8.5z"/>
	<path class="st8" d="M24.5,5.7c0-0.4-0.4-0.8-0.8-0.8H12.3c-0.4,0-0.8,0.4-0.8,0.8v2.7c0,0.4,0.4,0.8,0.8,0.8h11.4
		c0.4,0,0.8-0.4,0.8-0.8V5.7z"/>
	<path class="st9" d="M23.2,4.9H11.9c-0.4,0-0.8,0.4-0.8,0.8v2.5c0,0,0,0,0,0c0,0,0,0-0.1,0L8.1,11c-0.3,0.3-0.6,0.9-0.6,1.4v16.9
		c0,0.4,0.4,0.8,0.8,0.8h11.1c0.4,0,0.8-0.4,0.8-0.8V12.5c0-0.4,0.3-1.1,0.6-1.4l2.1-2h0l1.1-1V5.7C24,5.2,23.7,4.9,23.2,4.9z"/>
	<path class="st10" d="M24,5.7c0-0.4-0.4-0.8-0.8-0.8H11.9c-0.4,0-0.8,0.4-0.8,0.8v2.5c0,0,0,0,0,0c0,0,0,0-0.1,0l-2.7,2.5l0,0
		c0,0-0.2,0.7,1.7,0.7c1.9,0,9.2,0,9.2,0s1.1,0.1,1.9-0.6v0L23,9.2h0l1.1-1V5.7z"/>
	<path class="st9" d="M23.2,4.9H11.9c-0.4,0-0.8,0.4-0.8,0.8v2.5h13l0,0V5.7C24,5.2,23.7,4.9,23.2,4.9z"/>
	<path class="st3" d="M17.5,24.2c0,0.4-0.4,0.8-0.8,0.8h-6.5c-0.4,0-0.8-0.4-0.8-0.8v-7.9c0-0.4,0.4-0.8,0.8-0.8h6.5
		c0.4,0,0.8,0.4,0.8,0.8V24.2z"/>
	<g>
		<rect x="11.9" y="4.9" class="st8" width="0.7" height="3.4"/>
		<rect x="13.2" y="4.9" class="st8" width="0.7" height="3.4"/>
		<rect x="14.6" y="4.9" class="st8" width="0.7" height="3.4"/>
		<rect x="15.9" y="4.9" class="st8" width="0.7" height="3.4"/>
		<rect x="17.2" y="4.9" class="st8" width="0.7" height="3.4"/>
		<rect x="18.6" y="4.9" class="st8" width="0.7" height="3.4"/>
		<rect x="19.9" y="4.9" class="st8" width="0.7" height="3.4"/>
		<rect x="21.3" y="4.9" class="st8" width="0.7" height="3.4"/>
		<rect x="22.6" y="4.9" class="st8" width="0.7" height="3.4"/>
	</g>
	<polygon class="st11" points="21,11.6 26.9,11.6 24.2,8.6 	"/>
</g>
</svg>
