<?xml version="1.0" encoding="utf-8"?>
<!-- Generator: Adobe Illustrator 24.0.1, SVG Export Plug-In . SVG Version: 6.00 Build 0)  -->
<svg version="1.1" id="Layer_1" xmlns="http://www.w3.org/2000/svg" xmlns:xlink="http://www.w3.org/1999/xlink" x="0px" y="0px"
	 viewBox="0 0 35 35" style="enable-background:new 0 0 35 35;" xml:space="preserve">
<style type="text/css">
	.st0{fill:#F9E4CA;}
	.st1{fill:#EFCAA3;}
	.st2{fill:#F2D3B1;}
	.st3{fill:#FFFFFF;}
	.st4{fill:none;stroke:#EFCAA3;stroke-miterlimit:10;}
	.st5{fill:#993A3A;}
	.st6{fill:#842929;}
	.st7{fill:#F9B2B2;}
	.st8{fill:#F9CC9B;}
	.st9{fill:#FAFC9A;}
	.st10{fill:#FFFFC5;}
	.st11{fill:#F7B69C;}
	.st12{fill:#85A9F9;}
	.st13{fill:#B8CBFF;}
	.st14{fill:#D4E1FF;}
	.st15{fill:#1F39A2;}
	.st16{fill:none;stroke:#3B82FF;stroke-miterlimit:10;}
	.st17{fill:#559334;}
	.st18{fill:none;stroke:#B5F490;stroke-width:2;stroke-miterlimit:10;}
	.st19{fill:none;stroke:#B5F490;stroke-width:3;stroke-miterlimit:10;}
	.st20{fill:#81C462;}
	.st21{fill:#70AF4F;}
	.st22{fill:#51910D;}
	.st23{fill:#8C6D6D;}
	.st24{fill:#FF3E3E;}
	.st25{fill:#F22A2A;}
	.st26{fill:#FFD0C5;}
	.st27{fill:#FFF4E3;}
	.st28{fill:#FF9B80;}
</style>
<g>
	<g>
		<path class="st12" d="M8.9,24.3c0-0.5,0.4-1,1-1h14.3c0.5,0,1,0.5,1,1v5.6c0,0.6-0.5,1-1,1H9.9c-0.6,0-1-0.4-1-1V24.3z"/>
	</g>
	<g>
		<path class="st13" d="M9.7,24.4c0,1.1,0.9,2,2,2h8.9c1.1,0,2-0.9,2-2V6.1c0-1.1-0.9-2-2-2h-8.9c-1.1,0-2,0.9-2,2V24.4z"/>
	</g>
	<g>
		<path class="st14" d="M8.5,24.4c0,1.1,0.9,2,2,2h8.9c1.1,0,2-0.9,2-2V6.1c0-1.1-0.9-2-2-2h-8.9c-1.1,0-2,0.9-2,2V24.4z"/>
	</g>
	<g>
		<path class="st13" d="M6.9,24.3c0-0.5,0.5-1,1-1h14.3c0.6,0,1,0.5,1,1v5.6c0,0.6-0.4,1-1,1H7.9c-0.5,0-1-0.4-1-1V24.3z"/>
	</g>
	<g>
		<path class="st15" d="M19,11.1c0,0.3-0.2,0.5-0.5,0.5h-6.9c-0.3,0-0.5-0.2-0.5-0.5V7.8c0-0.3,0.2-0.5,0.5-0.5h6.9
			c0.3,0,0.5,0.2,0.5,0.5V11.1z"/>
	</g>
	<g>
		<path class="st16" d="M22.2,14.7c0,0,0.5,0,1,0c0.6,0,1,0.3,1,0.7c0,0.4,0,1.6,0,2.7v8.2c0,1.1,0.8,2,1.7,2s1.7-0.9,1.7-2V15
			c0-1.1,0-2.3,0-2.7s-0.3-0.7-0.7-0.7s-1.6,0-2.7,0h-2.1"/>
	</g>
</g>
</svg>
