<?xml version="1.0" encoding="utf-8"?>
<!-- Generator: Adobe Illustrator 24.0.1, SVG Export Plug-In . SVG Version: 6.00 Build 0)  -->
<svg version="1.1" id="Layer_1" xmlns="http://www.w3.org/2000/svg" xmlns:xlink="http://www.w3.org/1999/xlink" x="0px" y="0px"
	 viewBox="0 0 35 35" style="enable-background:new 0 0 35 35;" xml:space="preserve">
<style type="text/css">
	.st0{fill:#F9E4CA;}
	.st1{fill:#EFCAA3;}
	.st2{fill:#F2D3B1;}
	.st3{fill:#FFFFFF;}
	.st4{fill:none;stroke:#EFCAA3;stroke-miterlimit:10;}
	.st5{fill:#993A3A;}
	.st6{fill:#842929;}
	.st7{fill:#F9B2B2;}
	.st8{fill:#F9CC9B;}
	.st9{fill:#FAFC9A;}
	.st10{fill:#FFFFC5;}
	.st11{fill:#F7B69C;}
	.st12{fill:#85A9F9;}
	.st13{fill:#B8CBFF;}
	.st14{fill:#D4E1FF;}
	.st15{fill:#1F39A2;}
	.st16{fill:none;stroke:#3B82FF;stroke-miterlimit:10;}
	.st17{fill:#559334;}
	.st18{fill:none;stroke:#B5F490;stroke-width:2;stroke-miterlimit:10;}
	.st19{fill:none;stroke:#B5F490;stroke-width:3;stroke-miterlimit:10;}
	.st20{fill:#81C462;}
	.st21{fill:#70AF4F;}
	.st22{fill:#51910D;}
	.st23{fill:#8C6D6D;}
	.st24{fill:#FF3E3E;}
	.st25{fill:#F22A2A;}
	.st26{fill:#FFD0C5;}
	.st27{fill:#FFF4E3;}
	.st28{fill:#FF9B80;}
</style>
<g>
	<g>
		<path class="st17" d="M27.9,16.3c-1,2.6-3.9,4-6.5,3c-2.6-1-4-3.9-3-6.5c1-2.6,3.9-4,6.5-3C27.5,10.7,28.9,13.6,27.9,16.3z"/>
		<path class="st17" d="M21.8,14.6c-0.7,2-2.9,3-4.8,2.2c-2-0.7-3-2.9-2.2-4.8c0.7-2,2.9-3,4.8-2.2C21.5,10.5,22.5,12.6,21.8,14.6z"
			/>
		<path class="st17" d="M29.9,17.6c-0.7,2-2.9,3-4.8,2.2c-2-0.7-3-2.9-2.2-4.8c0.7-2,2.9-3,4.8-2.2C29.6,13.5,30.6,15.6,29.9,17.6z"
			/>
		<path class="st18" d="M17.5,14.4c0,0,2,3.5,1.8,7.6"/>
		<path class="st18" d="M23.4,13.3c0,0-2.8,4.6-4,8"/>
		<path class="st18" d="M26.9,17.3c0,0-5.3,2.2-7.3,4.7"/>
		<line class="st19" x1="20" y1="20.1" x2="18" y2="26.6"/>
		<path class="st20" d="M30.6,11.1c-0.3-0.1-0.6-0.2-0.8-0.2c0.6-2.4-0.7-5-3.2-5.9c-2.2-0.8-4.6,0-5.9,1.9
			c-0.4-0.3-0.8-0.6-1.3-0.8c-2.6-1-5.5,0.4-6.5,3c-1,2.6,0.4,5.5,3,6.5c2.2,0.8,4.6,0,5.9-1.9c0.4,0.3,0.8,0.6,1.3,0.8
			c0.3,0.1,0.6,0.2,0.8,0.2c-0.6,2.4,0.7,5,3.2,5.9c2.6,1,5.5-0.4,6.5-3C34.6,15,33.3,12.1,30.6,11.1z"/>
		<path class="st21" d="M33.3,18.3c-2.1,3-6.3,1.6-7.5-0.4c-1.2-2.1,0.2-3.9,0.2-3.9c-5.3-0.4-5.2-4-5.2-4c-0.1,2.7-1.9,4.6-5,4.2
			c-2.9-0.3-2.9-3.7-2.9-4.4c-0.6,2.4,0.7,5,3.2,5.9c2.2,0.8,4.6,0,5.9-1.9c0.4,0.3,0.8,0.6,1.3,0.8c0.3,0.1,0.6,0.2,0.8,0.2
			c-0.6,2.4,0.7,5,3.2,5.9C29.5,21.5,32.1,20.5,33.3,18.3z"/>
	</g>
	<g>
		<path class="st22" d="M7.1,16.8c0,0-1.2-4-5.7-1.5C1.5,15.3,4.2,19.3,7.1,16.8z"/>
		<g>
			<path class="st23" d="M7.3,17.4c-0.1-0.6-0.3-1.1-0.7-1.5c-0.4-0.4-0.8-0.6-1.3-0.7l0.3-1C6.2,14.6,6.7,15,7,15.6
				C7.3,16.2,7.3,16.9,7.3,17.4z"/>
		</g>
		<path class="st24" d="M15.3,20.3c0.9,3.9,0.2,8.5-5.2,9.8c-5.3,1.2-8-2.6-8.9-6.5c-0.9-3.9,2-5.8,5.9-6.7
			C11,15.9,14.5,16.4,15.3,20.3z"/>
		<path class="st25" d="M7.1,16.8c-1.2,0.3-2.3,0.7-3.3,1.2c0.6-0.2,1.3-0.5,2.1-0.6c3.8-0.9,7.1-0.4,7.9,3.3c0.9,3.8,0.2,8.2-5,9.4
			c-0.3,0.1-0.6,0.1-1,0.2c0.7,0,1.5,0,2.3-0.2c5.4-1.2,6.1-5.9,5.2-9.8C14.5,16.4,11,15.9,7.1,16.8z"/>
	</g>
</g>
</svg>
