<?xml version="1.0" encoding="utf-8"?>
<!-- Generator: Adobe Illustrator 24.0.1, SVG Export Plug-In . SVG Version: 6.00 Build 0)  -->
<svg version="1.1" id="Layer_1" xmlns="http://www.w3.org/2000/svg" xmlns:xlink="http://www.w3.org/1999/xlink" x="0px" y="0px"
	 viewBox="0 0 35 35" style="enable-background:new 0 0 35 35;" xml:space="preserve">
<style type="text/css">
	.st0{fill:#F9E4CA;}
	.st1{fill:#EFCAA3;}
	.st2{fill:#F2D3B1;}
	.st3{fill:#FFFFFF;}
	.st4{fill:none;stroke:#EFCAA3;stroke-miterlimit:10;}
	.st5{fill:#993A3A;}
	.st6{fill:#842929;}
	.st7{fill:#F9B2B2;}
	.st8{fill:#F9CC9B;}
	.st9{fill:#FAFC9A;}
	.st10{fill:#FFFFC5;}
	.st11{fill:#F7B69C;}
	.st12{fill:#85A9F9;}
	.st13{fill:#B8CBFF;}
	.st14{fill:#D4E1FF;}
	.st15{fill:#1F39A2;}
	.st16{fill:none;stroke:#3B82FF;stroke-miterlimit:10;}
	.st17{fill:#559334;}
	.st18{fill:none;stroke:#B5F490;stroke-width:2;stroke-miterlimit:10;}
	.st19{fill:none;stroke:#B5F490;stroke-width:3;stroke-miterlimit:10;}
	.st20{fill:#81C462;}
	.st21{fill:#70AF4F;}
	.st22{fill:#51910D;}
	.st23{fill:#8C6D6D;}
	.st24{fill:#FF3E3E;}
	.st25{fill:#F22A2A;}
	.st26{fill:#FFD0C5;}
	.st27{fill:#FFF4E3;}
	.st28{fill:#FF9B80;}
</style>
<g>
	<path class="st0" d="M6.5,25.5c0,2.8,2.2,5,5,5h12c2.8,0,5-2.2,5-5V12.3c0-2.8-2.2-5-5-5h-12c-2.8,0-5,2.2-5,5V25.5z"/>
	<path class="st1" d="M23.5,7.3h-5c2.8,0,5,2.2,5,5v13.3c0,2.8-2.2,5-5,5h5c2.8,0,5-2.2,5-5V12.3C28.5,9.5,26.3,7.3,23.5,7.3z"/>
	<path class="st2" d="M30,14.6c0,1.1-0.9,2-2,2H7c-1.1,0-2-0.9-2-2V9.3c0-1.1,0.9-2,2-2H28c1.1,0,2,0.9,2,2V14.6z"/>
	<polygon class="st3" points="7.6,7.3 17.5,4.5 27.4,7.3 17.5,9.8 	"/>
	<path class="st0" d="M27.4,7.3H7c-1.1,0-2,0.9-2,2v5.3c0,0.6,0.2,1.1,0.6,1.4H26c1.1,0,2-0.9,2-2V8.7C28,8.1,27.8,7.6,27.4,7.3z"/>
	<polygon class="st1" points="25.4,18.5 23.5,18.2 9.6,16.6 24.8,16.6 	"/>
	<g>
		<line class="st4" x1="9.2" y1="18.7" x2="9.2" y2="25"/>
		<line class="st4" x1="10.9" y1="18.7" x2="10.9" y2="25"/>
		<line class="st4" x1="8.2" y1="20.2" x2="12.7" y2="20.2"/>
		<line class="st4" x1="8.2" y1="22.1" x2="12.7" y2="22.1"/>
		<line class="st4" x1="8.2" y1="23.9" x2="12.7" y2="23.9"/>
	</g>
</g>
</svg>
