<?xml version="1.0" encoding="utf-8"?>
<!-- Generator: Adobe Illustrator 24.0.1, SVG Export Plug-In . SVG Version: 6.00 Build 0)  -->
<svg version="1.1" id="Layer_1" xmlns="http://www.w3.org/2000/svg" xmlns:xlink="http://www.w3.org/1999/xlink" x="0px" y="0px"
	 viewBox="0 0 41.2 41.2" style="enable-background:new 0 0 41.2 41.2;" xml:space="preserve">
<style type="text/css">
	.st0{fill:#FFFFFF;}
	.st1{fill:#EDF5FF;}
	.st2{fill:#002E76;}
</style>
<g>
	<g>
		<path class="st0" d="M26.5,41.2H14.7C6.6,41.2,0,34.6,0,26.5V14.7C0,6.6,6.6,0,14.7,0h11.9c8.1,0,14.7,6.6,14.7,14.7v11.9
			C41.2,34.6,34.6,41.2,26.5,41.2z"/>
	</g>
	<g>
		<g>
			<path class="st1" d="M28,16.3l-3.1-3.1c-0.4-0.4-1-0.4-1.4,0l-6.5,6.5l-2.4-2.4c-0.6-0.6-1.7-0.2-1.7,0.7v9.3c0,0.6,0.4,1,1,1
				h9.3c0.9,0,1.3-1.1,0.7-1.7l-2.4-2.4l6.5-6.5C28.4,17.3,28.4,16.7,28,16.3z"/>
			<path class="st2" d="M23.3,29h-9.3c-1,0-1.8-0.8-1.8-1.8v-9.3c0-0.7,0.4-1.3,1.1-1.6c0.7-0.3,1.4-0.1,1.9,0.4l1.9,1.9l5.9-5.9
				c0.7-0.7,1.8-0.7,2.5,0l3.1,3.1c0.3,0.3,0.5,0.8,0.5,1.2c0,0.5-0.2,0.9-0.5,1.2l-5.9,5.9l1.9,1.9c0.5,0.5,0.7,1.3,0.4,1.9
				S24,29,23.3,29z M13.9,17.7c0,0-0.1,0-0.1,0c-0.1,0-0.2,0.1-0.2,0.2v9.3c0,0.1,0.1,0.2,0.2,0.2h9.3c0.1,0,0.2-0.1,0.2-0.2
				s0-0.2-0.1-0.3L21,24.7c-0.3-0.3-0.3-0.8,0-1.1l6.5-6.5c0.1-0.1,0.1-0.1,0.1-0.2s0-0.1-0.1-0.2c0,0,0,0,0,0l-3.1-3.1
				c-0.1-0.1-0.3-0.1-0.4,0l-6.5,6.5c-0.3,0.3-0.8,0.3-1.1,0l-2.4-2.4C14,17.7,14,17.7,13.9,17.7z"/>
		</g>
	</g>
</g>
</svg>
