<?xml version="1.0" encoding="utf-8"?>
<!-- Generator: Adobe Illustrator 24.0.1, SVG Export Plug-In . SVG Version: 6.00 Build 0)  -->
<svg version="1.1" id="Layer_1" xmlns="http://www.w3.org/2000/svg" xmlns:xlink="http://www.w3.org/1999/xlink" x="0px" y="0px"
	 viewBox="0 0 106.3 106.3" style="enable-background:new 0 0 106.3 106.3;" xml:space="preserve">
<style type="text/css">
	.st0{clip-path:url(#SVGID_2_);}
	.st1{fill:#FFA897;}
	.st2{fill:#EF7E78;}
	.st3{fill:#03007F;}
	.st4{fill:#030093;}
	.st5{fill:#FFB8AE;}
	.st6{fill:#F79A8D;}
	.st7{fill:#F9C6C2;}
</style>
<g>
	<defs>
		<rect id="SVGID_1_" x="11" y="0" width="84.4" height="106.3"/>
	</defs>
	<clipPath id="SVGID_2_">
		<use xlink:href="#SVGID_1_"  style="overflow:visible;"/>
	</clipPath>
	<g class="st0">
		<path class="st1" d="M47.6,39.5c0.2-0.8,3-0.7,4.5,0c1.4,0.7,0.8,6-1,4.4C51.1,43.9,46.7,42.4,47.6,39.5z"/>
		<path class="st1" d="M59.7,54.5c0,0-1.4,0.4-2.8-0.9c-2.9-2.6-5.6-5.3-2.9-7C56.8,45,64,53.1,59.7,54.5z"/>
		<path class="st2" d="M39.5,44c0,0-2.2,3.8-2,7.9l1,5.5l5.5,1.5l0.7-9.9L39.5,44z"/>
		<path class="st3" d="M47.5,37c0,0,8.6,17.5,20,31.6c0,0,2.6-6,9.8-4.1s15.2,10.1,13.4,15.3c-1.7,5.2-14.6,11.1-21.9,6.3
			C61.5,81.3,57.4,74,57.4,74S40.7,52,38,43.3s-6.8-20.9-2.5-26.1S46.4,3.5,52.4,8s8.9,22.9,3.1,24C49.6,33.2,46.3,33.8,47.5,37z"/>
		<path class="st1" d="M38.3,59.2c0,0-2.9,1.4-4.2-0.6S32,52.6,30.8,50s0.1-5.1,2.6-5.1c2.5,0,4.8,2.8,5.5,5.5
			C39.7,53.2,40.4,58,38.3,59.2z"/>
		<path class="st1" d="M33.9,49c0,0-2.8,0.3-3.2-2.2c-0.4-2.6,1.9-4.2,2.5-7.4s1.5-3.4,2.5-3.2c1,0.1,3.1,3.2,2,8.3
			C36.8,48.8,33.9,49,33.9,49z"/>
		<path class="st1" d="M51,76.9c0,0-8.5-0.7-8.6,7.6s-5.6,27.8-17.5,57.9h31c0,0-2.8-23.8,3.1-46C64.2,77.3,52.6,76.9,51,76.9z"/>
		<path class="st1" d="M57.2,45.8c0,0,0.4,2.6-2.3,2.6s-5.2-3.2-4.7-7.1c0,0,0-1.3,0.9-1.6c0.9-0.3,1.5,0.1,1.5,0.1s1.5,1.2,1.9,1.9
			C54.9,42.4,57.2,44.9,57.2,45.8z"/>
		<path class="st1" d="M59.4,51.3c0,0-2.2-0.6-2.6,2.9c-0.4,3.5-0.3,7,3.1,7.4c0,0,0.9,0.1,1.5-0.6s0.6-3.5,0.6-3.5
			S62.5,52,59.4,51.3z"/>
		<path class="st4" d="M62.9,62.6c1.5,2,3,4.1,4.6,6c0,0-2,4-1.6,7.3C65.9,76,64.8,68.5,62.9,62.6z"/>
		<path class="st1" d="M65,61.6c0,0-1.9-0.4-2.8,1.9c-0.9,2.3-1.3,6.3,1.2,7c2.5,0.7,1.9-1.5,2.6-3.4C66.7,65.3,67.1,62.2,65,61.6z"
			/>
		<path class="st1" d="M64.6,65c0,0-2.4-0.4-3.6-3.6c-1.2-3.2-1.5-5.9,0.9-4.8C64.4,57.7,69.3,65.6,64.6,65z"/>
		<path class="st4" d="M55.5,32.1c-0.2,0-0.5,0.1-0.7,0.1c0,0,0,0,0,0c-6.2-0.6-9.8-9.5-10.1-17.3c-0.3-7.1,2.8-8,3.4-8.1
			C49.5,6.6,51,6.9,52.4,8C58.4,12.5,61.3,30.9,55.5,32.1z"/>
		<path class="st4" d="M69.7,72.1c-1.7-5,0.8-6.8,0.8-6.8l0,0c1.5-1,3.7-1.5,6.7-0.7c7.1,1.9,15.2,10.1,13.4,15.3
			c-0.4,1.2-1.4,2.5-2.8,3.6C82.2,86.8,71.4,77,69.7,72.1z"/>
		<path class="st3" d="M50.7,7.7c0,0-2.8-1.4-3.7,3.5c-1.7,8.9,4.3,21.6,9.1,19.5S56.4,8.7,50.7,7.7z"/>
		<path class="st4" d="M51.5,12.6c0,0-1.5-0.7-2,1.8c-0.9,4.7,2.3,11.4,4.8,10.3S54.5,13.1,51.5,12.6z"/>
		<path class="st3" d="M76.8,64.9c0,0-2.5-0.8-3.8,0.5c-1.3,1.3-1.3,5.5,1.7,9.1s12.4,10.9,15.2,5.5C92.6,74.4,81.9,66.2,76.8,64.9z
			"/>
		<path class="st4" d="M78.9,68.8c0,0-1.3-0.4-2,0.3c-0.7,0.7-0.7,2.9,0.9,4.8c1.6,1.9,6.5,5.8,8,2.9S81.6,69.5,78.9,68.8z"/>
		<path class="st5" d="M33.2,39.3c0.3-1.6,0.7-2.4,1.1-2.9c0,0,0.5-0.1,0.4,1.5c-0.1,1.6-0.5,4.4-2.1,3.4c0,0,0,0,0,0
			C32.8,40.8,33,40.1,33.2,39.3z"/>
		<path class="st5" d="M53.8,44.8c-0.9-1.2-0.3-3.7,1.3-2.2h0c0.8,1,2.1,2.5,2.1,3.2c0,0,0,0.3,0,0.6c0,0,0-0.7-0.9-0.8
			C55.3,45.5,54.7,46,53.8,44.8z"/>
		<path class="st5" d="M59.5,60.2c-0.3-1.1-0.2-3.4,0.6-3.6c0.8-0.3,1.8,1,1.8,1s0,2.1-0.4,3.1c0,0,0,0.1,0,0.1c0,0,0,0,0,0
			c0,0,0,0,0,0c0,0.1-0.1,0.1-0.1,0.1C61,61.5,59.8,61.2,59.5,60.2z"/>
		<path class="st5" d="M64.5,66.2c0.4,0.2,1.3,0.8,1.3,1.3c0,0,0,0,0,0c-0.3,0.9-0.3,1.9-0.6,2.5c0,0-0.2-0.7-1.1-0.9
			c-0.9-0.2-0.6-2.5-0.2-3C64,66.1,64.2,66,64.5,66.2z"/>
		<path class="st1" d="M35.9,54.4c5.4-2.2,7.6,6.6,7.6,6.6c3.6-2.3,7-1.9,10.6,2.5S57.4,74,57.4,74s2.1,3.7,5.9,7.6
			c-1.2,3.4-3.9,8.7-9.7,9.5c-8.7,1.2-10.9-4.2-12.1-10.2s-3.4-10.5-3.4-10.5s-3.6-6-3.9-10.8C33.9,54.8,35.9,54.4,35.9,54.4z"/>
		<path class="st6" d="M43.5,60.9c1.8-1.2,3.5-1.6,5.3-1.3c1.2,4.1,2.1,9.7-1.1,10.3c-5.3,1-5-3.4-5-3.4s0.1-2.5-0.9-4.9
			c-0.9-2.5-1.1-3.5-1.2-4.9c-0.1-1.4-0.9-2.1-0.9-2.1C42.4,56.3,43.5,60.9,43.5,60.9z"/>
		<path class="st1" d="M49.4,56.2c0,0,0-5-5.3-4.1c-4.6,0.8-1.9,8-1.9,8s0.6,1.7,0.4,3.5c-0.1,1.7-1.2,8.6,5.8,8.2
			c7-0.4,5.1-8.4,2.2-11.8C49.3,58.3,49.4,56.2,49.4,56.2z"/>
		<path class="st1" d="M45.1,59.9c0,0-3.4-0.4-3.6-4.1c-0.2-3.6-1.7-6-1.9-8c-0.1-2-0.6-5.4,2.9-5.2c3.5,0.1,7.9,4.7,7.3,11.5
			S45.1,59.9,45.1,59.9z"/>
		<path class="st5" d="M45,49.4c0,0-1.8,1-3.9,0.5c0,0-2.5-5.8,0.8-5.9S45,49.4,45,49.4z"/>
		<path class="st7" d="M45,49.4c0,0-1.8,1-3.9,0.5C41.8,47.7,45,49.4,45,49.4z"/>
		<path class="st6" d="M63.3,81.6c-0.6,1.7-1.5,3.7-3,5.6l0,0c1-5.9-2.5-12.4-2.9-13.1C57.7,74.6,59.8,78.1,63.3,81.6z"/>
		<path class="st6" d="M42,83C42,83,42,83,42,83c-0.2-0.7-0.3-1.4-0.5-2.1c-1.2-6-3.4-10.5-3.4-10.5s-2.9-4.7-3.7-9.2
			c0,0,0.9,3.9,4.5,8.1C42.4,73.4,41.2,79,42,83z"/>
		<path class="st6" d="M49,142.4c1.3-15.6,6-35,7.2-38.4c2.2-5.8,3.8-12.4,3.9-12.8c-0.2,1.6-0.5,3.3-1.1,5.2
			c-5.9,22.2-3.1,46-3.1,46H49z"/>
	</g>
</g>
</svg>
