<?xml version="1.0" encoding="utf-8"?>
<!-- Generator: Adobe Illustrator 24.0.1, SVG Export Plug-In . SVG Version: 6.00 Build 0)  -->
<svg version="1.1" id="Layer_1" xmlns="http://www.w3.org/2000/svg" xmlns:xlink="http://www.w3.org/1999/xlink" x="0px" y="0px"
	 viewBox="0 0 41.2 41.2" style="enable-background:new 0 0 41.2 41.2;" xml:space="preserve">
<style type="text/css">
	.st0{fill:#FFC900;}
	.st1{fill:#FFFFFF;}
	.st2{fill:#002E76;}
</style>
<g>
	<g>
		<path class="st0" d="M26.5,41.2H14.7C6.6,41.2,0,34.6,0,26.5V14.7C0,6.6,6.6,0,14.7,0h11.9c8.1,0,14.7,6.6,14.7,14.7v11.9
			C41.2,34.6,34.6,41.2,26.5,41.2z"/>
	</g>
	<g>
		<g>
			<path class="st1" d="M23.8,29.8h-6.4c-3.3,0-6-2.7-6-6v-6.4c0-3.3,2.7-6,6-6h6.4c3.3,0,6,2.7,6,6v6.4
				C29.8,27.1,27.1,29.8,23.8,29.8z"/>
			<path class="st2" d="M23.8,30.5h-6.4c-3.7,0-6.7-3-6.7-6.7v-6.4c0-3.7,3-6.7,6.7-6.7h6.4c3.7,0,6.7,3,6.7,6.7v6.4
				C30.5,27.5,27.5,30.5,23.8,30.5z M17.4,12.2c-2.9,0-5.2,2.4-5.2,5.2v6.4c0,2.9,2.4,5.2,5.2,5.2h6.4c2.9,0,5.2-2.4,5.2-5.2v-6.4
				c0-2.9-2.4-5.2-5.2-5.2H17.4z"/>
		</g>
		<g>
			<g>
				<path class="st2" d="M17.9,25.1c-0.1,0-0.1,0-0.2,0c-0.4-0.1-0.6-0.5-0.5-0.9l1.8-7.5c0.1-0.4,0.5-0.6,0.9-0.5
					c0.4,0.1,0.6,0.5,0.5,0.9l-1.8,7.5C18.6,24.9,18.3,25.1,17.9,25.1z"/>
			</g>
			<g>
				<path class="st2" d="M21.4,25.1c-0.1,0-0.1,0-0.2,0c-0.4-0.1-0.6-0.5-0.5-0.9l1.8-7.5c0.1-0.4,0.5-0.6,0.9-0.5
					c0.4,0.1,0.6,0.5,0.5,0.9l-1.8,7.5C22.1,24.9,21.8,25.1,21.4,25.1z"/>
			</g>
		</g>
		<g>
			<g>
				<path class="st2" d="M24.9,20h-8c-0.4,0-0.8-0.3-0.8-0.8s0.3-0.8,0.8-0.8h8c0.4,0,0.8,0.3,0.8,0.8S25.3,20,24.9,20z"/>
			</g>
			<g>
				<path class="st2" d="M24.3,22.7h-8c-0.4,0-0.8-0.3-0.8-0.8s0.3-0.8,0.8-0.8h8c0.4,0,0.8,0.3,0.8,0.8S24.7,22.7,24.3,22.7z"/>
			</g>
		</g>
	</g>
</g>
</svg>
