<?xml version="1.0" encoding="utf-8"?>
<!-- Generator: Adobe Illustrator 24.0.1, SVG Export Plug-In . SVG Version: 6.00 Build 0)  -->
<svg version="1.1" id="Layer_1" xmlns="http://www.w3.org/2000/svg" xmlns:xlink="http://www.w3.org/1999/xlink" x="0px" y="0px"
	 viewBox="0 0 41.2 41.2" style="enable-background:new 0 0 41.2 41.2;" xml:space="preserve">
<style type="text/css">
	.st0{fill:#FFC900;}
	.st1{fill:#FFFFFF;}
	.st2{fill:#002E76;}
</style>
<g>
	<g>
		<path class="st0" d="M26.5,41.2H14.7C6.6,41.2,0,34.6,0,26.5V14.7C0,6.6,6.6,0,14.7,0h11.9c8.1,0,14.7,6.6,14.7,14.7v11.9
			C41.2,34.6,34.6,41.2,26.5,41.2z"/>
	</g>
	<g>
		<g>
			<path class="st1" d="M23.7,30.1h-6.1c-2.4,0-4.4-2-4.4-4.4V25c0-2.4,2-4.4,4.4-4.4h6.1c2.4,0,4.4,2,4.4,4.4v0.7
				C28,28.1,26.1,30.1,23.7,30.1z"/>
			<path class="st2" d="M23.7,30.8h-6.1c-2.8,0-5.1-2.3-5.1-5.1V25c0-2.8,2.3-5.1,5.1-5.1h6.1c2.8,0,5.1,2.3,5.1,5.1v0.7
				C28.8,28.5,26.5,30.8,23.7,30.8z M17.5,21.4c-2,0-3.6,1.6-3.6,3.6v0.7c0,2,1.6,3.6,3.6,3.6h6.1c2,0,3.6-1.6,3.6-3.6V25
				c0-2-1.6-3.6-3.6-3.6H17.5z"/>
		</g>
		<g>
			<circle class="st1" cx="20.6" cy="14.8" r="3.7"/>
			<path class="st2" d="M20.6,19.3c-2.5,0-4.5-2-4.5-4.5s2-4.5,4.5-4.5s4.5,2,4.5,4.5S23.1,19.3,20.6,19.3z M20.6,11.9
				c-1.6,0-3,1.3-3,3s1.3,3,3,3s3-1.3,3-3S22.2,11.9,20.6,11.9z"/>
		</g>
	</g>
</g>
</svg>
