<?xml version="1.0" encoding="utf-8"?>
<!-- Generator: Adobe Illustrator 24.0.1, SVG Export Plug-In . SVG Version: 6.00 Build 0)  -->
<svg version="1.1" id="Layer_1" xmlns="http://www.w3.org/2000/svg" xmlns:xlink="http://www.w3.org/1999/xlink" x="0px" y="0px"
	 viewBox="0 0 41.2 41.2" style="enable-background:new 0 0 41.2 41.2;" xml:space="preserve">
<style type="text/css">
	.st0{fill:#FFFFFF;}
	.st1{fill:#EDF5FF;}
	.st2{fill:#002E76;}
</style>
<g>
	<g>
		<path class="st0" d="M26.5,41.2H14.7C6.6,41.2,0,34.6,0,26.5V14.7C0,6.6,6.6,0,14.7,0h11.9c8.1,0,14.7,6.6,14.7,14.7v11.9
			C41.2,34.6,34.6,41.2,26.5,41.2z"/>
	</g>
	<g>
		<g>
			<path class="st1" d="M25.9,27.2h-8.4c-3.3,0-6-2.7-6-6v-3.8c0-3.3,2.7-6,6-6h6.4c3.3,0,6,2.7,6,6v3.8v8.5L25.9,27.2z"/>
			<path class="st2" d="M29.8,30.5c-0.1,0-0.3,0-0.4-0.1L25.6,28h-8.2c-3.7,0-6.7-3-6.7-6.7v-3.8c0-3.7,3-6.7,6.7-6.7h6.4
				c3.7,0,6.7,3,6.7,6.7v12.3c0,0.3-0.2,0.5-0.4,0.7C30,30.5,29.9,30.5,29.8,30.5z M17.4,12.2c-2.9,0-5.2,2.4-5.2,5.2v3.8
				c0,2.9,2.4,5.2,5.2,5.2h8.4c0.1,0,0.3,0,0.4,0.1l2.8,1.8v-11c0-2.9-2.4-5.2-5.2-5.2H17.4z"/>
		</g>
		<g>
			<path class="st2" d="M23.3,22.3c-0.1,0-0.3,0-0.4-0.1l-3-2v-4.4c0-0.4,0.3-0.8,0.8-0.8s0.8,0.3,0.8,0.8v3.6l2.4,1.6
				c0.3,0.2,0.4,0.7,0.2,1C23.8,22.1,23.6,22.3,23.3,22.3z"/>
		</g>
	</g>
</g>
</svg>
