<?xml version="1.0" encoding="utf-8"?>
<!-- Generator: Adobe Illustrator 24.0.1, SVG Export Plug-In . SVG Version: 6.00 Build 0)  -->
<svg version="1.1" id="Layer_1" xmlns="http://www.w3.org/2000/svg" xmlns:xlink="http://www.w3.org/1999/xlink" x="0px" y="0px"
	 viewBox="0 0 41.2 41.2" style="enable-background:new 0 0 41.2 41.2;" xml:space="preserve">
<style type="text/css">
	.st0{fill:#FFFFFF;}
	.st1{fill:#EDF5FF;}
	.st2{fill:#002E76;}
</style>
<g>
	<g>
		<path class="st0" d="M26.5,41.2H14.7C6.6,41.2,0,34.6,0,26.5V14.7C0,6.6,6.6,0,14.7,0h11.9c8.1,0,14.7,6.6,14.7,14.7v11.9
			C41.2,34.6,34.6,41.2,26.5,41.2z"/>
	</g>
	<g>
		<g>
			<g>
				<path class="st1" d="M23.7,29.6c-0.5,0-1.1-0.2-1.6-0.5c-1.3-0.9-3.4-2.7-5.5-5.7l0,0c-2.1-3-3.1-5.5-3.6-7
					c-0.3-1.1,0.1-2.3,1-3l2.1-1.5c0.5-0.3,1.1-0.5,1.7-0.3c0.6,0.2,1,0.6,1.3,1.1l0.9,2c0.3,0.7,0.1,1.6-0.6,2.1L17.9,18
					c0.5,1,1.2,2.1,1.9,3.1c0.7,1,1.5,2,2.3,2.8l1.6-1.1c0.7-0.5,1.6-0.4,2.2,0.1l1.6,1.5c0.4,0.4,0.7,1,0.6,1.6s-0.3,1.1-0.8,1.5
					l-2.1,1.5C24.8,29.5,24.3,29.6,23.7,29.6z"/>
				<path class="st2" d="M23.7,30.4c-0.7,0-1.4-0.2-2-0.6c-1.4-1-3.5-2.8-5.7-5.8c-2.2-3.1-3.2-5.6-3.7-7.3
					c-0.4-1.4,0.1-2.9,1.3-3.8l2.1-1.5c0.7-0.5,1.5-0.6,2.3-0.4c0.8,0.2,1.4,0.8,1.8,1.5l0.9,2c0.5,1.1,0.1,2.4-0.8,3l-1,0.7
					c0.5,0.8,1,1.6,1.6,2.5c0.6,0.8,1.2,1.6,1.8,2.3l1-0.7c1-0.7,2.3-0.6,3.1,0.2l1.6,1.5c0.6,0.6,0.9,1.4,0.9,2.2
					c-0.1,0.8-0.5,1.6-1.1,2.1l-2.1,1.5C25.2,30.2,24.5,30.4,23.7,30.4z M17.3,12.3c-0.3,0-0.5,0.1-0.7,0.2l-2.1,1.5
					c-0.7,0.5-1,1.4-0.7,2.2c0.4,1.5,1.4,3.9,3.5,6.8c2.1,2.9,4.1,4.6,5.3,5.5c0.7,0.5,1.6,0.5,2.3,0L27,27c0.3-0.2,0.5-0.6,0.5-0.9
					c0-0.4-0.1-0.7-0.4-1l-1.6-1.5c-0.3-0.3-0.9-0.3-1.2-0.1l-1.6,1.1c-0.3,0.2-0.7,0.2-1-0.1c-0.8-0.9-1.6-1.9-2.4-2.9
					c-0.8-1.1-1.4-2.1-2-3.2c-0.2-0.3-0.1-0.7,0.2-1l1.6-1.1c0.4-0.3,0.5-0.8,0.3-1.2l-0.9-2c-0.2-0.3-0.4-0.6-0.8-0.7
					C17.6,12.3,17.5,12.3,17.3,12.3z"/>
			</g>
		</g>
	</g>
</g>
</svg>
