<?xml version="1.0" encoding="utf-8"?>
<!-- Generator: Adobe Illustrator 24.0.1, SVG Export Plug-In . SVG Version: 6.00 Build 0)  -->
<svg version="1.1" id="Layer_1" xmlns="http://www.w3.org/2000/svg" xmlns:xlink="http://www.w3.org/1999/xlink" x="0px" y="0px"
	 viewBox="0 0 41.2 41.2" style="enable-background:new 0 0 41.2 41.2;" xml:space="preserve">
<style type="text/css">
	.st0{fill:#FFFFFF;}
	.st1{fill:#EDF5FF;}
	.st2{fill:#002E76;}
</style>
<g>
	<g>
		<path class="st0" d="M26.5,41.2H14.7C6.6,41.2,0,34.6,0,26.5V14.7C0,6.6,6.6,0,14.7,0h11.9c8.1,0,14.7,6.6,14.7,14.7v11.9
			C41.2,34.6,34.6,41.2,26.5,41.2z"/>
	</g>
	<g>
		<g>
			<path class="st1" d="M20.6,19.7L20.6,19.7c-2.7,0-4.9-2.2-4.9-4.9v-3.3h9.8v3.3C25.5,17.5,23.3,19.7,20.6,19.7z"/>
			<path class="st2" d="M20.6,20.4c-3.1,0-5.6-2.5-5.6-5.6v-4.1h11.3v4.1C26.2,17.9,23.7,20.4,20.6,20.4z M16.5,12.2v2.6
				c0,2.3,1.9,4.1,4.1,4.1s4.1-1.9,4.1-4.1v-2.6H16.5z"/>
		</g>
		<g>
			<path class="st1" d="M20.6,21.5L20.6,21.5c-2.7,0-4.9,2.2-4.9,4.9v3.3h9.8v-3.3C25.5,23.7,23.3,21.5,20.6,21.5z"/>
			<path class="st2" d="M26.2,30.5H15v-4.1c0-3.1,2.5-5.6,5.6-5.6s5.6,2.5,5.6,5.6V30.5z M16.5,29h8.3v-2.6c0-2.3-1.9-4.1-4.1-4.1
				s-4.1,1.9-4.1,4.1V29z"/>
		</g>
	</g>
</g>
</svg>
