<?xml version="1.0" encoding="utf-8"?>
<!-- Generator: Adobe Illustrator 24.0.1, SVG Export Plug-In . SVG Version: 6.00 Build 0)  -->
<svg version="1.1" id="Layer_1" xmlns="http://www.w3.org/2000/svg" xmlns:xlink="http://www.w3.org/1999/xlink" x="0px" y="0px"
	 viewBox="0 0 41.2 41.2" style="enable-background:new 0 0 41.2 41.2;" xml:space="preserve">
<style type="text/css">
	.st0{fill:#FFFFFF;}
	.st1{fill:#EDF5FF;}
	.st2{fill:#002E76;}
</style>
<g>
	<g>
		<path class="st0" d="M26.5,41.2H14.7C6.6,41.2,0,34.6,0,26.5V14.7C0,6.6,6.6,0,14.7,0h11.9c8.1,0,14.7,6.6,14.7,14.7v11.9
			C41.2,34.6,34.6,41.2,26.5,41.2z"/>
	</g>
	<g>
		<g>
			<g>
				<path class="st1" d="M27.4,25.7h-8.4c-3.3,0-6-2.7-6-6v-3.8c0-3.3,2.7-6,6-6h6.4c3.3,0,6,2.7,6,6v3.8v8.5L27.4,25.7z"/>
				<path class="st2" d="M31.3,29c-0.1,0-0.3,0-0.4-0.1l-3.7-2.4h-8.2c-3.7,0-6.7-3-6.7-6.7v-3.8c0-3.7,3-6.7,6.7-6.7h6.4
					c3.7,0,6.7,3,6.7,6.7v12.3c0,0.3-0.2,0.5-0.4,0.7C31.5,29,31.4,29,31.3,29z M18.9,10.7c-2.9,0-5.2,2.4-5.2,5.2v3.8
					c0,2.9,2.4,5.2,5.2,5.2h8.4c0.1,0,0.3,0,0.4,0.1l2.8,1.8v-11c0-2.9-2.4-5.2-5.2-5.2H18.9z"/>
			</g>
			<g>
				<path class="st2" d="M24.8,20.8c-0.1,0-0.3,0-0.4-0.1l-3-2v-4.4c0-0.4,0.3-0.8,0.8-0.8s0.8,0.3,0.8,0.8v3.6l2.4,1.6
					c0.3,0.2,0.4,0.7,0.2,1C25.3,20.6,25.1,20.8,24.8,20.8z"/>
			</g>
		</g>
		<g>
			<g>
				<path class="st0" d="M12.5,29.6h5.6c2.2,0,4-1.8,4-4v-2.5c0-2.2-1.8-4-4-4h-4.2c-2.2,0-4,1.8-4,4v2.5v5.7L12.5,29.6z"/>
				<path class="st2" d="M9.9,32c-0.1,0-0.2,0-0.4-0.1c-0.2-0.1-0.4-0.4-0.4-0.7v-8.2c0-2.6,2.1-4.7,4.7-4.7h4.2
					c2.6,0,4.7,2.1,4.7,4.7v2.5c0,2.6-2.1,4.7-4.7,4.7h-5.4l-2.4,1.6C10.2,32,10.1,32,9.9,32z M13.9,19.9c-1.8,0-3.2,1.4-3.2,3.2
					v6.8l1.4-0.9c0.1-0.1,0.3-0.1,0.4-0.1h5.6c1.8,0,3.2-1.4,3.2-3.2v-2.5c0-1.8-1.4-3.2-3.2-3.2H13.9z"/>
			</g>
		</g>
	</g>
</g>
</svg>
