<?xml version="1.0" encoding="utf-8"?>
<!-- Generator: Adobe Illustrator 24.0.1, SVG Export Plug-In . SVG Version: 6.00 Build 0)  -->
<svg version="1.1" id="Layer_1" xmlns="http://www.w3.org/2000/svg" xmlns:xlink="http://www.w3.org/1999/xlink" x="0px" y="0px"
	 viewBox="0 0 41.2 41.2" style="enable-background:new 0 0 41.2 41.2;" xml:space="preserve">
<style type="text/css">
	.st0{fill:#FFFFFF;}
	.st1{fill:#EDF5FF;}
	.st2{fill:#002E76;}
</style>
<g>
	<g>
		<path class="st0" d="M26.5,41.2H14.7C6.6,41.2,0,34.6,0,26.5V14.7C0,6.6,6.6,0,14.7,0h11.9c8.1,0,14.7,6.6,14.7,14.7v11.9
			C41.2,34.6,34.6,41.2,26.5,41.2z"/>
	</g>
	<g>
		<g>
			<path class="st1" d="M13.2,24.9l3.1,3.1c0.4,0.4,1,0.4,1.4,0l6.5-6.5l2.4,2.4c0.6,0.6,1.7,0.2,1.7-0.7v-9.3c0-0.6-0.4-1-1-1h-9.3
				c-0.9,0-1.3,1.1-0.7,1.7l2.4,2.4l-6.5,6.5C12.8,23.9,12.8,24.6,13.2,24.9z"/>
			<path class="st2" d="M17,29c-0.4,0-0.9-0.2-1.2-0.5l-3.1-3.1l0,0c-0.7-0.7-0.7-1.8,0-2.5l5.9-5.9l-1.9-1.9
				c-0.5-0.5-0.7-1.3-0.4-1.9c0.3-0.7,0.9-1.1,1.6-1.1h9.3c1,0,1.8,0.8,1.8,1.8v9.3c0,0.7-0.4,1.3-1.1,1.6c-0.7,0.3-1.4,0.1-1.9-0.4
				l-1.9-1.9l-5.9,5.9C17.9,28.9,17.4,29,17,29z M13.7,24.4l3.1,3.1c0.1,0.1,0.3,0.1,0.4,0l6.5-6.5c0.1-0.1,0.3-0.2,0.5-0.2l0,0
				c0.2,0,0.4,0.1,0.5,0.2l2.4,2.4c0.1,0.1,0.2,0.1,0.3,0.1c0.1,0,0.2-0.1,0.2-0.2v-9.3c0-0.1-0.1-0.2-0.2-0.2h-9.3
				c-0.1,0-0.2,0.1-0.2,0.2c0,0.1,0,0.2,0.1,0.3l2.4,2.4c0.3,0.3,0.3,0.8,0,1.1l-6.5,6.5C13.6,24.2,13.6,24.3,13.7,24.4L13.7,24.4z"
				/>
		</g>
	</g>
</g>
</svg>
