<?xml version="1.0" encoding="utf-8"?>
<!-- Generator: Adobe Illustrator 24.0.1, SVG Export Plug-In . SVG Version: 6.00 Build 0)  -->
<svg version="1.1" id="Layer_1" xmlns="http://www.w3.org/2000/svg" xmlns:xlink="http://www.w3.org/1999/xlink" x="0px" y="0px"
	 viewBox="0 0 24 24" style="enable-background:new 0 0 24 24;" xml:space="preserve">
<style type="text/css">
	.st0{fill:#FFC900;}
	.st1{fill:#FFFFFF;}
</style>
<g>
	<g>
		<path class="st0" d="M18.2,21.5H5.8c-1.8,0-3.3-1.5-3.3-3.3V5.8C2.5,4,4,2.5,5.8,2.5h12.4c1.8,0,3.3,1.5,3.3,3.3v12.4
			C21.5,20,20,21.5,18.2,21.5z"/>
	</g>
	<g>
		<g>
			<path class="st1" d="M14.8,7.5H6.4C6.1,7.5,5.9,7.2,5.9,7s0.2-0.5,0.5-0.5h8.4c0.3,0,0.5,0.2,0.5,0.5S15.1,7.5,14.8,7.5z"/>
		</g>
		<g>
			<path class="st1" d="M17.6,10.8H6.4c-0.3,0-0.5-0.2-0.5-0.5s0.2-0.5,0.5-0.5h11.3c0.3,0,0.5,0.2,0.5,0.5S17.9,10.8,17.6,10.8z"/>
		</g>
		<g>
			<path class="st1" d="M17.6,14.2H6.4c-0.3,0-0.5-0.2-0.5-0.5s0.2-0.5,0.5-0.5h11.3c0.3,0,0.5,0.2,0.5,0.5S17.9,14.2,17.6,14.2z"/>
		</g>
		<g>
			<path class="st1" d="M14.8,17.5H6.4c-0.3,0-0.5-0.2-0.5-0.5s0.2-0.5,0.5-0.5h8.4c0.3,0,0.5,0.2,0.5,0.5S15.1,17.5,14.8,17.5z"/>
		</g>
	</g>
</g>
</svg>
