<?xml version="1.0" encoding="utf-8"?>
<!-- Generator: Adobe Illustrator 24.0.1, SVG Export Plug-In . SVG Version: 6.00 Build 0)  -->
<svg version="1.1" id="Layer_1" xmlns="http://www.w3.org/2000/svg" xmlns:xlink="http://www.w3.org/1999/xlink" x="0px" y="0px"
	 viewBox="0 0 24 24" style="enable-background:new 0 0 24 24;" xml:space="preserve">
<style type="text/css">
	.st0{fill:#FFC900;}
	.st1{fill:#FFFFFF;}
</style>
<g>
	<g>
		<path class="st0" d="M18.2,21.5H5.8c-1.8,0-3.3-1.5-3.3-3.3V5.8C2.5,4,4,2.5,5.8,2.5h12.4c1.8,0,3.3,1.5,3.3,3.3v12.4
			C21.5,20,20,21.5,18.2,21.5z"/>
	</g>
	<g>
		<g>
			<path class="st1" d="M14.2,13.6c1.4-1.9,2-3.6,2.3-4.5c0.2-0.5,0-1.1-0.5-1.4l-1.4-1c-0.4-0.3-1-0.1-1.2,0.3l-0.6,1.4
				c-0.1,0.3,0,0.6,0.2,0.8l1.2,0.8c0.1,0.1,0.2,0.3,0.1,0.4c-0.3,0.7-0.8,1.4-1.4,2.3s-1.2,1.5-1.7,2c-0.1,0.1-0.3,0.1-0.4,0
				l-1.2-0.8C9.4,13.7,9,13.7,8.8,14l-1.1,1c-0.4,0.4-0.3,1,0.1,1.3l1.4,1c0.5,0.3,1.1,0.3,1.5,0C11.5,16.7,12.8,15.6,14.2,13.6z"/>
		</g>
	</g>
</g>
</svg>
