<?xml version="1.0" encoding="utf-8"?>
<!-- Generator: Adobe Illustrator 24.0.1, SVG Export Plug-In . SVG Version: 6.00 Build 0)  -->
<svg version="1.1" id="Layer_1" xmlns="http://www.w3.org/2000/svg" xmlns:xlink="http://www.w3.org/1999/xlink" x="0px" y="0px"
	 viewBox="0 0 24 24" style="enable-background:new 0 0 24 24;" xml:space="preserve">
<style type="text/css">
	.st0{fill:#FFC900;}
	.st1{fill:#FFFFFF;}
</style>
<g>
	<g>
		<path class="st0" d="M18.9,21.5H5.1c-1.4,0-2.6-1.2-2.6-2.6v-9c0-0.9,0.4-1.7,1.1-2.1L10.5,3c0.9-0.6,2-0.6,2.9,0l6.9,4.8
			c0.7,0.5,1.1,1.3,1.1,2.1v9C21.5,20.3,20.3,21.5,18.9,21.5z"/>
	</g>
	<g>
		<path class="st1" d="M12,17.2c-0.4,0-0.8-0.1-1.1-0.4l-7.2-5c-0.2-0.2-0.3-0.5-0.1-0.7C3.6,11,4,10.9,4.2,11.1l7.2,5
			c0.3,0.2,0.8,0.2,1.1,0l7.2-5c0.2-0.2,0.5-0.1,0.7,0.1c0.2,0.2,0.1,0.5-0.1,0.7l-7.2,5C12.8,17.1,12.4,17.2,12,17.2z"/>
	</g>
</g>
</svg>
