<?xml version="1.0" encoding="utf-8"?>
<!-- Generator: Adobe Illustrator 24.0.1, SVG Export Plug-In . SVG Version: 6.00 Build 0)  -->
<svg version="1.1" id="Layer_1" xmlns="http://www.w3.org/2000/svg" xmlns:xlink="http://www.w3.org/1999/xlink" x="0px" y="0px"
	 viewBox="0 0 24 24" style="enable-background:new 0 0 24 24;" xml:space="preserve">
<style type="text/css">
	.st0{fill:#FFC900;}
	.st1{fill:#FFFFFF;}
</style>
<g>
	<g>
		<g>
			<g>
				<circle class="st1" cx="12" cy="12" r="3.3"/>
			</g>
		</g>
	</g>
	<g>
		<path class="st0" d="M20.6,10.6l-1.2-0.1c-0.2-1-0.6-1.9-1.1-2.7L19,6.9c0.3-0.4,0.3-1,0-1.3L18.4,5c-0.4-0.4-0.9-0.4-1.3,0
			l-0.9,0.8c-0.8-0.5-1.7-0.9-2.7-1.1l-0.1-1.2c0-0.5-0.5-0.9-1-0.9h-0.8c-0.5,0-0.9,0.4-1,0.9l-0.1,1.2c-1,0.2-1.9,0.6-2.7,1.1
			L6.9,5c-0.4-0.3-1-0.3-1.3,0L5,5.6C4.6,5.9,4.6,6.5,5,6.9l0.8,0.9c-0.5,0.8-0.9,1.7-1.1,2.7l-1.2,0.1c-0.5,0-0.9,0.5-0.9,1v0.8
			c0,0.5,0.4,0.9,0.9,1l1.2,0.1c0.2,1,0.6,1.9,1.1,2.7L5,17.1c-0.3,0.4-0.3,1,0,1.3L5.6,19c0.4,0.4,0.9,0.4,1.3,0l0.9-0.8
			c0.8,0.5,1.7,0.9,2.7,1.1l0.1,1.2c0,0.5,0.5,0.9,1,0.9h0.8c0.5,0,0.9-0.4,1-0.9l0.1-1.2c1-0.2,1.9-0.6,2.7-1.1l0.9,0.8
			c0.4,0.3,1,0.3,1.3,0l0.6-0.6c0.4-0.4,0.4-0.9,0-1.3l-0.8-0.9c0.5-0.8,0.9-1.7,1.1-2.7l1.2-0.1c0.5,0,0.9-0.5,0.9-1v-0.8
			C21.5,11.1,21.1,10.7,20.6,10.6z M12,16.9c-2.7,0-4.9-2.2-4.9-4.9S9.3,7.1,12,7.1s4.9,2.2,4.9,4.9S14.7,16.9,12,16.9z"/>
	</g>
</g>
</svg>
