<?xml version="1.0" encoding="utf-8"?>
<!-- Generator: Adobe Illustrator 24.0.1, SVG Export Plug-In . SVG Version: 6.00 Build 0)  -->
<svg version="1.1" id="Layer_1" xmlns="http://www.w3.org/2000/svg" xmlns:xlink="http://www.w3.org/1999/xlink" x="0px" y="0px"
	 viewBox="0 0 24 24" style="enable-background:new 0 0 24 24;" xml:space="preserve">
<style type="text/css">
	.st0{fill:#FFC900;}
	.st1{fill:#FFFFFF;}
</style>
<g>
	<g>
		<path class="st1" d="M16.5,6.5h-9v-3c0-0.6,0.4-1,1-1h7c0.6,0,1,0.4,1,1V6.5z"/>
	</g>
	<g>
		<path class="st1" d="M15.5,21.5h-7c-0.6,0-1-0.4-1-1v-4.9h9v4.9C16.5,21,16,21.5,15.5,21.5z"/>
	</g>
	<g>
		<path class="st0" d="M19,7.4H5c-1.4,0-2.5,1.1-2.5,2.5v6.7C2.5,17.9,3.6,19,5,19h1.4v-4.5h11.2V19H19c1.4,0,2.5-1.1,2.5-2.5V9.9
			C21.5,8.5,20.4,7.4,19,7.4z"/>
	</g>
</g>
</svg>
