<?xml version="1.0" encoding="utf-8"?>
<!-- Generator: Adobe Illustrator 24.0.1, SVG Export Plug-In . SVG Version: 6.00 Build 0)  -->
<svg version="1.1" id="Layer_1" xmlns="http://www.w3.org/2000/svg" xmlns:xlink="http://www.w3.org/1999/xlink" x="0px" y="0px"
	 viewBox="0 0 24 24" style="enable-background:new 0 0 24 24;" xml:space="preserve">
<style type="text/css">
	.st0{fill:#FFC900;}
	.st1{fill:#FFFFFF;}
</style>
<g>
	<g>
		<path class="st0" d="M4.9,21.5L4.9,21.5c-1.3,0-2.4-1.1-2.4-2.4v-4.7c0-1.3,1.1-2.4,2.4-2.4h0c1.3,0,2.4,1.1,2.4,2.4v4.7
			C7.3,20.4,6.2,21.5,4.9,21.5z"/>
	</g>
	<g>
		<path class="st1" d="M12,21.5L12,21.5c-1.3,0-2.4-1.1-2.4-2.4v-8.9c0-1.3,1.1-2.4,2.4-2.4h0c1.3,0,2.4,1.1,2.4,2.4v8.9
			C14.4,20.4,13.3,21.5,12,21.5z"/>
	</g>
	<g>
		<path class="st0" d="M19.1,21.5L19.1,21.5c-1.3,0-2.4-1.1-2.4-2.4V4.9c0-1.3,1.1-2.4,2.4-2.4h0c1.3,0,2.4,1.1,2.4,2.4v14.2
			C21.5,20.4,20.4,21.5,19.1,21.5z"/>
	</g>
</g>
</svg>
