<?xml version="1.0" encoding="utf-8"?>
<!-- Generator: Adobe Illustrator 24.0.1, SVG Export Plug-In . SVG Version: 6.00 Build 0)  -->
<svg version="1.1" id="Layer_1" xmlns="http://www.w3.org/2000/svg" xmlns:xlink="http://www.w3.org/1999/xlink" x="0px" y="0px"
	 viewBox="0 0 24 24" style="enable-background:new 0 0 24 24;" xml:space="preserve">
<style type="text/css">
	.st0{fill:#FFC900;}
	.st1{fill:#FFFFFF;}
</style>
<g>
	<g>
		<g>
			<path class="st0" d="M5,2.5h14c1.4,0,2.5,1.1,2.5,2.5l0,15.7c0,0.8-1,1.1-1.5,0.5l-1.1-1.6c-0.2-0.2-0.4-0.4-0.7-0.4H5
				c-1.4,0-2.5-1.1-2.5-2.5V5C2.5,3.6,3.6,2.5,5,2.5z"/>
		</g>
	</g>
	<g>
		<g>
			<path class="st1" d="M8.3,12.4c-0.3,0-0.5-0.2-0.5-0.5v-1.4C7.8,10.2,8,10,8.3,10s0.5,0.2,0.5,0.5v1.4
				C8.8,12.2,8.6,12.4,8.3,12.4z"/>
		</g>
		<g>
			<path class="st1" d="M10.2,13.1c-0.3,0-0.5-0.2-0.5-0.5V9.8c0-0.3,0.2-0.5,0.5-0.5s0.5,0.2,0.5,0.5v2.9
				C10.7,12.9,10.4,13.1,10.2,13.1z"/>
		</g>
		<g>
			<path class="st1" d="M12,14c-0.3,0-0.5-0.2-0.5-0.5V8.9c0-0.3,0.2-0.5,0.5-0.5s0.5,0.2,0.5,0.5v4.6C12.5,13.8,12.3,14,12,14z"/>
		</g>
		<g>
			<path class="st1" d="M13.8,12.8c-0.3,0-0.5-0.2-0.5-0.5v-2.2c0-0.3,0.2-0.5,0.5-0.5s0.5,0.2,0.5,0.5v2.2
				C14.3,12.6,14.1,12.8,13.8,12.8z"/>
		</g>
		<g>
			<path class="st1" d="M15.7,12.4c-0.3,0-0.5-0.2-0.5-0.5v-1.4c0-0.3,0.2-0.5,0.5-0.5s0.5,0.2,0.5,0.5v1.4
				C16.2,12.2,16,12.4,15.7,12.4z"/>
		</g>
	</g>
</g>
</svg>
