<?xml version="1.0" encoding="utf-8"?>
<!-- Generator: Adobe Illustrator 24.0.1, SVG Export Plug-In . SVG Version: 6.00 Build 0)  -->
<svg version="1.1" id="Layer_1" xmlns="http://www.w3.org/2000/svg" xmlns:xlink="http://www.w3.org/1999/xlink" x="0px" y="0px"
	 viewBox="0 0 58 58" style="enable-background:new 0 0 58 58;" xml:space="preserve">
<style type="text/css">
	.st0{fill:#4AB6FF;}
	.st1{fill:#3888FC;}
	.st2{fill:none;stroke:#FFFFFF;stroke-width:2;stroke-linecap:round;stroke-miterlimit:10;}
	.st3{fill:#F9662B;}
	.st4{fill:none;stroke:#4AB6FF;stroke-miterlimit:10;}
</style>
<g>
	<path class="st0" d="M18.8,42.9c0,0,0.3-16.1-13.8-27.6c0,0,12.6,3.5,17.8,22.9c0,0,1.3-16.3-9.6-27.3c0,0,11.8,4.4,13.6,23.7
		c0,0-0.9-24.4,1.5-30.9v50.6H14.5c0,0-1.8-18.1-14.5-21.4C0,32.9,12.5,31.7,18.8,42.9z"/>
	<path class="st1" d="M37.7,42.9c0,0-0.3-16.1,13.8-27.6c0,0-12.6,3.5-17.8,22.9c0,0-1.3-16.3,9.6-27.3c0,0-11.8,4.4-13.6,23.7
		c0,0,0.9-24.4-1.5-30.9v50.6h13.8c0,0,1.8-18.1,14.5-21.4C56.5,32.9,44.1,31.7,37.7,42.9z"/>
</g>
</svg>
