<?xml version="1.0" encoding="utf-8"?>
<!-- Generator: Adobe Illustrator 24.0.1, SVG Export Plug-In . SVG Version: 6.00 Build 0)  -->
<svg version="1.1" id="Layer_1" xmlns="http://www.w3.org/2000/svg" xmlns:xlink="http://www.w3.org/1999/xlink" x="0px" y="0px"
	 viewBox="0 0 58 58" style="enable-background:new 0 0 58 58;" xml:space="preserve">
<style type="text/css">
	.st0{fill:#4AB6FF;}
	.st1{fill:#3888FC;}
	.st2{fill:none;stroke:#FFFFFF;stroke-width:2;stroke-linecap:round;stroke-miterlimit:10;}
	.st3{fill:#F9662B;}
	.st4{fill:none;stroke:#4AB6FF;stroke-miterlimit:10;}
</style>
<path class="st0" d="M30.3,23.1v-3.7c0-7.9-6.4-14.3-14.3-14.3h0C8,5.1,1.6,11.5,1.6,19.4v3.7c0,0.8-0.1,1.5-0.2,2.3l-1.3,7.9
	C0.1,34,0,34.8,0,35.5v3.1c0,7.9,6.4,14.3,14.3,14.3h3.2c7.9,0,14.3-6.4,14.3-14.3v-3.1c0-0.8-0.1-1.5-0.2-2.3l-1.3-7.9
	C30.4,24.7,30.3,23.9,30.3,23.1z"/>
</svg>
