<?xml version="1.0" encoding="utf-8"?>
<!-- Generator: Adobe Illustrator 24.0.1, SVG Export Plug-In . SVG Version: 6.00 Build 0)  -->
<svg version="1.1" id="Layer_1" xmlns="http://www.w3.org/2000/svg" xmlns:xlink="http://www.w3.org/1999/xlink" x="0px" y="0px"
	 viewBox="0 0 58 58" style="enable-background:new 0 0 58 58;" xml:space="preserve">
<style type="text/css">
	.st0{fill:#4AB6FF;}
	.st1{fill:#3888FC;}
	.st2{fill:none;stroke:#FFFFFF;stroke-width:2;stroke-linecap:round;stroke-miterlimit:10;}
	.st3{fill:#F9662B;}
	.st4{fill:none;stroke:#4AB6FF;stroke-miterlimit:10;}
</style>
<g>
	<g>
		<path class="st0" d="M16.6,5c-2.1,2.1-7.4,9.1-0.1,17.7c0.4,0.5,1.1,0.5,1.6,0c7.4-8.6,2-15.6-0.1-17.7C17.6,4.6,17,4.6,16.6,5z"
			/>
		<path class="st1" d="M17.3,23.1c0.3,0,0.6-0.1,0.8-0.4c7.4-8.6,2-15.6-0.1-17.7c-0.2-0.2-0.5-0.3-0.7-0.3c0,0,2.4,1.4,2.4,9.2
			C19.7,21.7,17.3,23.1,17.3,23.1z"/>
	</g>
	<g>
		<path class="st0" d="M33.4,19.1c-2.9-0.5-11.7-1.1-14.8,9.8c-0.2,0.6,0.2,1.2,0.9,1.3c11.3,1.3,14.1-7,14.7-9.9
			C34.3,19.8,33.9,19.2,33.4,19.1z"/>
		<path class="st1" d="M18.7,29.7c0.2,0.2,0.4,0.4,0.7,0.4c11.3,1.3,14.1-7,14.7-9.9c0.1-0.3,0-0.6-0.1-0.8c0,0,0.2,2.8-6.3,7.1
			C21.2,31,18.7,29.7,18.7,29.7z"/>
	</g>
	<g>
		<path class="st0" d="M15.6,29C15,26.1,12.2,17.7,0.9,19c-0.6,0.1-1,0.7-0.9,1.3c3.1,10.9,11.8,10.4,14.7,9.9
			C15.3,30,15.7,29.5,15.6,29z"/>
		<path class="st1" d="M0.2,19.4C0,19.7,0,20,0,20.3c3.1,10.9,11.8,10.4,14.7,9.9c0.3,0,0.5-0.2,0.7-0.4c0,0-2.5,1.2-9-3.2
			C0,22.2,0.2,19.4,0.2,19.4z"/>
	</g>
	<g>
		<path class="st0" d="M33.4,30.6c-2.9-0.5-11.7-1.1-14.8,9.8c-0.2,0.6,0.2,1.2,0.9,1.3c11.3,1.3,14.1-7,14.7-9.9
			C34.3,31.2,33.9,30.7,33.4,30.6z"/>
		<path class="st1" d="M18.7,41.2c0.2,0.2,0.4,0.4,0.7,0.4c11.3,1.3,14.1-7,14.7-9.9c0.1-0.3,0-0.6-0.1-0.8c0,0,0.2,2.8-6.3,7.1
			C21.2,42.4,18.7,41.2,18.7,41.2z"/>
	</g>
	<g>
		<path class="st0" d="M15.6,40.4c-0.6-2.9-3.4-11.2-14.7-10c-0.6,0.1-1,0.7-0.9,1.3c3.1,10.9,11.8,10.4,14.7,9.9
			C15.3,41.5,15.7,41,15.6,40.4z"/>
		<path class="st1" d="M0.2,30.9C0,31.1,0,31.5,0,31.8c3.1,10.9,11.8,10.4,14.7,9.9c0.3,0,0.5-0.2,0.7-0.4c0,0-2.5,1.2-9-3.2
			C0,33.7,0.2,30.9,0.2,30.9z"/>
	</g>
	<g>
		<path class="st0" d="M33.4,42.1c-2.9-0.5-11.7-1.1-14.8,9.8c-0.2,0.6,0.2,1.2,0.9,1.3c11.3,1.3,14.1-7,14.7-9.9
			C34.3,42.7,33.9,42.2,33.4,42.1z"/>
		<path class="st1" d="M18.7,52.7c0.2,0.2,0.4,0.4,0.7,0.4c11.3,1.3,14.1-7,14.7-9.9c0.1-0.3,0-0.6-0.1-0.8c0,0,0.2,2.8-6.3,7.1
			C21.2,53.9,18.7,52.7,18.7,52.7z"/>
	</g>
	<g>
		<path class="st0" d="M15.6,51.9C15,49,12.2,40.7,0.9,41.9c-0.6,0.1-1,0.7-0.9,1.3c3.1,10.9,11.8,10.4,14.7,9.9
			C15.3,53,15.7,52.5,15.6,51.9z"/>
		<path class="st1" d="M0.2,42.4C0,42.6,0,42.9,0,43.2c3.1,10.9,11.8,10.4,14.7,9.9c0.3,0,0.5-0.2,0.7-0.4c0,0-2.5,1.2-9-3.2
			C0,45.1,0.2,42.4,0.2,42.4z"/>
	</g>
</g>
</svg>
