<?xml version="1.0" encoding="utf-8"?>
<!-- Generator: Adobe Illustrator 24.0.1, SVG Export Plug-In . SVG Version: 6.00 Build 0)  -->
<svg version="1.1" id="Layer_1" xmlns="http://www.w3.org/2000/svg" xmlns:xlink="http://www.w3.org/1999/xlink" x="0px" y="0px"
	 viewBox="0 0 58 58" style="enable-background:new 0 0 58 58;" xml:space="preserve">
<style type="text/css">
	.st0{fill:#4AB6FF;}
	.st1{fill:#3888FC;}
	.st2{fill:none;stroke:#FFFFFF;stroke-width:2;stroke-linecap:round;stroke-miterlimit:10;}
	.st3{fill:#F9662B;}
	.st4{fill:none;stroke:#4AB6FF;stroke-miterlimit:10;}
</style>
<g>
	<path class="st0" d="M12,56.5L12,56.5c-3.4,0-6.3-2.5-6.7-5.9L1,16.2c-0.5-4,2.6-7.6,6.7-7.6h8.6c4.1,0,7.2,3.6,6.7,7.6l-4.3,34.3
		C18.3,54,15.4,56.5,12,56.5z"/>
	<path class="st1" d="M16.3,8.6h-3.8c4.1,0,7.2,3.6,6.7,7.6l-4.3,34.3c-0.3,2.7-2.3,4.9-4.8,5.7c0.6,0.2,1.2,0.3,1.9,0.3
		c3.4,0,6.3-2.5,6.7-5.9L23,16.2C23.5,12.2,20.3,8.6,16.3,8.6z"/>
	<g>
		<line class="st2" x1="0" y1="18.2" x2="5.9" y2="18.2"/>
		<line class="st2" x1="17.3" y1="23.6" x2="23.2" y2="23.6"/>
		<line class="st2" x1="8.9" y1="32.6" x2="14.8" y2="32.6"/>
		<line class="st2" x1="2.9" y1="43.8" x2="8.8" y2="43.8"/>
		<line class="st2" x1="14.9" y1="50.6" x2="20.8" y2="50.6"/>
	</g>
	<polygon class="st1" points="13.1,5.3 13.1,1.5 12,3.4 10.8,1.5 10.8,5.3 7.2,3.1 9,7.5 10.8,7.5 13.1,7.5 14.9,7.5 16.8,3.1 	"/>
</g>
</svg>
