<?xml version="1.0" encoding="utf-8"?>
<!-- Generator: Adobe Illustrator 24.0.1, SVG Export Plug-In . SVG Version: 6.00 Build 0)  -->
<svg version="1.1" id="Layer_1" xmlns="http://www.w3.org/2000/svg" xmlns:xlink="http://www.w3.org/1999/xlink" x="0px" y="0px"
	 viewBox="0 0 58 58" style="enable-background:new 0 0 58 58;" xml:space="preserve">
<style type="text/css">
	.st0{fill:#4AB6FF;}
	.st1{fill:#3888FC;}
	.st2{fill:none;stroke:#FFFFFF;stroke-width:2;stroke-linecap:round;stroke-miterlimit:10;}
	.st3{fill:#F9662B;}
	.st4{fill:none;stroke:#4AB6FF;stroke-miterlimit:10;}
</style>
<g>
	<g>
		<g>
			<path class="st1" d="M17.3,37.2h-0.2c-2.9,0-5.3-2.4-5.3-5.3V8c0-2.9,2.4-5.3,5.3-5.3h0.2c2.9,0,5.3,2.4,5.3,5.3v23.9
				C22.6,34.8,20.3,37.2,17.3,37.2z"/>
		</g>
		<g>
			<path class="st1" d="M34.5,19.8V20c0,2.9-2.4,5.3-5.3,5.3H5.3C2.4,25.3,0,23,0,20l0-0.2c0-2.9,2.4-5.3,5.3-5.3l23.9,0
				C32.1,14.6,34.5,16.9,34.5,19.8z"/>
		</g>
	</g>
	<g>
		<g>
			<path class="st0" d="M29.5,32.1l-0.1,0.1c-2.1,2.1-5.4,2.1-7.5,0L5,15.3c-2.1-2.1-2.1-5.4,0-7.5l0.1-0.1c2.1-2.1,5.4-2.1,7.5,0
				l16.9,16.9C31.6,26.6,31.6,30,29.5,32.1z"/>
		</g>
		<g>
			<path class="st0" d="M29.4,7.7l0.1,0.1c2.1,2.1,2.1,5.4,0,7.5L12.6,32.2c-2.1,2.1-5.4,2.1-7.5,0L5,32.1c-2.1-2.1-2.1-5.4,0-7.5
				L21.9,7.7C23.9,5.6,27.3,5.6,29.4,7.7z"/>
		</g>
	</g>
	<circle class="st1" cx="17.2" cy="19.9" r="6.3"/>
	<line class="st4" x1="17.2" y1="37.9" x2="17.2" y2="55.3"/>
	<path class="st1" d="M18.1,54.1c0,0,1.3-13.3,15.9-14.7C34,39.3,33.5,51.5,18.1,54.1z"/>
	<path class="st0" d="M16.4,49.4c0,0-1-10.4-12.4-11.5C4,37.9,4.3,47.4,16.4,49.4z"/>
</g>
</svg>
