<?xml version="1.0" encoding="utf-8"?>
<!-- Generator: Adobe Illustrator 24.0.1, SVG Export Plug-In . SVG Version: 6.00 Build 0)  -->
<svg version="1.1" id="Layer_1" xmlns="http://www.w3.org/2000/svg" xmlns:xlink="http://www.w3.org/1999/xlink" x="0px" y="0px"
	 viewBox="0 0 58 58" style="enable-background:new 0 0 58 58;" xml:space="preserve">
<style type="text/css">
	.st0{fill:#4AB6FF;}
	.st1{fill:#3888FC;}
	.st2{fill:none;stroke:#FFFFFF;stroke-width:2;stroke-linecap:round;stroke-miterlimit:10;}
	.st3{fill:#F9662B;}
	.st4{fill:none;stroke:#4AB6FF;stroke-miterlimit:10;}
</style>
<g>
	<path class="st1" d="M20.8,18.3c0,0,0.5-7.3,9.3-7C30,11.3,30.7,19.2,20.8,18.3z"/>
	<path class="st1" d="M18.5,18.4c0,0,2.6-10.2-9.5-13.7C9,4.7,6.9,19.1,18.5,18.4z"/>
	<path class="st0" d="M34.4,19.9c-1.7-0.8-3.6-1.1-5.6-0.8l0,0c0,0,0,0-0.1,0c-0.3,0-0.5,0.1-0.8,0.1c-1.6,0.3-5,0.7-7.6,0.7l0,0
		c-2.6,0-5.9-0.5-7.6-0.7c-0.3-0.1-0.6-0.1-1-0.2c0,0,0,0,0,0l0,0c-1.9-0.2-3.8,0-5.5,0.9C-0.2,23-1.9,32.7,2.4,41.7
		C6,49.1,12.5,53.7,18.3,53.3l0,0c0,0,0.1,0,0.2,0c0.1,0,0.2,0,0.2,0c0.7,0,2.1-0.1,3.5,0l0,0c5.8,0.4,12.4-4.1,16-11.6
		C42.5,32.7,40.8,23,34.4,19.9z"/>
	<g>
		<path class="st1" d="M34.4,19.9c-0.4-0.2-0.8-0.3-1.2-0.5l0,0c0,0,0,0,0,0c-0.3-0.1-0.7-0.2-1-0.3c0,0,0,0-0.1,0
			C31.7,19,31.4,19,31,19c0,0,0,0,0,0c-0.3,0-0.7,0-1,0c-0.1,0-0.1,0-0.2,0c-0.3,0-0.7,0-1,0.1l0,0c0,0,0,0-0.1,0
			c-0.3,0-0.5,0.1-0.8,0.1c-0.1,0-0.2,0-0.2,0c0,0,0,0,0,0c-1,0.2-2.5,0.4-4.2,0.5c2.2-0.1,6.5,0,9.1,2.5c3.8,4.3,4.3,12.2,0.7,19.5
			c-3.2,6.5-8.6,10.9-13.9,11.5c0.7,0,1.7,0,2.6,0.1l0,0c5.8,0.4,12.4-4.1,16-11.6C42.5,32.7,40.8,23,34.4,19.9z"/>
		<path class="st3" d="M22.3,19.8C22.3,19.8,22.3,19.8,22.3,19.8L22.3,19.8C22.2,19.8,22.3,19.8,22.3,19.8z"/>
	</g>
	<path class="st0" d="M20,18.4c-0.3-5.1,4.1-6.5,4.1-6.5l-0.6-1.4c-4.8,2-4.3,6.5-4.1,8H20z"/>
</g>
</svg>
