<?xml version="1.0" encoding="utf-8"?>
<!-- Generator: Adobe Illustrator 24.0.1, SVG Export Plug-In . SVG Version: 6.00 Build 0)  -->
<svg version="1.1" id="Layer_1" xmlns="http://www.w3.org/2000/svg" xmlns:xlink="http://www.w3.org/1999/xlink" x="0px" y="0px"
	 viewBox="0 0 141.9 24.9" style="enable-background:new 0 0 141.9 24.9;" xml:space="preserve">
<style type="text/css">
	.st0{fill:#FFFFFF;}
	.st1{fill:#5D5D5D;}
</style>
<g>
	<path class="st0" d="M6.8,14c-0.6,0-1,0-1.2,0l-1.3,3.7c-0.5,0.1-1.1,0.2-2,0.2c-0.9,0-1.6-0.1-2.1-0.3L0,17.4L6.6,0.6
		c0.7-0.1,1.6-0.1,2.6-0.1c1.1,0,1.9,0.1,2.6,0.2l6.4,16.8c-0.7,0.3-1.4,0.5-2.4,0.5c-0.9,0-1.6-0.1-2-0.4c-0.4-0.3-0.7-0.8-1-1.6
		L12.3,14c-0.3,0-0.7,0-1.3,0H6.8z M6.6,11l1.2,0h2.3c0.1,0,0.3,0,0.5,0c0.3,0,0.5,0,0.6,0L9,4.1H8.9C8.7,4.9,8.2,6.5,7.5,8.7
		L6.6,11z"/>
	<path class="st0" d="M19.1,16.2c0.1-0.5,0.3-1.1,0.6-1.6c0.3-0.5,0.7-0.9,1.2-1.3c2.2,1.1,4.2,1.6,6,1.6c0.9,0,1.5-0.2,1.9-0.5
		c0.4-0.3,0.7-0.8,0.7-1.2c0-0.8-0.7-1.5-2-2L24,10c-2.8-1-4.2-2.6-4.2-4.6c0-1.5,0.7-2.8,2.1-3.7c1.4-1,3.2-1.5,5.4-1.5
		c2.2,0,4.4,0.5,6.6,1.4c-0.1,1.1-0.6,2.1-1.5,2.9c-2-0.8-3.8-1.2-5.4-1.2c-0.8,0-1.4,0.2-1.9,0.5c-0.4,0.3-0.7,0.7-0.7,1.1
		c0,0.7,0.6,1.2,1.8,1.7l3.6,1.2c1.4,0.5,2.5,1.2,3.3,2c0.8,0.8,1.2,1.8,1.2,2.9c0,1.6-0.7,2.9-2,3.8c-1.3,1-3.3,1.5-5.8,1.5
		c-1.2,0-2.5-0.2-3.9-0.5C21.3,17.2,20.1,16.7,19.1,16.2z"/>
	<path class="st0" d="M44.9,3.7l0,1.9v12.1c-0.6,0.1-1.4,0.2-2.3,0.2c-0.9,0-1.7-0.1-2.3-0.2V5.6l0-1.9h0l-1.8,0h-3.2
		c-0.1-0.5-0.2-1-0.2-1.6c0-0.6,0-1.1,0.2-1.6H50c0.2,0.4,0.2,0.9,0.2,1.5c0,0.6-0.2,1-0.6,1.3c-0.4,0.3-1,0.4-1.8,0.4h-1L44.9,3.7
		L44.9,3.7z"/>
	<path class="st0" d="M59.5,14.5l4-13.9c0.5-0.1,1.2-0.1,2-0.1c0.8,0,1.5,0.1,2.1,0.2l0.2,0.2l-5.6,16.7c-1.1,0.1-2.2,0.2-3.2,0.2
		c-1.1,0-1.9-0.1-2.4-0.4c-0.5-0.2-0.8-0.7-1.1-1.4l-5-15.1c1.1-0.4,2-0.6,2.7-0.6c0.7,0,1.3,0.2,1.6,0.5c0.4,0.3,0.7,0.8,0.9,1.5
		l2.4,7.4c0.4,1.2,0.8,2.7,1.2,4.5C59.3,14.3,59.4,14.5,59.5,14.5z"/>
	<path class="st0" d="M70.5,17.7V0.6c0.6-0.1,1.4-0.1,2.3-0.1c0.9,0,1.7,0,2.3,0.1v17.1c-0.6,0.1-1.4,0.2-2.3,0.2
		C71.8,17.8,71.1,17.8,70.5,17.7z"/>
	<path class="st0" d="M77.9,16.2c0.1-0.5,0.3-1.1,0.6-1.6c0.3-0.5,0.7-0.9,1.2-1.3c2.2,1.1,4.2,1.6,6,1.6c0.9,0,1.5-0.2,2-0.5
		c0.4-0.3,0.7-0.8,0.7-1.2c0-0.8-0.7-1.5-2-2L82.8,10c-2.8-1-4.2-2.6-4.2-4.6c0-1.5,0.7-2.8,2.1-3.7c1.4-1,3.2-1.5,5.4-1.5
		c2.2,0,4.4,0.5,6.6,1.4c-0.1,1.1-0.6,2.1-1.5,2.9c-2-0.8-3.8-1.2-5.4-1.2c-0.8,0-1.4,0.2-1.9,0.5c-0.4,0.3-0.7,0.7-0.7,1.1
		c0,0.7,0.6,1.2,1.8,1.7l3.6,1.2c1.4,0.5,2.5,1.2,3.3,2c0.8,0.8,1.2,1.8,1.2,2.9c0,1.6-0.7,2.9-2,3.8c-1.3,1-3.3,1.5-5.8,1.5
		c-1.2,0-2.5-0.2-3.8-0.5C80.2,17.2,79,16.7,77.9,16.2z"/>
	<path class="st0" d="M96.4,17.7V0.6c0.6-0.1,1.4-0.1,2.3-0.1c0.9,0,1.7,0,2.3,0.1v17.1c-0.6,0.1-1.4,0.2-2.3,0.2
		C97.7,17.8,97,17.8,96.4,17.7z"/>
	<path class="st0" d="M141.4,0.4l0.2,0.1v17c-0.8,0.1-1.6,0.2-2.7,0.2c-1,0-1.9-0.1-2.7-0.2l-4.9-9.2c-0.8-1.7-1.4-2.8-1.7-3.5
		l-0.1,0c0.2,2.4,0.4,4.8,0.4,7.3v5.4c-0.6,0.1-1.3,0.2-2.1,0.2c-0.8,0-1.5-0.1-2.1-0.2v-17c0.7-0.2,1.6-0.2,2.6-0.2
		c1,0,1.9,0,2.7,0.1l4.8,9.1l1.9,3.8l0.1,0c-0.2-2.3-0.4-4.7-0.4-7.2V2.7c0-0.8,0.2-1.4,0.6-1.8c0.4-0.4,1-0.5,1.9-0.5H141.4z"/>
	<path class="st1" d="M119.1,2.8C119.1,2.8,119.1,2.8,119.1,2.8C119.1,2.7,119.1,2.7,119.1,2.8l-0.3-0.2l0,0
		c-2.4-2.1-4.8-2.9-7.2-2.4c-1.8,0.4-3.4,1.4-4.9,3l-5.9,6.4l6.5,6c2.5,2.3,5,3.1,7.5,2.6c1.8-0.4,3.4-1.4,4.9-3l5.9-6.4L119.1,2.8z
		 M117.6,13.1c-1.8,2-4.1,1.6-7-1.1c-2.9-2.7-3.4-5-1.6-6.9c1.8-2,4.1-1.6,7,1.1C118.8,8.9,119.4,11.2,117.6,13.1z"/>
	<g>
		<path class="st0" d="M0.5,21.3c0.3,0,0.7-0.1,1.2-0.1c0.8,0,1.3,0.2,1.7,0.4C3.7,22,4,22.4,4,23c0,0.6-0.2,1.1-0.6,1.4
			c-0.4,0.3-1,0.5-1.9,0.5c-0.4,0-0.7,0-1,0V21.3z M1,24.5c0.1,0,0.3,0,0.6,0c1.2,0,1.8-0.5,1.8-1.5c0-0.8-0.6-1.4-1.7-1.4
			c-0.3,0-0.5,0-0.6,0V24.5z"/>
		<path class="st0" d="M9.3,23.1H7.6v1.3h1.8v0.4H7.1v-3.6h2.3v0.4H7.6v1.1h1.6V23.1z"/>
		<path class="st0" d="M13.5,24.8l-1.4-3.6h0.6l0.7,1.8c0.2,0.5,0.3,0.9,0.5,1.3h0c0.1-0.4,0.3-0.9,0.5-1.3l0.7-1.8h0.6l-1.5,3.6
			H13.5z"/>
		<path class="st0" d="M20.7,23.1H19v1.3h1.8v0.4h-2.4v-3.6h2.3v0.4H19v1.1h1.6V23.1z"/>
		<path class="st0" d="M24,21.3h0.5v3.2h1.8v0.4H24V21.3z"/>
		<path class="st0" d="M32.7,23c0,1.2-0.9,1.9-2,1.9c-1.1,0-1.9-0.7-1.9-1.8c0-1.1,0.8-1.9,2-1.9C31.9,21.2,32.7,21.9,32.7,23z
			 M29.4,23.1c0,0.8,0.5,1.4,1.4,1.4c0.9,0,1.4-0.7,1.4-1.5c0-0.7-0.4-1.4-1.4-1.4C29.9,21.6,29.4,22.3,29.4,23.1z"/>
		<path class="st0" d="M35.8,21.3c0.3,0,0.6-0.1,1-0.1c0.5,0,0.9,0.1,1.2,0.3c0.2,0.2,0.4,0.4,0.4,0.7c0,0.3-0.1,0.6-0.3,0.8
			c-0.3,0.3-0.8,0.4-1.3,0.4c-0.2,0-0.3,0-0.4,0v1.4h-0.5V21.3z M36.3,23c0.1,0,0.3,0,0.5,0c0.7,0,1.1-0.3,1.1-0.8
			c0-0.5-0.4-0.7-1-0.7c-0.2,0-0.4,0-0.5,0V23z"/>
		<path class="st0" d="M42.1,21.3v3.6h-0.5v-3.6H42.1z"/>
		<path class="st0" d="M45.4,24.8v-3.6H46l1.4,1.8c0.3,0.4,0.6,0.8,0.8,1.2l0,0c0-0.5-0.1-0.9-0.1-1.5v-1.5h0.5v3.6H48L46.7,23
			c-0.3-0.4-0.6-0.8-0.8-1.2l0,0c0,0.4,0,0.9,0,1.5v1.5H45.4z"/>
		<path class="st0" d="M55.2,24.7c-0.2,0.1-0.7,0.2-1.3,0.2c-0.6,0-1.2-0.1-1.6-0.5c-0.4-0.3-0.6-0.8-0.6-1.3c0-1.1,0.9-1.8,2.3-1.8
			c0.5,0,0.9,0.1,1.1,0.2l-0.1,0.4c-0.2-0.1-0.5-0.2-0.9-0.2c-1,0-1.7,0.5-1.7,1.4c0,0.9,0.6,1.4,1.6,1.4c0.4,0,0.6,0,0.7-0.1v-1.1
			h-0.9v-0.4h1.4V24.7z"/>
		<path class="st0" d="M62.1,21.3h2.3v0.4h-1.7v1.2h1.6v0.4h-1.6v1.6h-0.5V21.3z"/>
		<path class="st0" d="M71.2,23c0,1.2-0.9,1.9-2,1.9c-1.1,0-1.9-0.7-1.9-1.8c0-1.1,0.8-1.9,2-1.9C70.4,21.2,71.2,21.9,71.2,23z
			 M67.9,23.1c0,0.8,0.5,1.4,1.4,1.4c0.9,0,1.4-0.7,1.4-1.5c0-0.7-0.4-1.4-1.4-1.4C68.3,21.6,67.9,22.3,67.9,23.1z"/>
		<path class="st0" d="M74.3,21.3c0.3,0,0.7-0.1,1-0.1c0.6,0,1,0.1,1.2,0.3c0.2,0.2,0.3,0.4,0.3,0.7c0,0.5-0.4,0.8-0.8,0.9v0
			c0.3,0.1,0.5,0.3,0.6,0.7c0.1,0.5,0.2,0.8,0.3,1h-0.6c-0.1-0.1-0.2-0.4-0.3-0.8c-0.1-0.5-0.4-0.7-0.8-0.7h-0.5v1.5h-0.5V21.3z
			 M74.8,22.9h0.6c0.6,0,1-0.3,1-0.7c0-0.5-0.4-0.7-1-0.7c-0.3,0-0.5,0-0.5,0V22.9z"/>
		<path class="st0" d="M84.3,21.6H83v-0.4h3.1v0.4h-1.3v3.2h-0.6V21.6z"/>
		<path class="st0" d="M89.5,21.3v1.5h2v-1.5h0.6v3.6h-0.6v-1.7h-2v1.7H89v-3.6H89.5z"/>
		<path class="st0" d="M97.7,23.1H96v1.3h1.8v0.4h-2.4v-3.6h2.3v0.4H96v1.1h1.6V23.1z"/>
		<path class="st0" d="M104.6,24.3c0.2,0.1,0.6,0.2,1,0.2c0.6,0,0.9-0.2,0.9-0.6c0-0.3-0.2-0.5-0.8-0.7c-0.7-0.2-1.1-0.5-1.1-1
			c0-0.6,0.5-1,1.4-1c0.4,0,0.7,0.1,0.9,0.2l-0.2,0.4c-0.1-0.1-0.4-0.2-0.8-0.2c-0.6,0-0.8,0.3-0.8,0.5c0,0.3,0.3,0.5,0.8,0.7
			c0.7,0.2,1.1,0.5,1.1,1c0,0.6-0.5,1-1.5,1c-0.4,0-0.9-0.1-1.1-0.2L104.6,24.3z"/>
		<path class="st0" d="M110.7,21.3v2.1c0,0.8,0.4,1.1,1,1.1c0.6,0,1-0.3,1-1.1v-2.1h0.6v2.1c0,1.1-0.7,1.5-1.6,1.5
			c-0.9,0-1.5-0.4-1.5-1.5v-2.1H110.7z"/>
		<path class="st0" d="M119.6,24.7c-0.2,0.1-0.6,0.2-1.1,0.2c-1.2,0-2.1-0.6-2.1-1.8c0-1.1,0.9-1.9,2.2-1.9c0.5,0,0.9,0.1,1,0.2
			l-0.1,0.4c-0.2-0.1-0.5-0.1-0.9-0.1c-1,0-1.7,0.5-1.7,1.5c0,0.9,0.6,1.4,1.6,1.4c0.3,0,0.7-0.1,0.9-0.1L119.6,24.7z"/>
		<path class="st0" d="M125.5,24.7c-0.2,0.1-0.6,0.2-1.1,0.2c-1.2,0-2.1-0.6-2.1-1.8c0-1.1,0.9-1.9,2.2-1.9c0.5,0,0.9,0.1,1,0.2
			l-0.1,0.4c-0.2-0.1-0.5-0.1-0.9-0.1c-1,0-1.7,0.5-1.7,1.5c0,0.9,0.6,1.4,1.6,1.4c0.3,0,0.7-0.1,0.9-0.1L125.5,24.7z"/>
		<path class="st0" d="M130.7,23.1h-1.6v1.3h1.8v0.4h-2.4v-3.6h2.3v0.4h-1.7v1.1h1.6V23.1z"/>
		<path class="st0" d="M134,24.3c0.2,0.1,0.6,0.2,1,0.2c0.6,0,0.9-0.2,0.9-0.6c0-0.3-0.2-0.5-0.8-0.7c-0.7-0.2-1.1-0.5-1.1-1
			c0-0.6,0.5-1,1.4-1c0.4,0,0.7,0.1,0.9,0.2l-0.2,0.4c-0.1-0.1-0.4-0.2-0.8-0.2c-0.6,0-0.8,0.3-0.8,0.5c0,0.3,0.3,0.5,0.8,0.7
			c0.7,0.2,1.1,0.5,1.1,1c0,0.6-0.5,1-1.5,1c-0.4,0-0.9-0.1-1.1-0.2L134,24.3z"/>
		<path class="st0" d="M139.4,24.3c0.2,0.1,0.6,0.2,1,0.2c0.6,0,0.9-0.2,0.9-0.6c0-0.3-0.2-0.5-0.8-0.7c-0.7-0.2-1.1-0.5-1.1-1
			c0-0.6,0.5-1,1.4-1c0.4,0,0.7,0.1,0.9,0.2l-0.2,0.4c-0.1-0.1-0.4-0.2-0.8-0.2c-0.6,0-0.8,0.3-0.8,0.5c0,0.3,0.3,0.5,0.8,0.7
			c0.7,0.2,1.1,0.5,1.1,1c0,0.6-0.5,1-1.5,1c-0.4,0-0.9-0.1-1.1-0.2L139.4,24.3z"/>
	</g>
</g>
</svg>
