<?xml version="1.0" encoding="utf-8"?>
<!-- Generator: Adobe Illustrator 24.0.1, SVG Export Plug-In . SVG Version: 6.00 Build 0)  -->
<svg version="1.1" id="Layer_1" xmlns="http://www.w3.org/2000/svg" xmlns:xlink="http://www.w3.org/1999/xlink" x="0px" y="0px"
	 viewBox="0 0 44.2 44.2" style="enable-background:new 0 0 44.2 44.2;" xml:space="preserve">
<style type="text/css">
	.st0{fill:#002E77;}
	.st1{fill:#FFCB04;}
</style>
<g>
	<g>
		<path class="st0" d="M44.2,22.1c0,12.2-9.9,22.1-22.1,22.1S0,34.3,0,22.1S9.9,0,22.1,0S44.2,9.9,44.2,22.1z"/>
	</g>
</g>
<path class="st1" d="M7.8,23.5c0,1,0.8,1.8,1.8,1.8h0.1c1,0,1.8-0.8,1.8-1.8v-2.8c0-1-0.8-1.8-1.8-1.8H9.6c-1,0-1.8,0.8-1.8,1.8
	V23.5z"/>
<path class="st1" d="M34.5,18.9c-1,0-1.8,0.8-1.8,1.8v2.8c0,1,0.8,1.8,1.8,1.8h0.1c1,0,1.8-0.8,1.8-1.8v-2.8
	C36.3,19.7,35.5,18.9,34.5,18.9L34.5,18.9z"/>
<path class="st1" d="M14.1,26.3c0,1,0.8,1.8,1.8,1.8H16c1,0,1.8-0.8,1.8-1.8v-8.4c0-1-0.8-1.8-1.8-1.8h-0.1c-1,0-1.8,0.8-1.8,1.8
	C14.1,17.9,14.1,26.3,14.1,26.3z"/>
<path class="st1" d="M20.3,30.5c0,1,0.8,1.8,1.8,1.8h0.1c1,0,1.8-0.8,1.8-1.8V13.7c0-1-0.8-1.8-1.8-1.8h-0.1c-1,0-1.8,0.8-1.8,1.8
	V30.5z"/>
<path class="st1" d="M26.5,26.3c0,1,0.8,1.8,1.8,1.8h0.1c1,0,1.8-0.8,1.8-1.8v-8.4c0-1-0.8-1.8-1.8-1.8h-0.1c-1,0-1.8,0.8-1.8,1.8
	V26.3z"/>
</svg>
