<?xml version="1.0" encoding="utf-8"?>
<!-- Generator: Adobe Illustrator 24.0.1, SVG Export Plug-In . SVG Version: 6.00 Build 0)  -->
<svg version="1.1" id="Layer_1" xmlns="http://www.w3.org/2000/svg" xmlns:xlink="http://www.w3.org/1999/xlink" x="0px" y="0px"
	 viewBox="0 0 299.3 54" style="enable-background:new 0 0 299.3 54;" xml:space="preserve">
<style type="text/css">
	.st0{fill-rule:evenodd;clip-rule:evenodd;fill:#152A84;}
	.st1{fill:#FFFFFF;}
	.st2{fill:#F1C218;}
</style>
<g>
	<g>
		<path class="st0" d="M27.1,54.1c-8.8,0-17.6,0-26.5,0c-0.7,0-0.6,0.1-0.6-0.6C0,35.9,0,18.3,0,0.6C0-0.1-0.1,0,0.6,0
			c17.6,0,35.2,0,52.9,0c0.7,0,0.6-0.1,0.6,0.6c0,17.6,0,35.3,0,52.9c0,0.7,0.1,0.6-0.6,0.6C44.7,54.1,35.9,54.1,27.1,54.1z"/>
		<g>
			<path class="st1" d="M11.1,42.1C11.1,42.1,11.1,42.1,11.1,42.1C11.1,42.1,11.1,42.1,11.1,42.1C11,42.2,11,42.2,11,42.2
				s-0.1,0-0.2,0c-0.1,0-0.1,0-0.2,0s-0.1,0-0.1,0c0,0,0,0-0.1,0c0,0,0,0,0-0.1v-3h0l-1.1,3c0,0,0,0,0,0.1c0,0,0,0-0.1,0
				c0,0-0.1,0-0.1,0s-0.1,0-0.2,0s-0.1,0-0.2,0c0,0-0.1,0-0.1,0c0,0-0.1,0-0.1,0c0,0,0,0,0-0.1l-1-3h0v3c0,0,0,0,0,0.1
				c0,0,0,0-0.1,0c0,0-0.1,0-0.1,0s-0.1,0-0.2,0c-0.1,0-0.1,0-0.2,0s-0.1,0-0.1,0c0,0,0,0-0.1,0c0,0,0,0,0-0.1v-3.2
				c0-0.1,0-0.2,0.1-0.2c0.1-0.1,0.1-0.1,0.2-0.1h0.5c0.1,0,0.2,0,0.2,0c0.1,0,0.1,0,0.2,0.1c0,0,0.1,0.1,0.1,0.1
				c0,0.1,0.1,0.1,0.1,0.2L9,41.1h0L9.9,39c0-0.1,0.1-0.1,0.1-0.2c0-0.1,0.1-0.1,0.1-0.1c0,0,0.1-0.1,0.1-0.1c0.1,0,0.1,0,0.2,0h0.5
				c0.1,0,0.1,0,0.1,0c0,0,0.1,0,0.1,0.1s0,0.1,0.1,0.1c0,0,0,0.1,0,0.1V42.1z"/>
			<path class="st1" d="M15.2,40.3c0,0.3,0,0.6-0.1,0.8c-0.1,0.2-0.2,0.4-0.3,0.6c-0.1,0.2-0.3,0.3-0.5,0.4
				c-0.2,0.1-0.5,0.1-0.8,0.1c-0.3,0-0.5,0-0.7-0.1c-0.2-0.1-0.4-0.2-0.5-0.3c-0.1-0.2-0.2-0.3-0.3-0.6c-0.1-0.2-0.1-0.5-0.1-0.8
				c0-0.3,0-0.6,0.1-0.8c0.1-0.2,0.2-0.4,0.3-0.6c0.1-0.2,0.3-0.3,0.5-0.4c0.2-0.1,0.5-0.1,0.8-0.1c0.3,0,0.5,0,0.7,0.1
				c0.2,0.1,0.4,0.2,0.5,0.3c0.1,0.2,0.2,0.3,0.3,0.6C15.2,39.7,15.2,40,15.2,40.3z M14.4,40.3c0-0.2,0-0.4,0-0.5
				c0-0.2-0.1-0.3-0.2-0.4c-0.1-0.1-0.2-0.2-0.3-0.3c-0.1-0.1-0.3-0.1-0.4-0.1c-0.2,0-0.3,0-0.5,0.1s-0.2,0.2-0.3,0.3
				s-0.1,0.2-0.2,0.4s0,0.3,0,0.5c0,0.2,0,0.4,0,0.5c0,0.2,0.1,0.3,0.2,0.4c0.1,0.1,0.2,0.2,0.3,0.3c0.1,0.1,0.3,0.1,0.5,0.1
				c0.2,0,0.3,0,0.5-0.1c0.1-0.1,0.2-0.2,0.3-0.3c0.1-0.1,0.1-0.3,0.2-0.4S14.4,40.5,14.4,40.3z"/>
			<path class="st1" d="M18.7,42.1C18.7,42.1,18.7,42.1,18.7,42.1C18.6,42.1,18.6,42.1,18.7,42.1c-0.1,0.1-0.1,0.1-0.2,0.1
				s-0.1,0-0.2,0c-0.1,0-0.1,0-0.2,0s-0.1,0-0.1,0c0,0,0,0-0.1,0c0,0,0,0,0-0.1v-1.5h-1.4v1.5c0,0,0,0,0,0.1c0,0,0,0-0.1,0
				c0,0-0.1,0-0.1,0s-0.1,0-0.2,0c-0.1,0-0.1,0-0.2,0c0,0-0.1,0-0.1,0c0,0,0,0-0.1,0c0,0,0,0,0-0.1v-3.4c0,0,0,0,0-0.1s0,0,0.1,0
				c0,0,0.1,0,0.1,0c0,0,0.1,0,0.2,0c0.1,0,0.1,0,0.2,0c0,0,0.1,0,0.1,0c0,0,0,0,0.1,0s0,0,0,0.1V40h1.4v-1.3c0,0,0,0,0-0.1
				c0,0,0,0,0.1,0c0,0,0.1,0,0.1,0c0,0,0.1,0,0.2,0c0.1,0,0.1,0,0.2,0c0,0,0.1,0,0.1,0c0,0,0,0,0.1,0c0,0,0,0,0,0.1V42.1z"/>
			<path class="st1" d="M21.5,38.8c0,0.1,0,0.1,0,0.1c0,0,0,0.1,0,0.1s0,0,0,0c0,0,0,0,0,0h-1.2v2.9c0,0,0,0,0,0c0,0,0,0-0.1,0
				c0,0-0.1,0-0.1,0c0,0-0.1,0-0.2,0c-0.1,0-0.1,0-0.2,0c0,0-0.1,0-0.1,0c0,0,0,0-0.1,0c0,0,0,0,0,0v-3.3c0-0.1,0-0.1,0.1-0.2
				c0,0,0.1-0.1,0.2-0.1h1.7c0,0,0.1,0,0.1,0.1C21.5,38.6,21.5,38.7,21.5,38.8z"/>
			<path class="st1" d="M25,40.3c0,0.3,0,0.6-0.1,0.8c-0.1,0.2-0.2,0.4-0.3,0.6c-0.1,0.2-0.3,0.3-0.5,0.4c-0.2,0.1-0.5,0.1-0.8,0.1
				c-0.3,0-0.5,0-0.7-0.1c-0.2-0.1-0.4-0.2-0.5-0.3c-0.1-0.2-0.2-0.3-0.3-0.6c-0.1-0.2-0.1-0.5-0.1-0.8c0-0.3,0-0.6,0.1-0.8
				c0.1-0.2,0.2-0.4,0.3-0.6c0.1-0.2,0.3-0.3,0.5-0.4c0.2-0.1,0.5-0.1,0.8-0.1c0.3,0,0.5,0,0.7,0.1c0.2,0.1,0.4,0.2,0.5,0.3
				c0.1,0.2,0.2,0.3,0.3,0.6C25,39.7,25,40,25,40.3z M24.3,40.3c0-0.2,0-0.4,0-0.5c0-0.2-0.1-0.3-0.2-0.4c-0.1-0.1-0.2-0.2-0.3-0.3
				c-0.1-0.1-0.3-0.1-0.4-0.1c-0.2,0-0.3,0-0.5,0.1s-0.2,0.2-0.3,0.3s-0.1,0.2-0.2,0.4s0,0.3,0,0.5c0,0.2,0,0.4,0,0.5
				c0,0.2,0.1,0.3,0.2,0.4c0.1,0.1,0.2,0.2,0.3,0.3c0.1,0.1,0.3,0.1,0.5,0.1c0.2,0,0.3,0,0.5-0.1c0.1-0.1,0.2-0.2,0.3-0.3
				c0.1-0.1,0.1-0.3,0.2-0.4S24.3,40.5,24.3,40.3z"/>
			<path class="st1" d="M28.3,42.1C28.3,42.1,28.3,42.1,28.3,42.1C28.3,42.1,28.3,42.1,28.3,42.1c-0.1,0.1-0.1,0.1-0.2,0.1
				c0,0-0.1,0-0.2,0c-0.1,0-0.1,0-0.2,0c0,0-0.1,0-0.1,0c0,0,0,0-0.1,0c0,0,0,0,0,0v-2.9h-0.8c-0.1,0.4-0.1,0.8-0.2,1.1
				c-0.1,0.3-0.1,0.6-0.2,0.8c-0.1,0.2-0.1,0.4-0.2,0.6c-0.1,0.1-0.2,0.3-0.3,0.3c-0.1,0.1-0.2,0.1-0.3,0.2c-0.1,0-0.3,0-0.4,0
				c0,0-0.1,0-0.1,0c0,0,0,0,0,0s0,0,0-0.1c0,0,0-0.1,0-0.1c0-0.1,0-0.1,0-0.2s0-0.1,0-0.1s0,0,0-0.1c0,0,0,0,0.1,0
				c0.1,0,0.1,0,0.2,0s0.1-0.1,0.2-0.1c0-0.1,0.1-0.2,0.1-0.3c0-0.1,0.1-0.3,0.1-0.5c0-0.2,0.1-0.5,0.1-0.7s0.1-0.6,0.1-1.1
				c0-0.1,0-0.2,0.1-0.2c0,0,0.1-0.1,0.1-0.1h1.8c0.1,0,0.1,0,0.2,0.1c0,0,0.1,0.1,0.1,0.2V42.1z"/>
			<path class="st1" d="M32.1,41.2c-0.1,0.2-0.2,0.4-0.2,0.5s-0.2,0.2-0.3,0.3c-0.1,0.1-0.2,0.1-0.3,0.2c-0.1,0-0.2,0-0.4,0
				c-0.1,0-0.1,0-0.1,0c0,0-0.1,0-0.1,0c0,0-0.1,0-0.1,0c0,0-0.1,0-0.1,0c0,0,0,0,0,0c0,0,0,0,0-0.1c0,0,0-0.1,0-0.1
				c0,0,0-0.1,0-0.2c0-0.1,0-0.2,0-0.2c0,0,0-0.1,0.1-0.1c0,0,0,0,0.1,0c0,0,0,0,0.1,0c0,0,0.1,0,0.1,0c0,0,0.1,0,0.1,0
				c0,0,0.1,0,0.1,0c0,0,0.1,0,0.1,0c0,0,0.1-0.1,0.1-0.1c0,0,0.1-0.1,0.1-0.2l-1.2-2.4c0-0.1,0-0.1,0-0.1c0,0,0-0.1,0-0.1
				s0.1,0,0.1,0s0.1,0,0.2,0c0.1,0,0.2,0,0.2,0c0.1,0,0.1,0,0.1,0c0,0,0.1,0,0.1,0.1c0,0,0,0.1,0.1,0.1l0.5,1.1
				c0.1,0.1,0.1,0.2,0.2,0.4c0.1,0.1,0.1,0.2,0.1,0.4h0c0-0.1,0.1-0.2,0.1-0.4c0-0.1,0.1-0.2,0.1-0.4l0.4-1.1c0,0,0,0,0-0.1
				s0,0,0.1,0s0.1,0,0.1,0s0.1,0,0.2,0c0.1,0,0.2,0,0.2,0c0.1,0,0.1,0,0.1,0c0,0,0,0,0,0.1c0,0,0,0.1,0,0.1L32.1,41.2z"/>
			<path class="st1" d="M36,42.1C36,42.1,35.9,42.1,36,42.1C35.9,42.1,35.9,42.1,36,42.1c-0.1,0.1-0.1,0.1-0.2,0.1c0,0-0.1,0-0.2,0
				c-0.1,0-0.1,0-0.2,0c0,0-0.1,0-0.1,0c0,0,0,0-0.1,0c0,0,0,0,0,0v-2.9h-0.8c-0.1,0.4-0.1,0.8-0.2,1.1c-0.1,0.3-0.1,0.6-0.2,0.8
				c-0.1,0.2-0.1,0.4-0.2,0.6c-0.1,0.1-0.2,0.3-0.3,0.3c-0.1,0.1-0.2,0.1-0.3,0.2c-0.1,0-0.3,0-0.4,0c0,0-0.1,0-0.1,0c0,0,0,0,0,0
				s0,0,0-0.1c0,0,0-0.1,0-0.1c0-0.1,0-0.1,0-0.2s0-0.1,0-0.1s0,0,0-0.1c0,0,0,0,0.1,0c0.1,0,0.1,0,0.2,0s0.1-0.1,0.2-0.1
				c0-0.1,0.1-0.2,0.1-0.3c0-0.1,0.1-0.3,0.1-0.5c0-0.2,0.1-0.5,0.1-0.7s0.1-0.6,0.1-1.1c0-0.1,0-0.2,0.1-0.2c0,0,0.1-0.1,0.1-0.1
				h1.8c0.1,0,0.1,0,0.2,0.1c0,0,0.1,0.1,0.1,0.2V42.1z"/>
			<path class="st1" d="M39.3,41.6c0,0,0,0.1,0,0.1c0,0,0,0.1,0,0.1c0,0,0,0,0,0.1c0,0,0,0,0,0.1c0,0-0.1,0-0.1,0.1
				c-0.1,0-0.1,0.1-0.2,0.1c-0.1,0-0.2,0.1-0.3,0.1s-0.2,0-0.4,0c-0.2,0-0.5,0-0.7-0.1c-0.2-0.1-0.4-0.2-0.5-0.3s-0.2-0.3-0.3-0.6
				s-0.1-0.5-0.1-0.8c0-0.3,0-0.6,0.1-0.8c0.1-0.2,0.2-0.4,0.3-0.6c0.1-0.2,0.3-0.3,0.5-0.4c0.2-0.1,0.4-0.1,0.7-0.1
				c0.1,0,0.2,0,0.3,0c0.1,0,0.2,0,0.3,0.1c0.1,0,0.2,0.1,0.2,0.1c0.1,0,0.1,0.1,0.1,0.1s0,0,0.1,0.1c0,0,0,0,0,0.1c0,0,0,0.1,0,0.1
				c0,0,0,0.1,0,0.1c0,0.1,0,0.1,0,0.1c0,0,0,0.1,0,0.1s0,0,0,0.1c0,0,0,0,0,0c0,0-0.1,0-0.1,0c0,0-0.1-0.1-0.2-0.1
				c-0.1,0-0.1-0.1-0.2-0.1c-0.1,0-0.2,0-0.3,0c-0.1,0-0.3,0-0.4,0.1c-0.1,0.1-0.2,0.1-0.3,0.3s-0.1,0.2-0.2,0.4s-0.1,0.3-0.1,0.5
				c0,0.2,0,0.4,0.1,0.6s0.1,0.3,0.2,0.4c0.1,0.1,0.2,0.2,0.3,0.2c0.1,0,0.2,0.1,0.4,0.1c0.1,0,0.2,0,0.3,0c0.1,0,0.2-0.1,0.2-0.1
				c0.1,0,0.1-0.1,0.2-0.1s0.1,0,0.1,0c0,0,0,0,0,0c0,0,0,0,0,0s0,0.1,0,0.1C39.3,41.5,39.3,41.5,39.3,41.6z"/>
			<path class="st1" d="M42.4,41c0,0.2,0,0.3-0.1,0.5c-0.1,0.1-0.1,0.3-0.3,0.4c-0.1,0.1-0.3,0.2-0.4,0.3c-0.2,0.1-0.4,0.1-0.8,0.1
				H40c0,0-0.1,0-0.1,0c0,0-0.1,0-0.1,0c0,0,0,0,0-0.1c0,0,0-0.1,0-0.1v-3.3c0,0,0,0,0,0c0,0,0,0,0.1,0c0,0,0.1,0,0.1,0s0.1,0,0.2,0
				c0.1,0,0.1,0,0.2,0s0.1,0,0.1,0c0,0,0,0,0.1,0c0,0,0,0,0,0v1.3H41c0.3,0,0.5,0,0.6,0.1c0.2,0,0.3,0.1,0.4,0.2s0.2,0.2,0.3,0.3
				S42.4,40.8,42.4,41z M41.6,41c0-0.1,0-0.2,0-0.2s-0.1-0.1-0.1-0.2c-0.1,0-0.1-0.1-0.2-0.1c-0.1,0-0.2,0-0.4,0h-0.4v1.2h0.4
				c0.2,0,0.3,0,0.4-0.1c0.1,0,0.2-0.1,0.2-0.1c0-0.1,0.1-0.1,0.1-0.2C41.6,41.2,41.6,41.1,41.6,41z M43.6,42.1
				C43.6,42.1,43.6,42.1,43.6,42.1C43.6,42.1,43.5,42.1,43.6,42.1c-0.1,0.1-0.1,0.1-0.2,0.1c0,0-0.1,0-0.2,0c-0.1,0-0.1,0-0.2,0
				c0,0-0.1,0-0.1,0c0,0,0,0-0.1,0c0,0,0,0,0,0v-3.4c0,0,0,0,0,0c0,0,0,0,0.1,0c0,0,0.1,0,0.1,0c0,0,0.1,0,0.2,0c0.1,0,0.1,0,0.2,0
				c0,0,0.1,0,0.1,0c0,0,0,0,0.1,0c0,0,0,0,0,0V42.1z"/>
			<path class="st1" d="M47.2,42.1C47.2,42.1,47.2,42.1,47.2,42.1C47.2,42.1,47.2,42.1,47.2,42.1c-0.1,0.1-0.1,0.1-0.2,0.1
				s-0.1,0-0.2,0c-0.1,0-0.1,0-0.2,0s-0.1,0-0.1,0c0,0,0,0-0.1,0c0,0,0,0,0-0.1v-1.5h-1.4v1.5c0,0,0,0,0,0.1c0,0,0,0-0.1,0
				c0,0-0.1,0-0.1,0s-0.1,0-0.2,0c-0.1,0-0.1,0-0.2,0s-0.1,0-0.1,0c0,0,0,0-0.1,0c0,0,0,0,0-0.1v-3.4c0,0,0,0,0-0.1s0,0,0.1,0
				c0,0,0.1,0,0.1,0c0,0,0.1,0,0.2,0c0.1,0,0.1,0,0.2,0c0,0,0.1,0,0.1,0c0,0,0,0,0.1,0s0,0,0,0.1V40h1.4v-1.3c0,0,0,0,0-0.1
				c0,0,0,0,0.1,0c0,0,0.1,0,0.1,0c0,0,0.1,0,0.2,0c0.1,0,0.1,0,0.2,0c0,0,0.1,0,0.1,0c0,0,0,0,0.1,0c0,0,0,0,0,0.1V42.1z"/>
			<path class="st1" d="M10.3,47c0,0.2,0,0.3-0.1,0.5c-0.1,0.1-0.2,0.3-0.3,0.4C9.7,48,9.6,48,9.4,48.1c-0.2,0-0.4,0.1-0.6,0.1
				c-0.1,0-0.2,0-0.3,0c-0.1,0-0.2,0-0.3-0.1C8.1,48,8.1,48,8,48c0,0-0.1,0-0.1-0.1s0,0,0,0c0,0,0,0,0-0.1c0,0,0-0.1,0-0.1
				s0-0.1,0-0.2c0-0.1,0-0.1,0-0.2c0,0,0,0,0.1,0c0,0,0.1,0,0.1,0s0.1,0,0.2,0.1c0.1,0,0.1,0.1,0.2,0.1c0.1,0,0.2,0,0.3,0
				c0.1,0,0.2,0,0.3,0c0.1,0,0.2-0.1,0.2-0.1c0.1,0,0.1-0.1,0.1-0.2c0-0.1,0-0.1,0-0.2c0-0.1,0-0.2,0-0.2c0-0.1-0.1-0.1-0.1-0.2
				c-0.1,0-0.1-0.1-0.2-0.1c-0.1,0-0.2,0-0.3,0H8.3c0,0-0.1,0-0.1,0c0,0,0,0,0,0s0,0,0-0.1c0,0,0-0.1,0-0.1c0-0.1,0-0.1,0-0.1
				c0,0,0-0.1,0-0.1s0,0,0,0c0,0,0,0,0.1,0h0.4c0.1,0,0.2,0,0.3,0s0.2-0.1,0.2-0.1c0.1,0,0.1-0.1,0.1-0.2c0-0.1,0-0.1,0-0.2
				c0-0.1,0-0.1,0-0.2c0-0.1-0.1-0.1-0.1-0.1c0,0-0.1-0.1-0.2-0.1s-0.2,0-0.2,0c-0.1,0-0.2,0-0.3,0s-0.2,0.1-0.2,0.1
				c-0.1,0-0.1,0.1-0.2,0.1s-0.1,0-0.1,0c0,0,0,0,0,0c0,0,0,0,0,0c0,0,0,0,0-0.1c0,0,0-0.1,0-0.1c0,0,0-0.1,0-0.1c0,0,0-0.1,0-0.1
				c0,0,0,0,0-0.1s0,0,0-0.1s0.1,0,0.1-0.1c0.1,0,0.1-0.1,0.2-0.1s0.2,0,0.3-0.1s0.2,0,0.4,0c0.2,0,0.4,0,0.5,0.1
				c0.1,0,0.3,0.1,0.4,0.2c0.1,0.1,0.2,0.2,0.2,0.3c0,0.1,0.1,0.2,0.1,0.4c0,0.1,0,0.2,0,0.3c0,0.1-0.1,0.2-0.1,0.3
				C9.9,46,9.8,46,9.8,46.1c-0.1,0-0.2,0.1-0.3,0.1v0c0.1,0,0.2,0,0.3,0.1c0.1,0,0.2,0.1,0.2,0.2c0.1,0.1,0.1,0.2,0.2,0.3
				C10.2,46.8,10.3,46.9,10.3,47z"/>
			<path class="st1" d="M13.8,47.8c0,0.1,0,0.1,0,0.2c0,0,0,0.1,0,0.1c0,0-0.1,0-0.1,0c-0.1,0-0.1,0-0.2,0c-0.1,0-0.2,0-0.2,0
				s-0.1,0-0.1,0c0,0,0,0-0.1,0s0,0,0-0.1l-0.2-0.7h-1.4L11.2,48c0,0,0,0,0,0.1s0,0-0.1,0c0,0-0.1,0-0.1,0c0,0-0.1,0-0.2,0
				c-0.1,0-0.2,0-0.2,0c0,0-0.1,0-0.1,0c0,0,0-0.1,0-0.1c0,0,0-0.1,0-0.2l1.1-3.2c0,0,0-0.1,0-0.1c0,0,0,0,0.1,0c0,0,0.1,0,0.1,0
				s0.1,0,0.2,0c0.1,0,0.2,0,0.3,0c0.1,0,0.1,0,0.2,0c0,0,0.1,0,0.1,0c0,0,0,0,0,0.1L13.8,47.8z M12.1,45.2L12.1,45.2l-0.5,1.5h1
				L12.1,45.2z"/>
			<path class="st1" d="M16.6,47.5c0,0,0,0.1,0,0.1c0,0,0,0.1,0,0.1c0,0,0,0,0,0.1c0,0,0,0,0,0.1c0,0-0.1,0-0.1,0.1
				c-0.1,0-0.1,0.1-0.2,0.1c-0.1,0-0.2,0.1-0.3,0.1c-0.1,0-0.2,0-0.4,0c-0.2,0-0.5,0-0.7-0.1c-0.2-0.1-0.4-0.2-0.5-0.3
				s-0.2-0.3-0.3-0.6s-0.1-0.5-0.1-0.8c0-0.3,0-0.6,0.1-0.8c0.1-0.2,0.2-0.4,0.3-0.6c0.1-0.2,0.3-0.3,0.5-0.4
				c0.2-0.1,0.4-0.1,0.7-0.1c0.1,0,0.2,0,0.3,0c0.1,0,0.2,0,0.3,0.1c0.1,0,0.2,0.1,0.2,0.1c0.1,0,0.1,0.1,0.1,0.1s0,0,0.1,0.1
				c0,0,0,0,0,0.1c0,0,0,0.1,0,0.1c0,0,0,0.1,0,0.1c0,0.1,0,0.1,0,0.1c0,0,0,0.1,0,0.1s0,0,0,0.1c0,0,0,0,0,0c0,0-0.1,0-0.1,0
				c0,0-0.1-0.1-0.2-0.1c-0.1,0-0.1-0.1-0.2-0.1c-0.1,0-0.2,0-0.3,0c-0.1,0-0.3,0-0.4,0.1c-0.1,0.1-0.2,0.1-0.3,0.3
				s-0.1,0.2-0.2,0.4s-0.1,0.3-0.1,0.5c0,0.2,0,0.4,0.1,0.6s0.1,0.3,0.2,0.4c0.1,0.1,0.2,0.2,0.3,0.2c0.1,0,0.2,0.1,0.4,0.1
				c0.1,0,0.2,0,0.3,0c0.1,0,0.2-0.1,0.2-0.1c0.1,0,0.1-0.1,0.2-0.1s0.1,0,0.1,0c0,0,0,0,0,0c0,0,0,0,0,0s0,0.1,0,0.1
				C16.6,47.4,16.6,47.5,16.6,47.5z"/>
			<path class="st1" d="M19.2,44.8c0,0.1,0,0.1,0,0.1c0,0,0,0.1,0,0.1s0,0,0,0c0,0,0,0,0,0h-1.2V48c0,0,0,0,0,0c0,0,0,0-0.1,0
				c0,0-0.1,0-0.1,0c0,0-0.1,0-0.2,0c-0.1,0-0.1,0-0.2,0c0,0-0.1,0-0.1,0c0,0,0,0-0.1,0c0,0,0,0,0,0v-3.3c0-0.1,0-0.1,0.1-0.2
				c0,0,0.1-0.1,0.2-0.1h1.7c0,0,0.1,0,0.1,0.1C19.2,44.6,19.2,44.7,19.2,44.8z"/>
			<path class="st1" d="M22.6,48C22.6,48,22.6,48,22.6,48C22.6,48.1,22.5,48.1,22.6,48c-0.1,0.1-0.1,0.1-0.2,0.1c0,0-0.1,0-0.2,0
				c-0.1,0-0.1,0-0.2,0c0,0-0.1,0-0.1,0c0,0,0,0-0.1,0c0,0,0,0,0,0v-1.9c0-0.1,0-0.1,0-0.2c0-0.1,0-0.1,0-0.2h0c0,0,0,0.1-0.1,0.1
				c0,0,0,0.1-0.1,0.1s0,0.1-0.1,0.1s-0.1,0.1-0.1,0.1L20.3,48c0,0,0,0,0,0.1c0,0,0,0-0.1,0s-0.1,0-0.1,0c0,0-0.1,0-0.1,0
				c-0.1,0-0.1,0-0.2,0c0,0-0.1,0-0.1,0c0,0,0,0-0.1,0c0,0,0,0,0-0.1v-3.4c0,0,0,0,0,0c0,0,0,0,0.1,0c0,0,0.1,0,0.1,0s0.1,0,0.2,0
				c0.1,0,0.1,0,0.2,0s0.1,0,0.1,0c0,0,0,0,0.1,0c0,0,0,0,0,0v1.9c0,0.1,0,0.1,0,0.2c0,0.1,0,0.1,0,0.2h0c0-0.1,0.1-0.1,0.1-0.2
				c0-0.1,0.1-0.2,0.2-0.2l1.3-1.9c0,0,0,0,0,0c0,0,0,0,0.1,0c0,0,0.1,0,0.1,0s0.1,0,0.1,0c0.1,0,0.1,0,0.2,0s0.1,0,0.1,0
				c0,0,0,0,0.1,0c0,0,0,0,0,0.1V48z"/>
			<path class="st1" d="M26.3,48C26.3,48,26.3,48,26.3,48C26.3,48.1,26.3,48.1,26.3,48c-0.1,0.1-0.1,0.1-0.2,0.1c0,0-0.1,0-0.2,0
				c-0.1,0-0.1,0-0.2,0c0,0-0.1,0-0.1,0c0,0,0,0-0.1,0c0,0,0,0,0,0v-1.9c0-0.1,0-0.1,0-0.2c0-0.1,0-0.1,0-0.2h0c0,0,0,0.1-0.1,0.1
				c0,0,0,0.1-0.1,0.1s0,0.1-0.1,0.1s-0.1,0.1-0.1,0.1L24.1,48c0,0,0,0,0,0.1c0,0,0,0-0.1,0s-0.1,0-0.1,0c0,0-0.1,0-0.1,0
				c-0.1,0-0.1,0-0.2,0c0,0-0.1,0-0.1,0c0,0,0,0-0.1,0c0,0,0,0,0-0.1v-3.4c0,0,0,0,0,0c0,0,0,0,0.1,0c0,0,0.1,0,0.1,0s0.1,0,0.2,0
				c0.1,0,0.1,0,0.2,0s0.1,0,0.1,0c0,0,0,0,0.1,0c0,0,0,0,0,0v1.9c0,0.1,0,0.1,0,0.2c0,0.1,0,0.1,0,0.2h0c0-0.1,0.1-0.1,0.1-0.2
				c0-0.1,0.1-0.2,0.2-0.2l1.3-1.9c0,0,0,0,0,0c0,0,0,0,0.1,0c0,0,0.1,0,0.1,0s0.1,0,0.1,0c0.1,0,0.1,0,0.2,0s0.1,0,0.1,0
				c0,0,0,0,0.1,0c0,0,0,0,0,0.1V48z M25.9,43.5c0,0.1,0,0.2-0.1,0.3c0,0.1-0.1,0.2-0.2,0.2s-0.2,0.1-0.3,0.2s-0.3,0.1-0.5,0.1
				c-0.2,0-0.3,0-0.5-0.1c-0.1,0-0.2-0.1-0.3-0.2C24,44,24,43.9,23.9,43.8c0-0.1-0.1-0.2-0.1-0.3c0,0,0-0.1,0-0.1c0,0,0,0,0.1,0
				c0,0,0.1,0,0.1,0c0,0,0.1,0,0.2,0c0.1,0,0.1,0,0.1,0s0.1,0,0.1,0c0,0,0,0,0,0c0,0,0,0,0,0.1c0,0,0,0.1,0,0.1c0,0,0,0.1,0.1,0.1
				c0,0,0.1,0.1,0.1,0.1s0.1,0,0.2,0c0.1,0,0.1,0,0.2,0c0,0,0.1,0,0.1-0.1c0,0,0.1-0.1,0.1-0.1s0-0.1,0-0.1c0,0,0,0,0-0.1
				c0,0,0,0,0,0c0,0,0.1,0,0.1,0s0.1,0,0.1,0c0.1,0,0.1,0,0.2,0c0,0,0.1,0,0.1,0C25.9,43.4,25.9,43.4,25.9,43.5
				C25.9,43.4,25.9,43.5,25.9,43.5z"/>
			<path class="st1" d="M30,48C30,48,30,48,30,48C29.9,48.1,29.9,48.1,30,48c-0.1,0.1-0.1,0.1-0.2,0.1s-0.1,0-0.2,0
				c-0.1,0-0.1,0-0.2,0s-0.1,0-0.1,0c0,0,0,0-0.1,0c0,0,0,0,0-0.1v-1.5h-1.4V48c0,0,0,0,0,0.1c0,0,0,0-0.1,0c0,0-0.1,0-0.1,0
				s-0.1,0-0.2,0c-0.1,0-0.1,0-0.2,0s-0.1,0-0.1,0c0,0,0,0-0.1,0c0,0,0,0,0-0.1v-3.4c0,0,0,0,0-0.1s0,0,0.1,0c0,0,0.1,0,0.1,0
				c0,0,0.1,0,0.2,0c0.1,0,0.1,0,0.2,0c0,0,0.1,0,0.1,0c0,0,0,0,0.1,0s0,0,0,0.1v1.3h1.4v-1.3c0,0,0,0,0-0.1c0,0,0,0,0.1,0
				c0,0,0.1,0,0.1,0c0,0,0.1,0,0.2,0c0.1,0,0.1,0,0.2,0c0,0,0.1,0,0.1,0c0,0,0,0,0.1,0c0,0,0,0,0,0.1V48z"/>
			<path class="st1" d="M34.1,44.8c0,0.1,0,0.1,0,0.1c0,0,0,0.1,0,0.1s0,0,0,0c0,0,0,0,0,0h-1.2V48c0,0,0,0,0,0c0,0,0,0-0.1,0
				c0,0-0.1,0-0.1,0c0,0-0.1,0-0.2,0c-0.1,0-0.1,0-0.2,0c0,0-0.1,0-0.1,0c0,0,0,0-0.1,0c0,0,0,0,0,0v-3.3c0-0.1,0-0.1,0.1-0.2
				c0,0,0.1-0.1,0.2-0.1H34c0,0,0.1,0,0.1,0.1C34.1,44.6,34.1,44.7,34.1,44.8z"/>
			<path class="st1" d="M37.1,47.8c0,0.1,0,0.1,0,0.2c0,0,0,0.1,0,0.1c0,0-0.1,0-0.1,0c-0.1,0-0.1,0-0.2,0c-0.1,0-0.2,0-0.2,0
				s-0.1,0-0.1,0c0,0,0,0-0.1,0s0,0,0-0.1l-0.2-0.7h-1.4L34.5,48c0,0,0,0,0,0.1s0,0-0.1,0c0,0-0.1,0-0.1,0c0,0-0.1,0-0.2,0
				c-0.1,0-0.2,0-0.2,0c0,0-0.1,0-0.1,0c0,0,0-0.1,0-0.1c0,0,0-0.1,0-0.2l1.1-3.2c0,0,0-0.1,0-0.1c0,0,0,0,0.1,0c0,0,0.1,0,0.1,0
				s0.1,0,0.2,0c0.1,0,0.2,0,0.3,0c0.1,0,0.1,0,0.2,0c0,0,0.1,0,0.1,0c0,0,0,0,0,0.1L37.1,47.8z M35.4,45.2L35.4,45.2l-0.5,1.5h1
				L35.4,45.2z"/>
			<path class="st1" d="M39.8,47c0,0.2,0,0.3-0.1,0.5c-0.1,0.1-0.2,0.3-0.3,0.4c-0.1,0.1-0.3,0.2-0.5,0.2c-0.2,0-0.4,0.1-0.6,0.1
				c-0.1,0-0.2,0-0.3,0c-0.1,0-0.2,0-0.3-0.1c-0.1,0-0.1,0-0.2-0.1c0,0-0.1,0-0.1-0.1s0,0,0,0c0,0,0,0,0-0.1c0,0,0-0.1,0-0.1
				s0-0.1,0-0.2c0-0.1,0-0.1,0-0.2c0,0,0,0,0.1,0c0,0,0.1,0,0.1,0s0.1,0,0.2,0.1c0.1,0,0.1,0.1,0.2,0.1c0.1,0,0.2,0,0.3,0
				c0.1,0,0.2,0,0.3,0c0.1,0,0.2-0.1,0.2-0.1c0.1,0,0.1-0.1,0.1-0.2c0-0.1,0-0.1,0-0.2c0-0.1,0-0.2,0-0.2c0-0.1-0.1-0.1-0.1-0.2
				c-0.1,0-0.1-0.1-0.2-0.1c-0.1,0-0.2,0-0.3,0h-0.4c0,0-0.1,0-0.1,0c0,0,0,0,0,0s0,0,0-0.1c0,0,0-0.1,0-0.1c0-0.1,0-0.1,0-0.1
				c0,0,0-0.1,0-0.1s0,0,0,0c0,0,0,0,0.1,0h0.4c0.1,0,0.2,0,0.3,0s0.2-0.1,0.2-0.1c0.1,0,0.1-0.1,0.1-0.2c0-0.1,0-0.1,0-0.2
				c0-0.1,0-0.1,0-0.2c0-0.1-0.1-0.1-0.1-0.1c0,0-0.1-0.1-0.2-0.1s-0.2,0-0.2,0c-0.1,0-0.2,0-0.3,0s-0.2,0.1-0.2,0.1
				c-0.1,0-0.1,0.1-0.2,0.1s-0.1,0-0.1,0c0,0,0,0,0,0c0,0,0,0,0,0c0,0,0,0,0-0.1c0,0,0-0.1,0-0.1c0,0,0-0.1,0-0.1c0,0,0-0.1,0-0.1
				c0,0,0,0,0-0.1s0,0,0-0.1s0.1,0,0.1-0.1c0.1,0,0.1-0.1,0.2-0.1s0.2,0,0.3-0.1s0.2,0,0.4,0c0.2,0,0.4,0,0.5,0.1
				c0.1,0,0.3,0.1,0.4,0.2c0.1,0.1,0.2,0.2,0.2,0.3c0,0.1,0.1,0.2,0.1,0.4c0,0.1,0,0.2,0,0.3c0,0.1-0.1,0.2-0.1,0.3
				c-0.1,0.1-0.1,0.1-0.2,0.2c-0.1,0-0.2,0.1-0.3,0.1v0c0.1,0,0.2,0,0.3,0.1c0.1,0,0.2,0.1,0.2,0.2c0.1,0.1,0.1,0.2,0.2,0.3
				C39.7,46.8,39.8,46.9,39.8,47z"/>
			<path class="st1" d="M43.3,47.8c0,0.1,0,0.1,0,0.2c0,0,0,0.1,0,0.1c0,0-0.1,0-0.1,0c-0.1,0-0.1,0-0.2,0c-0.1,0-0.2,0-0.2,0
				s-0.1,0-0.1,0c0,0,0,0-0.1,0s0,0,0-0.1l-0.2-0.7h-1.4L40.7,48c0,0,0,0,0,0.1s0,0-0.1,0c0,0-0.1,0-0.1,0c0,0-0.1,0-0.2,0
				c-0.1,0-0.2,0-0.2,0c0,0-0.1,0-0.1,0c0,0,0-0.1,0-0.1c0,0,0-0.1,0-0.2l1.1-3.2c0,0,0-0.1,0-0.1c0,0,0,0,0.1,0c0,0,0.1,0,0.1,0
				s0.1,0,0.2,0c0.1,0,0.2,0,0.3,0c0.1,0,0.1,0,0.2,0c0,0,0.1,0,0.1,0c0,0,0,0,0,0.1L43.3,47.8z M41.6,45.2L41.6,45.2l-0.5,1.5h1
				L41.6,45.2z"/>
			<path class="st1" d="M46.3,45.6c0,0.2,0,0.4-0.1,0.5c-0.1,0.2-0.2,0.3-0.3,0.4s-0.3,0.2-0.4,0.2c-0.2,0.1-0.4,0.1-0.6,0.1h-0.3
				V48c0,0,0,0,0,0.1c0,0,0,0-0.1,0c0,0-0.1,0-0.1,0s-0.1,0-0.2,0c-0.1,0-0.1,0-0.2,0c0,0-0.1,0-0.1,0c0,0,0,0-0.1,0c0,0,0,0,0-0.1
				v-3.3c0-0.1,0-0.2,0.1-0.2s0.1-0.1,0.2-0.1h0.9c0.1,0,0.2,0,0.2,0c0.1,0,0.2,0,0.3,0c0.1,0,0.2,0.1,0.3,0.1
				c0.1,0.1,0.2,0.1,0.3,0.2s0.1,0.2,0.2,0.3C46.3,45.3,46.3,45.4,46.3,45.6z M45.5,45.6c0-0.1,0-0.2-0.1-0.3c0-0.1-0.1-0.1-0.2-0.2
				c-0.1,0-0.1-0.1-0.2-0.1c-0.1,0-0.1,0-0.2,0h-0.3v1.2h0.3c0.1,0,0.2,0,0.3,0c0.1,0,0.1-0.1,0.2-0.1c0.1-0.1,0.1-0.1,0.1-0.2
				C45.5,45.8,45.5,45.7,45.5,45.6z"/>
		</g>
		<path id="rect2887_2_" class="st2" d="M27.3,2.2c0,0-0.5,0.2-0.5,0.4c-0.1,0.3,0.3,0.6,0.3,0.9c0,0.4-0.5,0.8-0.5,1.2
			c0,0.3,0.3,0.6,0.3,0.9c0,0.2-0.2,0.4-0.4,0.4c-0.2,0-0.4-0.3-0.4-0.4c-0.1-0.3,0.4-0.6,0.4-1c0-0.2-0.3-0.4-0.3-0.7
			c0-0.2,0.2-0.4,0.2-0.4s-0.6,0.3-0.6,0.5c-0.1,0.2,0.2,0.4,0.1,0.6c-0.1,0.5-0.7,0.8-0.7,1.3c0,0.5,0.2,1,0.6,1.3
			c0.3,0.3,0.8,0.5,1.3,0.5c0.5,0,1-0.2,1.3-0.5C28.8,7.1,29,6.5,29,6.1c0-0.4-0.4-0.8-0.4-1.2c0-0.2,0.3-0.4,0.2-0.7
			c0-0.3-0.5-0.7-0.5-0.7s0.1,0.4,0.1,0.6c-0.1,0.3-0.4,0.5-0.4,0.7c0,0.3,0.3,0.5,0.3,0.8c0,0.2-0.2,0.4-0.3,0.4
			c-0.2,0-0.3-0.3-0.4-0.4c-0.1-0.4,0.4-0.8,0.3-1.2c0-0.6-0.6-1.1-0.6-1.8C27.2,2.5,27.3,2.2,27.3,2.2z M27.1,8.5
			c-1.6,0-2.9,1.3-2.9,2.9c0,1.6,1.3,2.9,2.9,2.9c1.6,0,2.9-1.3,2.9-2.9C30,9.8,28.7,8.5,27.1,8.5z M23,11.9c0,0.1,0,0.3,0,0.4
			c0,2.3,1.8,4.1,4.1,4.1c2.3,0,4.1-1.8,4.1-4.1c0-0.1,0-0.3,0-0.4C30.6,13.7,29,15,27.1,15C25.1,15,23.5,13.6,23,11.9L23,11.9z
			 M19.3,17v17.2h3.6V17H19.3z M23.5,17l3.6,2.3l3.6-2.3H23.5z M31.2,17v17.2h3.6V17H31.2z M23.5,19.9v1.5h1.6h4h1.6v-1.5h-1.6h-4
			H23.5z M26.5,21.9c-0.2,0-0.3,0-0.5,0.1c-1.6,0.3-2.6,1.9-2.6,3.5c0,1.7,1.1,3.1,2.6,3.5c-0.6-0.3-1-0.9-1-1.6v0
			c0-0.8,0.5-1.6,1.2-1.8c0.2-0.1,0.5-0.1,0.8-0.1h0c1,0,1.7-0.8,1.7-1.7C28.7,22.5,27.6,21.9,26.5,21.9L26.5,21.9z M28.1,22
			c0.6,0.3,1,0.9,1,1.6v0c0,0.8-0.5,1.5-1.2,1.8c-0.2,0.1-0.5,0.1-0.8,0.1h0c-1,0-1.7,0.8-1.7,1.7c0.1,1.2,1.2,1.8,2.3,1.7
			c0.2,0,0.3,0,0.5-0.1c1.5-0.3,2.6-1.9,2.6-3.5C30.7,23.9,29.6,22.5,28.1,22L28.1,22z M27.1,23c0.4,0,0.7,0.3,0.7,0.7
			c0,0.4-0.3,0.7-0.7,0.7c-0.4,0-0.7-0.3-0.7-0.7C26.4,23.3,26.7,23,27.1,23z M27.1,26.7c0.4,0,0.7,0.3,0.7,0.7
			c0,0.4-0.3,0.7-0.7,0.7s-0.7-0.3-0.7-0.7C26.4,27,26.7,26.7,27.1,26.7z M23.5,29.8v1.5h1.6h4h1.6v-1.5h-1.6h-4H23.5z M23.5,31.9
			l3.6,2.3l3.6-2.3H23.5z"/>
	</g>
	<g>
		<path class="st1" d="M70.8,21l2.3-4.4h2.9l-3.7,6.2l3.9,6.3h-3l-2.4-4.5l-2.4,4.5h-2.9l3.8-6.3l-3.7-6.2h2.9L70.8,21z"/>
		<path class="st1" d="M82,22.4L82,22.4l2.8-5.8h2.8l-4.3,8.1v4.4h-2.5v-4.5l-4.2-8h2.8L82,22.4z"/>
		<path class="st1" d="M98.9,29.1h-2.5v-5.2h-5.1v5.2h-2.5V16.6h2.5V22h5.1v-5.4h2.5V29.1z"/>
		<path class="st1" d="M110.6,25L110.6,25c0,1.4-0.4,2.4-1.2,3.2c-0.8,0.8-2,1.1-3.5,1.1c-1.5,0-2.7-0.5-3.6-1.4
			c-0.9-1-1.4-2.2-1.4-3.7v-2.5c0-1.5,0.4-2.8,1.3-3.7c0.9-1,2.1-1.5,3.5-1.5c1.5,0,2.7,0.4,3.6,1.1c0.9,0.7,1.3,1.8,1.3,3.1l0,0.1
			h-2.4c0-0.8-0.2-1.4-0.6-1.8c-0.4-0.4-1-0.6-1.8-0.6c-0.8,0-1.3,0.3-1.8,0.9c-0.4,0.6-0.6,1.4-0.6,2.3v2.5c0,1,0.2,1.7,0.7,2.4
			c0.4,0.6,1.1,0.9,1.9,0.9c0.8,0,1.3-0.2,1.7-0.6c0.4-0.4,0.6-1,0.6-1.8H110.6z"/>
		<path class="st1" d="M114.8,29l-1.4,2.7h-1.7l0.6-2.8v-2h2.4V29z"/>
		<path class="st1" d="M125.8,21l2.3-4.4h2.9l-3.7,6.2l3.9,6.3h-3l-2.4-4.5l-2.4,4.5h-2.9l3.8-6.3l-3.7-6.2h2.9L125.8,21z"/>
		<path class="st1" d="M142.4,24c0,1.5-0.5,2.8-1.5,3.8c-1,1-2.2,1.5-3.8,1.5c-1.5,0-2.8-0.5-3.8-1.5S132,25.5,132,24v-2.3
			c0-1.5,0.5-2.8,1.4-3.8s2.2-1.5,3.8-1.5c1.6,0,2.8,0.5,3.8,1.5s1.5,2.3,1.5,3.8V24z M138.8,22.6c0.2,0,0.4-0.1,0.6-0.2
			s0.4-0.3,0.5-0.4v-0.3c0-1-0.2-1.8-0.7-2.4c-0.5-0.6-1.2-0.9-2-0.9c-0.8,0-1.5,0.3-2,0.9s-0.7,1.4-0.7,2.4v0.6
			c0.2-0.2,0.4-0.4,0.6-0.5c0.2-0.1,0.5-0.2,0.8-0.2c0.4,0,0.9,0.2,1.4,0.5C138,22.5,138.5,22.6,138.8,22.6z M139.9,23.8
			c-0.2,0.2-0.4,0.3-0.6,0.4c-0.2,0.1-0.5,0.1-0.8,0.1c-0.5,0-1-0.2-1.5-0.5c-0.5-0.3-1-0.5-1.3-0.5c-0.3,0-0.5,0.1-0.7,0.3
			c-0.2,0.2-0.4,0.4-0.5,0.7c0,0.9,0.3,1.6,0.8,2.2c0.5,0.6,1.1,0.8,1.9,0.8c0.9,0,1.5-0.3,2-0.9s0.7-1.4,0.7-2.4V23.8z"/>
		<path class="st1" d="M155.9,32.2h-2.5v-3.1h-7.5v3.1h-2.5v-5h0.7c0.7,0,1.1-0.4,1.4-1.3s0.5-2.3,0.6-4.2l0.3-5.1h8.1v10.6h1.5
			V32.2z M148.6,21.7c-0.1,1.2-0.2,2.3-0.4,3.2c-0.2,0.9-0.5,1.7-0.8,2.3h4.6v-8.7h-3.2L148.6,21.7z"/>
		<path class="st1" d="M166.9,24c0,1.5-0.5,2.8-1.5,3.8c-1,1-2.2,1.5-3.8,1.5c-1.5,0-2.8-0.5-3.8-1.5s-1.4-2.3-1.4-3.8v-2.3
			c0-1.5,0.5-2.8,1.4-3.8s2.2-1.5,3.8-1.5c1.6,0,2.8,0.5,3.8,1.5c1,1,1.5,2.3,1.5,3.8V24z M163.3,22.6c0.2,0,0.4-0.1,0.6-0.2
			s0.4-0.3,0.5-0.4v-0.3c0-1-0.2-1.8-0.7-2.4c-0.5-0.6-1.2-0.9-2-0.9c-0.8,0-1.5,0.3-2,0.9s-0.7,1.4-0.7,2.4v0.6
			c0.2-0.2,0.4-0.4,0.6-0.5s0.5-0.2,0.8-0.2c0.4,0,0.9,0.2,1.4,0.5C162.5,22.5,163,22.6,163.3,22.6z M164.4,23.8
			c-0.2,0.2-0.4,0.3-0.6,0.4c-0.2,0.1-0.5,0.1-0.8,0.1c-0.5,0-1-0.2-1.5-0.5s-1-0.5-1.3-0.5c-0.3,0-0.5,0.1-0.7,0.3
			c-0.2,0.2-0.4,0.4-0.5,0.7c0,0.9,0.3,1.6,0.8,2.2c0.5,0.6,1.1,0.8,1.9,0.8c0.9,0,1.5-0.3,2-0.9s0.7-1.4,0.7-2.4V23.8z"/>
		<path class="st1" d="M179.1,24c0,1.5-0.5,2.8-1.5,3.8c-1,1-2.2,1.5-3.8,1.5c-1.5,0-2.8-0.5-3.8-1.5s-1.4-2.3-1.4-3.8v-2.3
			c0-1.5,0.5-2.8,1.4-3.8s2.2-1.5,3.8-1.5c1.6,0,2.8,0.5,3.8,1.5c1,1,1.5,2.3,1.5,3.8V24z M175.4,22.6c0.2,0,0.4-0.1,0.6-0.2
			s0.4-0.3,0.5-0.4v-0.3c0-1-0.2-1.8-0.7-2.4c-0.5-0.6-1.2-0.9-2-0.9c-0.8,0-1.5,0.3-2,0.9s-0.7,1.4-0.7,2.4v0.6
			c0.2-0.2,0.4-0.4,0.6-0.5s0.5-0.2,0.8-0.2c0.4,0,0.9,0.2,1.4,0.5C174.6,22.5,175.1,22.6,175.4,22.6z M176.6,23.8
			c-0.2,0.2-0.4,0.3-0.6,0.4c-0.2,0.1-0.5,0.1-0.8,0.1c-0.5,0-1-0.2-1.5-0.5s-1-0.5-1.3-0.5c-0.3,0-0.5,0.1-0.7,0.3
			c-0.2,0.2-0.4,0.4-0.5,0.7c0,0.9,0.3,1.6,0.8,2.2c0.5,0.6,1.1,0.8,1.9,0.8c0.9,0,1.5-0.3,2-0.9s0.7-1.4,0.7-2.4V23.8z"/>
		<path class="st1" d="M192,26.4h-4.1l-0.8,2.7h-2.6l4.2-12.5h2.6l4.2,12.5h-2.6L192,26.4z M188.5,24.4h2.8L190,20h-0.1L188.5,24.4z
			"/>
		<path class="st1" d="M205.6,23.9h-0.8v5.2h-2.5v-5.2h-0.8l-2.8,5.2h-3.1l3.9-6.7l-3.7-5.8h3.1l2.8,5.1h0.6v-5.1h2.5v5.1h0.6
			l2.8-5.1h3.1l-3.7,5.8l3.9,6.8h-3.1L205.6,23.9z"/>
		<path class="st1" d="M223.6,26.4h-4.1l-0.8,2.7h-2.6l4.2-12.5h2.6l4.2,12.5h-2.6L223.6,26.4z M220.2,24.4h2.8l-1.4-4.4h-0.1
			L220.2,24.4z"/>
		<path class="st1" d="M232.7,21l2.3-4.4h2.9l-3.7,6.2l3.9,6.3h-3l-2.4-4.5l-2.4,4.5h-2.9l3.8-6.3l-3.7-6.2h2.9L232.7,21z"/>
		<path class="st1" d="M243.8,22.1l0.2,0.8l0.1,0l2.6-6.3h2.7l-4.6,10.1c-0.4,0.8-0.8,1.4-1.3,1.9c-0.5,0.4-1.2,0.7-2.1,0.7
			c-0.3,0-0.7,0-0.9-0.1c-0.3-0.1-0.6-0.1-0.9-0.3l0.3-1.8c0.3,0.1,0.5,0.1,0.7,0.2c0.2,0,0.4,0.1,0.6,0.1c0.5,0,0.8-0.1,1.1-0.3
			c0.3-0.2,0.4-0.5,0.6-0.9l0.2-0.5l-4.4-9.1h2.7L243.8,22.1z"/>
		<path class="st1" d="M258.3,16.6h2.5v12.5h-2.5v-8.4l-0.1,0l-5.1,8.4h-2.5V16.6h2.5v8.4l0.1,0L258.3,16.6z M258.7,12.8L258.7,12.8
			c0,0.8-0.2,1.4-0.7,1.8c-0.5,0.5-1.3,0.7-2.2,0.7c-0.9,0-1.6-0.2-2.2-0.7s-0.8-1.1-0.8-1.8l0-0.1h1.8c0,0.3,0.1,0.6,0.3,0.7
			s0.4,0.3,0.8,0.3c0.4,0,0.6-0.1,0.8-0.3s0.3-0.4,0.3-0.7H258.7z"/>
		<path class="st1" d="M70.8,42.1l2.3-4.4h2.9l-3.7,6.2l3.9,6.3h-3l-2.4-4.5l-2.4,4.5h-2.9l3.8-6.3l-3.7-6.2h2.9L70.8,42.1z"/>
		<path class="st1" d="M87.5,45.1c0,1.5-0.5,2.8-1.5,3.8c-1,1-2.2,1.5-3.8,1.5c-1.5,0-2.8-0.5-3.8-1.5S77,46.6,77,45.1v-2.3
			c0-1.5,0.5-2.8,1.4-3.8s2.2-1.5,3.8-1.5c1.6,0,2.8,0.5,3.8,1.5s1.5,2.3,1.5,3.8V45.1z M83.9,43.7c0.2,0,0.4-0.1,0.6-0.2
			c0.2-0.1,0.4-0.3,0.5-0.4v-0.3c0-1-0.2-1.8-0.7-2.4c-0.5-0.6-1.2-0.9-2-0.9c-0.8,0-1.5,0.3-2,0.9c-0.5,0.6-0.7,1.4-0.7,2.4v0.6
			c0.2-0.2,0.4-0.4,0.6-0.5c0.2-0.1,0.5-0.2,0.8-0.2c0.4,0,0.9,0.2,1.4,0.5C83,43.6,83.5,43.7,83.9,43.7z M85,44.9
			c-0.2,0.2-0.4,0.3-0.6,0.4s-0.5,0.1-0.8,0.1c-0.5,0-1-0.2-1.5-0.5c-0.5-0.3-1-0.5-1.3-0.5c-0.3,0-0.5,0.1-0.7,0.3
			c-0.2,0.2-0.4,0.4-0.5,0.7c0,0.9,0.3,1.6,0.8,2.2c0.5,0.6,1.1,0.8,1.9,0.8c0.9,0,1.5-0.3,2-0.9c0.5-0.6,0.7-1.4,0.7-2.4V44.9z"/>
		<path class="st1" d="M99.6,50.2h-2.5V45H92v5.2h-2.5V37.7H92v5.4h5.1v-5.4h2.5V50.2z"/>
		<path class="st1" d="M110,39.6h-5.6v10.6h-2.5V37.7h8.2V39.6z"/>
		<path class="st1" d="M121.2,45.1c0,1.5-0.5,2.8-1.5,3.8c-1,1-2.2,1.5-3.8,1.5c-1.5,0-2.8-0.5-3.8-1.5s-1.4-2.3-1.4-3.8v-2.3
			c0-1.5,0.5-2.8,1.4-3.8s2.2-1.5,3.8-1.5c1.6,0,2.8,0.5,3.8,1.5s1.5,2.3,1.5,3.8V45.1z M117.6,43.7c0.2,0,0.4-0.1,0.6-0.2
			c0.2-0.1,0.4-0.3,0.5-0.4v-0.3c0-1-0.2-1.8-0.7-2.4c-0.5-0.6-1.2-0.9-2-0.9c-0.8,0-1.5,0.3-2,0.9c-0.5,0.6-0.7,1.4-0.7,2.4v0.6
			c0.2-0.2,0.4-0.4,0.6-0.5c0.2-0.1,0.5-0.2,0.8-0.2c0.4,0,0.9,0.2,1.4,0.5C116.8,43.6,117.2,43.7,117.6,43.7z M118.7,44.9
			c-0.2,0.2-0.4,0.3-0.6,0.4s-0.5,0.1-0.8,0.1c-0.5,0-1-0.2-1.5-0.5c-0.5-0.3-1-0.5-1.3-0.5c-0.3,0-0.5,0.1-0.7,0.3
			c-0.2,0.2-0.4,0.4-0.5,0.7c0,0.9,0.3,1.6,0.8,2.2c0.5,0.6,1.1,0.8,1.9,0.8c0.9,0,1.5-0.3,2-0.9c0.5-0.6,0.7-1.4,0.7-2.4V44.9z"/>
		<path class="st1" d="M133.3,50.2h-2.5V45h-5.1v5.2h-2.5V37.7h2.5v5.4h5.1v-5.4h2.5V50.2z"/>
		<path class="st1" d="M144.4,43.5L144.4,43.5l2.8-5.8h2.8l-4.3,8.1v4.4h-2.5v-4.5l-4.2-8h2.8L144.4,43.5z"/>
		<path class="st1" d="M158.8,37.7h2.5v12.5h-2.5v-8.4l-0.1,0l-5.1,8.4h-2.5V37.7h2.5v8.4l0.1,0L158.8,37.7z M159.1,33.9L159.1,33.9
			c0,0.8-0.2,1.4-0.7,1.8c-0.5,0.5-1.3,0.7-2.2,0.7c-0.9,0-1.6-0.2-2.2-0.7c-0.5-0.5-0.8-1.1-0.8-1.8l0-0.1h1.8
			c0,0.3,0.1,0.6,0.3,0.7c0.2,0.2,0.4,0.3,0.8,0.3c0.4,0,0.6-0.1,0.8-0.3c0.2-0.2,0.3-0.4,0.3-0.7H159.1z"/>
		<path class="st1" d="M173.6,37.7v12.5h-2.5V39.6h-3.6v3.8c0,2.4-0.4,4.2-1.1,5.2c-0.7,1.1-1.9,1.6-3.4,1.6h-0.4v-1.9h0.3
			c0.8,0,1.3-0.3,1.6-1c0.3-0.7,0.4-2,0.4-3.8v-5.7H173.6z"/>
		<path class="st1" d="M187.6,53.3h-2.5v-3.1h-7.5v3.1h-2.5v-5h0.7c0.7,0,1.1-0.4,1.4-1.3c0.3-0.9,0.5-2.3,0.6-4.2l0.3-5.1h8.1v10.6
			h1.5V53.3z M180.3,42.8c-0.1,1.2-0.2,2.3-0.4,3.2c-0.2,0.9-0.5,1.7-0.8,2.3h4.6v-8.7h-3.2L180.3,42.8z"/>
		<path class="st1" d="M188.7,50.2V37.7h4.1c1.5,0,2.6,0.3,3.4,0.9s1.2,1.4,1.2,2.6c0,0.6-0.1,1.1-0.4,1.5s-0.7,0.8-1.3,1
			c0.8,0.1,1.4,0.5,1.8,1s0.6,1.2,0.6,1.9c0,1.2-0.4,2.1-1.2,2.7c-0.8,0.6-1.9,0.9-3.4,0.9H188.7z M191.2,43h1.7
			c0.7,0,1.2-0.1,1.5-0.4c0.4-0.3,0.5-0.7,0.5-1.2c0-0.6-0.2-1-0.5-1.3c-0.4-0.3-0.9-0.4-1.6-0.4h-1.6V43z M191.2,44.7v3.6h2.3
			c0.7,0,1.2-0.1,1.5-0.4s0.5-0.7,0.5-1.3c0-0.6-0.2-1.1-0.5-1.4c-0.3-0.3-0.9-0.5-1.6-0.5H191.2z"/>
		<path class="st1" d="M199.6,41.9L199.6,41.9c0-1.4,0.3-2.4,1.2-3.2c0.8-0.8,2-1.1,3.4-1.1c1.4,0,2.6,0.5,3.5,1.5
			c0.9,1,1.3,2.2,1.3,3.7v2.5c0,1.5-0.4,2.8-1.3,3.7c-0.9,1-2.1,1.4-3.5,1.4c-1.5,0-2.6-0.4-3.4-1.1s-1.2-1.8-1.2-3.2l0-0.1h2.4
			c0,0.8,0.2,1.4,0.5,1.8c0.3,0.4,0.9,0.6,1.7,0.6c0.7,0,1.3-0.3,1.7-0.9c0.4-0.6,0.6-1.4,0.6-2.4v-0.4h-3.8v-1.9h3.8v-0.2
			c0-1-0.2-1.7-0.6-2.4c-0.4-0.6-1-0.9-1.7-0.9c-0.8,0-1.3,0.2-1.6,0.6s-0.5,1-0.5,1.8H199.6z"/>
		<path class="st1" d="M213.5,45.7v4.5H211V37.7h4.8c1.4,0,2.6,0.4,3.4,1.1s1.2,1.7,1.2,2.9c0,1.2-0.4,2.2-1.2,2.9s-2,1.1-3.4,1.1
			H213.5z M213.5,43.8h2.3c0.7,0,1.2-0.2,1.6-0.6c0.4-0.4,0.5-0.9,0.5-1.5c0-0.6-0.2-1.1-0.5-1.5s-0.9-0.6-1.6-0.6h-2.3V43.8z"/>
		<path class="st1" d="M229.7,37.7h2.5v12.5h-2.5v-8.4l-0.1,0l-5.1,8.4h-2.5V37.7h2.5v8.4l0.1,0L229.7,37.7z"/>
		<path class="st1" d="M242,37.7h2.5v12.5H242v-8.4l-0.1,0l-5.1,8.4h-2.5V37.7h2.5v8.4l0.1,0L242,37.7z M242.4,33.9L242.4,33.9
			c0,0.8-0.2,1.4-0.7,1.8c-0.5,0.5-1.3,0.7-2.2,0.7c-0.9,0-1.6-0.2-2.2-0.7c-0.5-0.5-0.8-1.1-0.8-1.8l0-0.1h1.8
			c0,0.3,0.1,0.6,0.3,0.7c0.2,0.2,0.4,0.3,0.8,0.3c0.4,0,0.6-0.1,0.8-0.3c0.2-0.2,0.3-0.4,0.3-0.7H242.4z"/>
		<path class="st1" d="M256.9,50.2h-2.5V45h-5.1v5.2h-2.5V37.7h2.5v5.4h5.1v-5.4h2.5V50.2z"/>
		<path class="st1" d="M264.9,50.2h-2.7l2.7-5.6c-0.7-0.3-1.1-0.8-1.5-1.3c-0.3-0.5-0.5-1.2-0.5-1.9c0-1.2,0.4-2.1,1.2-2.7
			s1.9-1,3.4-1h4.3v12.5h-2.5v-4.8h-2.1L264.9,50.2z M269.4,39.6h-1.8c-0.7,0-1.2,0.2-1.6,0.5c-0.4,0.3-0.5,0.8-0.5,1.4
			s0.2,1.1,0.5,1.5c0.4,0.4,0.9,0.6,1.6,0.6h1.8V39.6z"/>
		<path class="st1" d="M280.5,47.5h-4.1l-0.8,2.7H273l4.2-12.5h2.6l4.2,12.5h-2.6L280.5,47.5z M277.1,45.6h2.8l-1.4-4.4h-0.1
			L277.1,45.6z"/>
		<path class="st1" d="M291.6,46.9L291.6,46.9l3.3-9.2h3.3v12.5h-2.5v-8.5l-0.1,0l-3.1,8.6h-1.7l-3.1-8.6l-0.1,0v8.6h-2.5V37.7h3.3
			L291.6,46.9z"/>
	</g>
</g>
</svg>
