<?xml version="1.0" encoding="utf-8"?>
<!-- Generator: Adobe Illustrator 24.0.1, SVG Export Plug-In . SVG Version: 6.00 Build 0)  -->
<svg version="1.1" id="Layer_1" xmlns="http://www.w3.org/2000/svg" xmlns:xlink="http://www.w3.org/1999/xlink" x="0px" y="0px"
	 viewBox="0 0 54.1 54.1" style="enable-background:new 0 0 54.1 54.1;" xml:space="preserve">
<style type="text/css">
	.st0{fill-rule:evenodd;clip-rule:evenodd;fill:#152A84;}
	.st1{fill:#FFFFFF;}
	.st2{fill:#F1C218;}
</style>
<g>
	<g>
		<path class="st0" d="M27.1,54.1c-8.8,0-17.6,0-26.5,0c-0.7,0-0.6,0.1-0.6-0.6C0,35.9,0,18.3,0,0.6C0-0.1-0.1,0,0.6,0
			c17.6,0,35.2,0,52.9,0c0.7,0,0.6-0.1,0.6,0.6c0,17.6,0,35.3,0,52.9c0,0.7,0.1,0.6-0.6,0.6C44.7,54.1,35.9,54.1,27.1,54.1z"/>
		<g>
			<path class="st1" d="M11.1,42.1C11.1,42.1,11.1,42.1,11.1,42.1C11.1,42.1,11.1,42.1,11.1,42.1C11,42.2,11,42.2,11,42.2
				s-0.1,0-0.2,0c-0.1,0-0.1,0-0.2,0s-0.1,0-0.1,0c0,0,0,0-0.1,0c0,0,0,0,0-0.1v-3h0l-1.1,3c0,0,0,0,0,0.1c0,0,0,0-0.1,0
				c0,0-0.1,0-0.1,0s-0.1,0-0.2,0s-0.1,0-0.2,0c0,0-0.1,0-0.1,0c0,0-0.1,0-0.1,0c0,0,0,0,0-0.1l-1-3h0v3c0,0,0,0,0,0.1
				c0,0,0,0-0.1,0c0,0-0.1,0-0.1,0s-0.1,0-0.2,0c-0.1,0-0.1,0-0.2,0s-0.1,0-0.1,0c0,0,0,0-0.1,0c0,0,0,0,0-0.1v-3.2
				c0-0.1,0-0.2,0.1-0.2c0.1-0.1,0.1-0.1,0.2-0.1h0.5c0.1,0,0.2,0,0.2,0c0.1,0,0.1,0,0.2,0.1c0,0,0.1,0.1,0.1,0.1
				c0,0.1,0.1,0.1,0.1,0.2L9,41.1h0L9.9,39c0-0.1,0.1-0.1,0.1-0.2c0-0.1,0.1-0.1,0.1-0.1c0,0,0.1-0.1,0.1-0.1c0.1,0,0.1,0,0.2,0h0.5
				c0.1,0,0.1,0,0.1,0c0,0,0.1,0,0.1,0.1s0,0.1,0.1,0.1c0,0,0,0.1,0,0.1V42.1z"/>
			<path class="st1" d="M15.2,40.3c0,0.3,0,0.6-0.1,0.8c-0.1,0.2-0.2,0.4-0.3,0.6c-0.1,0.2-0.3,0.3-0.5,0.4
				c-0.2,0.1-0.5,0.1-0.8,0.1c-0.3,0-0.5,0-0.7-0.1c-0.2-0.1-0.4-0.2-0.5-0.3c-0.1-0.2-0.2-0.3-0.3-0.6c-0.1-0.2-0.1-0.5-0.1-0.8
				c0-0.3,0-0.6,0.1-0.8c0.1-0.2,0.2-0.4,0.3-0.6c0.1-0.2,0.3-0.3,0.5-0.4c0.2-0.1,0.5-0.1,0.8-0.1c0.3,0,0.5,0,0.7,0.1
				c0.2,0.1,0.4,0.2,0.5,0.3c0.1,0.2,0.2,0.3,0.3,0.6C15.2,39.7,15.2,40,15.2,40.3z M14.4,40.3c0-0.2,0-0.4,0-0.5
				c0-0.2-0.1-0.3-0.2-0.4c-0.1-0.1-0.2-0.2-0.3-0.3c-0.1-0.1-0.3-0.1-0.4-0.1c-0.2,0-0.3,0-0.5,0.1s-0.2,0.2-0.3,0.3
				s-0.1,0.2-0.2,0.4s0,0.3,0,0.5c0,0.2,0,0.4,0,0.5c0,0.2,0.1,0.3,0.2,0.4c0.1,0.1,0.2,0.2,0.3,0.3c0.1,0.1,0.3,0.1,0.5,0.1
				c0.2,0,0.3,0,0.5-0.1c0.1-0.1,0.2-0.2,0.3-0.3c0.1-0.1,0.1-0.3,0.2-0.4S14.4,40.5,14.4,40.3z"/>
			<path class="st1" d="M18.7,42.1C18.7,42.1,18.7,42.1,18.7,42.1C18.6,42.1,18.6,42.1,18.7,42.1c-0.1,0.1-0.1,0.1-0.2,0.1
				s-0.1,0-0.2,0c-0.1,0-0.1,0-0.2,0s-0.1,0-0.1,0c0,0,0,0-0.1,0c0,0,0,0,0-0.1v-1.5h-1.4v1.5c0,0,0,0,0,0.1c0,0,0,0-0.1,0
				c0,0-0.1,0-0.1,0s-0.1,0-0.2,0c-0.1,0-0.1,0-0.2,0c0,0-0.1,0-0.1,0c0,0,0,0-0.1,0c0,0,0,0,0-0.1v-3.4c0,0,0,0,0-0.1s0,0,0.1,0
				c0,0,0.1,0,0.1,0c0,0,0.1,0,0.2,0c0.1,0,0.1,0,0.2,0c0,0,0.1,0,0.1,0c0,0,0,0,0.1,0s0,0,0,0.1V40h1.4v-1.3c0,0,0,0,0-0.1
				c0,0,0,0,0.1,0c0,0,0.1,0,0.1,0c0,0,0.1,0,0.2,0c0.1,0,0.1,0,0.2,0c0,0,0.1,0,0.1,0c0,0,0,0,0.1,0c0,0,0,0,0,0.1V42.1z"/>
			<path class="st1" d="M21.5,38.8c0,0.1,0,0.1,0,0.1c0,0,0,0.1,0,0.1s0,0,0,0c0,0,0,0,0,0h-1.2v2.9c0,0,0,0,0,0c0,0,0,0-0.1,0
				c0,0-0.1,0-0.1,0c0,0-0.1,0-0.2,0c-0.1,0-0.1,0-0.2,0c0,0-0.1,0-0.1,0c0,0,0,0-0.1,0c0,0,0,0,0,0v-3.3c0-0.1,0-0.1,0.1-0.2
				c0,0,0.1-0.1,0.2-0.1h1.7c0,0,0.1,0,0.1,0.1C21.5,38.6,21.5,38.7,21.5,38.8z"/>
			<path class="st1" d="M25,40.3c0,0.3,0,0.6-0.1,0.8c-0.1,0.2-0.2,0.4-0.3,0.6c-0.1,0.2-0.3,0.3-0.5,0.4c-0.2,0.1-0.5,0.1-0.8,0.1
				c-0.3,0-0.5,0-0.7-0.1c-0.2-0.1-0.4-0.2-0.5-0.3c-0.1-0.2-0.2-0.3-0.3-0.6c-0.1-0.2-0.1-0.5-0.1-0.8c0-0.3,0-0.6,0.1-0.8
				c0.1-0.2,0.2-0.4,0.3-0.6c0.1-0.2,0.3-0.3,0.5-0.4c0.2-0.1,0.5-0.1,0.8-0.1c0.3,0,0.5,0,0.7,0.1c0.2,0.1,0.4,0.2,0.5,0.3
				c0.1,0.2,0.2,0.3,0.3,0.6C25,39.7,25,40,25,40.3z M24.3,40.3c0-0.2,0-0.4,0-0.5c0-0.2-0.1-0.3-0.2-0.4c-0.1-0.1-0.2-0.2-0.3-0.3
				c-0.1-0.1-0.3-0.1-0.4-0.1c-0.2,0-0.3,0-0.5,0.1s-0.2,0.2-0.3,0.3s-0.1,0.2-0.2,0.4s0,0.3,0,0.5c0,0.2,0,0.4,0,0.5
				c0,0.2,0.1,0.3,0.2,0.4c0.1,0.1,0.2,0.2,0.3,0.3c0.1,0.1,0.3,0.1,0.5,0.1c0.2,0,0.3,0,0.5-0.1c0.1-0.1,0.2-0.2,0.3-0.3
				c0.1-0.1,0.1-0.3,0.2-0.4S24.3,40.5,24.3,40.3z"/>
			<path class="st1" d="M28.3,42.1C28.3,42.1,28.3,42.1,28.3,42.1C28.3,42.1,28.3,42.1,28.3,42.1c-0.1,0.1-0.1,0.1-0.2,0.1
				c0,0-0.1,0-0.2,0c-0.1,0-0.1,0-0.2,0c0,0-0.1,0-0.1,0c0,0,0,0-0.1,0c0,0,0,0,0,0v-2.9h-0.8c-0.1,0.4-0.1,0.8-0.2,1.1
				c-0.1,0.3-0.1,0.6-0.2,0.8c-0.1,0.2-0.1,0.4-0.2,0.6c-0.1,0.1-0.2,0.3-0.3,0.3c-0.1,0.1-0.2,0.1-0.3,0.2c-0.1,0-0.3,0-0.4,0
				c0,0-0.1,0-0.1,0c0,0,0,0,0,0s0,0,0-0.1c0,0,0-0.1,0-0.1c0-0.1,0-0.1,0-0.2s0-0.1,0-0.1s0,0,0-0.1c0,0,0,0,0.1,0
				c0.1,0,0.1,0,0.2,0s0.1-0.1,0.2-0.1c0-0.1,0.1-0.2,0.1-0.3c0-0.1,0.1-0.3,0.1-0.5c0-0.2,0.1-0.5,0.1-0.7s0.1-0.6,0.1-1.1
				c0-0.1,0-0.2,0.1-0.2c0,0,0.1-0.1,0.1-0.1h1.8c0.1,0,0.1,0,0.2,0.1c0,0,0.1,0.1,0.1,0.2V42.1z"/>
			<path class="st1" d="M32.1,41.2c-0.1,0.2-0.2,0.4-0.2,0.5s-0.2,0.2-0.3,0.3c-0.1,0.1-0.2,0.1-0.3,0.2c-0.1,0-0.2,0-0.4,0
				c-0.1,0-0.1,0-0.1,0c0,0-0.1,0-0.1,0c0,0-0.1,0-0.1,0c0,0-0.1,0-0.1,0c0,0,0,0,0,0c0,0,0,0,0-0.1c0,0,0-0.1,0-0.1
				c0,0,0-0.1,0-0.2c0-0.1,0-0.2,0-0.2c0,0,0-0.1,0.1-0.1c0,0,0,0,0.1,0c0,0,0,0,0.1,0c0,0,0.1,0,0.1,0c0,0,0.1,0,0.1,0
				c0,0,0.1,0,0.1,0c0,0,0.1,0,0.1,0c0,0,0.1-0.1,0.1-0.1c0,0,0.1-0.1,0.1-0.2l-1.2-2.4c0-0.1,0-0.1,0-0.1c0,0,0-0.1,0-0.1
				s0.1,0,0.1,0s0.1,0,0.2,0c0.1,0,0.2,0,0.2,0c0.1,0,0.1,0,0.1,0c0,0,0.1,0,0.1,0.1c0,0,0,0.1,0.1,0.1l0.5,1.1
				c0.1,0.1,0.1,0.2,0.2,0.4c0.1,0.1,0.1,0.2,0.1,0.4h0c0-0.1,0.1-0.2,0.1-0.4c0-0.1,0.1-0.2,0.1-0.4l0.4-1.1c0,0,0,0,0-0.1
				s0,0,0.1,0s0.1,0,0.1,0s0.1,0,0.2,0c0.1,0,0.2,0,0.2,0c0.1,0,0.1,0,0.1,0c0,0,0,0,0,0.1c0,0,0,0.1,0,0.1L32.1,41.2z"/>
			<path class="st1" d="M36,42.1C36,42.1,35.9,42.1,36,42.1C35.9,42.1,35.9,42.1,36,42.1c-0.1,0.1-0.1,0.1-0.2,0.1c0,0-0.1,0-0.2,0
				c-0.1,0-0.1,0-0.2,0c0,0-0.1,0-0.1,0c0,0,0,0-0.1,0c0,0,0,0,0,0v-2.9h-0.8c-0.1,0.4-0.1,0.8-0.2,1.1c-0.1,0.3-0.1,0.6-0.2,0.8
				c-0.1,0.2-0.1,0.4-0.2,0.6c-0.1,0.1-0.2,0.3-0.3,0.3c-0.1,0.1-0.2,0.1-0.3,0.2c-0.1,0-0.3,0-0.4,0c0,0-0.1,0-0.1,0c0,0,0,0,0,0
				s0,0,0-0.1c0,0,0-0.1,0-0.1c0-0.1,0-0.1,0-0.2s0-0.1,0-0.1s0,0,0-0.1c0,0,0,0,0.1,0c0.1,0,0.1,0,0.2,0s0.1-0.1,0.2-0.1
				c0-0.1,0.1-0.2,0.1-0.3c0-0.1,0.1-0.3,0.1-0.5c0-0.2,0.1-0.5,0.1-0.7s0.1-0.6,0.1-1.1c0-0.1,0-0.2,0.1-0.2c0,0,0.1-0.1,0.1-0.1
				h1.8c0.1,0,0.1,0,0.2,0.1c0,0,0.1,0.1,0.1,0.2V42.1z"/>
			<path class="st1" d="M39.3,41.6c0,0,0,0.1,0,0.1c0,0,0,0.1,0,0.1c0,0,0,0,0,0.1c0,0,0,0,0,0.1c0,0-0.1,0-0.1,0.1
				c-0.1,0-0.1,0.1-0.2,0.1c-0.1,0-0.2,0.1-0.3,0.1s-0.2,0-0.4,0c-0.2,0-0.5,0-0.7-0.1c-0.2-0.1-0.4-0.2-0.5-0.3s-0.2-0.3-0.3-0.6
				s-0.1-0.5-0.1-0.8c0-0.3,0-0.6,0.1-0.8c0.1-0.2,0.2-0.4,0.3-0.6c0.1-0.2,0.3-0.3,0.5-0.4c0.2-0.1,0.4-0.1,0.7-0.1
				c0.1,0,0.2,0,0.3,0c0.1,0,0.2,0,0.3,0.1c0.1,0,0.2,0.1,0.2,0.1c0.1,0,0.1,0.1,0.1,0.1s0,0,0.1,0.1c0,0,0,0,0,0.1c0,0,0,0.1,0,0.1
				c0,0,0,0.1,0,0.1c0,0.1,0,0.1,0,0.1c0,0,0,0.1,0,0.1s0,0,0,0.1c0,0,0,0,0,0c0,0-0.1,0-0.1,0c0,0-0.1-0.1-0.2-0.1
				c-0.1,0-0.1-0.1-0.2-0.1c-0.1,0-0.2,0-0.3,0c-0.1,0-0.3,0-0.4,0.1c-0.1,0.1-0.2,0.1-0.3,0.3s-0.1,0.2-0.2,0.4s-0.1,0.3-0.1,0.5
				c0,0.2,0,0.4,0.1,0.6s0.1,0.3,0.2,0.4c0.1,0.1,0.2,0.2,0.3,0.2c0.1,0,0.2,0.1,0.4,0.1c0.1,0,0.2,0,0.3,0c0.1,0,0.2-0.1,0.2-0.1
				c0.1,0,0.1-0.1,0.2-0.1s0.1,0,0.1,0c0,0,0,0,0,0c0,0,0,0,0,0s0,0.1,0,0.1C39.3,41.5,39.3,41.5,39.3,41.6z"/>
			<path class="st1" d="M42.4,41c0,0.2,0,0.3-0.1,0.5c-0.1,0.1-0.1,0.3-0.3,0.4c-0.1,0.1-0.3,0.2-0.4,0.3c-0.2,0.1-0.4,0.1-0.8,0.1
				H40c0,0-0.1,0-0.1,0c0,0-0.1,0-0.1,0c0,0,0,0,0-0.1c0,0,0-0.1,0-0.1v-3.3c0,0,0,0,0,0c0,0,0,0,0.1,0c0,0,0.1,0,0.1,0s0.1,0,0.2,0
				c0.1,0,0.1,0,0.2,0s0.1,0,0.1,0c0,0,0,0,0.1,0c0,0,0,0,0,0v1.3H41c0.3,0,0.5,0,0.6,0.1c0.2,0,0.3,0.1,0.4,0.2s0.2,0.2,0.3,0.3
				S42.4,40.8,42.4,41z M41.6,41c0-0.1,0-0.2,0-0.2s-0.1-0.1-0.1-0.2c-0.1,0-0.1-0.1-0.2-0.1c-0.1,0-0.2,0-0.4,0h-0.4v1.2h0.4
				c0.2,0,0.3,0,0.4-0.1c0.1,0,0.2-0.1,0.2-0.1c0-0.1,0.1-0.1,0.1-0.2C41.6,41.2,41.6,41.1,41.6,41z M43.6,42.1
				C43.6,42.1,43.6,42.1,43.6,42.1C43.6,42.1,43.5,42.1,43.6,42.1c-0.1,0.1-0.1,0.1-0.2,0.1c0,0-0.1,0-0.2,0c-0.1,0-0.1,0-0.2,0
				c0,0-0.1,0-0.1,0c0,0,0,0-0.1,0c0,0,0,0,0,0v-3.4c0,0,0,0,0,0c0,0,0,0,0.1,0c0,0,0.1,0,0.1,0c0,0,0.1,0,0.2,0c0.1,0,0.1,0,0.2,0
				c0,0,0.1,0,0.1,0c0,0,0,0,0.1,0c0,0,0,0,0,0V42.1z"/>
			<path class="st1" d="M47.2,42.1C47.2,42.1,47.2,42.1,47.2,42.1C47.2,42.1,47.2,42.1,47.2,42.1c-0.1,0.1-0.1,0.1-0.2,0.1
				s-0.1,0-0.2,0c-0.1,0-0.1,0-0.2,0s-0.1,0-0.1,0c0,0,0,0-0.1,0c0,0,0,0,0-0.1v-1.5h-1.4v1.5c0,0,0,0,0,0.1c0,0,0,0-0.1,0
				c0,0-0.1,0-0.1,0s-0.1,0-0.2,0c-0.1,0-0.1,0-0.2,0s-0.1,0-0.1,0c0,0,0,0-0.1,0c0,0,0,0,0-0.1v-3.4c0,0,0,0,0-0.1s0,0,0.1,0
				c0,0,0.1,0,0.1,0c0,0,0.1,0,0.2,0c0.1,0,0.1,0,0.2,0c0,0,0.1,0,0.1,0c0,0,0,0,0.1,0s0,0,0,0.1V40h1.4v-1.3c0,0,0,0,0-0.1
				c0,0,0,0,0.1,0c0,0,0.1,0,0.1,0c0,0,0.1,0,0.2,0c0.1,0,0.1,0,0.2,0c0,0,0.1,0,0.1,0c0,0,0,0,0.1,0c0,0,0,0,0,0.1V42.1z"/>
			<path class="st1" d="M10.3,47c0,0.2,0,0.3-0.1,0.5c-0.1,0.1-0.2,0.3-0.3,0.4C9.7,48,9.6,48,9.4,48.1c-0.2,0-0.4,0.1-0.6,0.1
				c-0.1,0-0.2,0-0.3,0c-0.1,0-0.2,0-0.3-0.1C8.1,48,8.1,48,8,48c0,0-0.1,0-0.1-0.1s0,0,0,0c0,0,0,0,0-0.1c0,0,0-0.1,0-0.1
				s0-0.1,0-0.2c0-0.1,0-0.1,0-0.2c0,0,0,0,0.1,0c0,0,0.1,0,0.1,0s0.1,0,0.2,0.1c0.1,0,0.1,0.1,0.2,0.1c0.1,0,0.2,0,0.3,0
				c0.1,0,0.2,0,0.3,0c0.1,0,0.2-0.1,0.2-0.1c0.1,0,0.1-0.1,0.1-0.2c0-0.1,0-0.1,0-0.2c0-0.1,0-0.2,0-0.2c0-0.1-0.1-0.1-0.1-0.2
				c-0.1,0-0.1-0.1-0.2-0.1c-0.1,0-0.2,0-0.3,0H8.3c0,0-0.1,0-0.1,0c0,0,0,0,0,0s0,0,0-0.1c0,0,0-0.1,0-0.1c0-0.1,0-0.1,0-0.1
				c0,0,0-0.1,0-0.1s0,0,0,0c0,0,0,0,0.1,0h0.4c0.1,0,0.2,0,0.3,0s0.2-0.1,0.2-0.1c0.1,0,0.1-0.1,0.1-0.2c0-0.1,0-0.1,0-0.2
				c0-0.1,0-0.1,0-0.2c0-0.1-0.1-0.1-0.1-0.1c0,0-0.1-0.1-0.2-0.1s-0.2,0-0.2,0c-0.1,0-0.2,0-0.3,0s-0.2,0.1-0.2,0.1
				c-0.1,0-0.1,0.1-0.2,0.1s-0.1,0-0.1,0c0,0,0,0,0,0c0,0,0,0,0,0c0,0,0,0,0-0.1c0,0,0-0.1,0-0.1c0,0,0-0.1,0-0.1c0,0,0-0.1,0-0.1
				c0,0,0,0,0-0.1s0,0,0-0.1s0.1,0,0.1-0.1c0.1,0,0.1-0.1,0.2-0.1s0.2,0,0.3-0.1s0.2,0,0.4,0c0.2,0,0.4,0,0.5,0.1
				c0.1,0,0.3,0.1,0.4,0.2c0.1,0.1,0.2,0.2,0.2,0.3c0,0.1,0.1,0.2,0.1,0.4c0,0.1,0,0.2,0,0.3c0,0.1-0.1,0.2-0.1,0.3
				C9.9,46,9.8,46,9.8,46.1c-0.1,0-0.2,0.1-0.3,0.1v0c0.1,0,0.2,0,0.3,0.1c0.1,0,0.2,0.1,0.2,0.2c0.1,0.1,0.1,0.2,0.2,0.3
				C10.2,46.8,10.3,46.9,10.3,47z"/>
			<path class="st1" d="M13.8,47.8c0,0.1,0,0.1,0,0.2c0,0,0,0.1,0,0.1c0,0-0.1,0-0.1,0c-0.1,0-0.1,0-0.2,0c-0.1,0-0.2,0-0.2,0
				s-0.1,0-0.1,0c0,0,0,0-0.1,0s0,0,0-0.1l-0.2-0.7h-1.4L11.2,48c0,0,0,0,0,0.1s0,0-0.1,0c0,0-0.1,0-0.1,0c0,0-0.1,0-0.2,0
				c-0.1,0-0.2,0-0.2,0c0,0-0.1,0-0.1,0c0,0,0-0.1,0-0.1c0,0,0-0.1,0-0.2l1.1-3.2c0,0,0-0.1,0-0.1c0,0,0,0,0.1,0c0,0,0.1,0,0.1,0
				s0.1,0,0.2,0c0.1,0,0.2,0,0.3,0c0.1,0,0.1,0,0.2,0c0,0,0.1,0,0.1,0c0,0,0,0,0,0.1L13.8,47.8z M12.1,45.2L12.1,45.2l-0.5,1.5h1
				L12.1,45.2z"/>
			<path class="st1" d="M16.6,47.5c0,0,0,0.1,0,0.1c0,0,0,0.1,0,0.1c0,0,0,0,0,0.1c0,0,0,0,0,0.1c0,0-0.1,0-0.1,0.1
				c-0.1,0-0.1,0.1-0.2,0.1c-0.1,0-0.2,0.1-0.3,0.1c-0.1,0-0.2,0-0.4,0c-0.2,0-0.5,0-0.7-0.1c-0.2-0.1-0.4-0.2-0.5-0.3
				s-0.2-0.3-0.3-0.6s-0.1-0.5-0.1-0.8c0-0.3,0-0.6,0.1-0.8c0.1-0.2,0.2-0.4,0.3-0.6c0.1-0.2,0.3-0.3,0.5-0.4
				c0.2-0.1,0.4-0.1,0.7-0.1c0.1,0,0.2,0,0.3,0c0.1,0,0.2,0,0.3,0.1c0.1,0,0.2,0.1,0.2,0.1c0.1,0,0.1,0.1,0.1,0.1s0,0,0.1,0.1
				c0,0,0,0,0,0.1c0,0,0,0.1,0,0.1c0,0,0,0.1,0,0.1c0,0.1,0,0.1,0,0.1c0,0,0,0.1,0,0.1s0,0,0,0.1c0,0,0,0,0,0c0,0-0.1,0-0.1,0
				c0,0-0.1-0.1-0.2-0.1c-0.1,0-0.1-0.1-0.2-0.1c-0.1,0-0.2,0-0.3,0c-0.1,0-0.3,0-0.4,0.1c-0.1,0.1-0.2,0.1-0.3,0.3
				s-0.1,0.2-0.2,0.4s-0.1,0.3-0.1,0.5c0,0.2,0,0.4,0.1,0.6s0.1,0.3,0.2,0.4c0.1,0.1,0.2,0.2,0.3,0.2c0.1,0,0.2,0.1,0.4,0.1
				c0.1,0,0.2,0,0.3,0c0.1,0,0.2-0.1,0.2-0.1c0.1,0,0.1-0.1,0.2-0.1s0.1,0,0.1,0c0,0,0,0,0,0c0,0,0,0,0,0s0,0.1,0,0.1
				C16.6,47.4,16.6,47.5,16.6,47.5z"/>
			<path class="st1" d="M19.2,44.8c0,0.1,0,0.1,0,0.1c0,0,0,0.1,0,0.1s0,0,0,0c0,0,0,0,0,0h-1.2V48c0,0,0,0,0,0c0,0,0,0-0.1,0
				c0,0-0.1,0-0.1,0c0,0-0.1,0-0.2,0c-0.1,0-0.1,0-0.2,0c0,0-0.1,0-0.1,0c0,0,0,0-0.1,0c0,0,0,0,0,0v-3.3c0-0.1,0-0.1,0.1-0.2
				c0,0,0.1-0.1,0.2-0.1h1.7c0,0,0.1,0,0.1,0.1C19.2,44.6,19.2,44.7,19.2,44.8z"/>
			<path class="st1" d="M22.6,48C22.6,48,22.6,48,22.6,48C22.6,48.1,22.5,48.1,22.6,48c-0.1,0.1-0.1,0.1-0.2,0.1c0,0-0.1,0-0.2,0
				c-0.1,0-0.1,0-0.2,0c0,0-0.1,0-0.1,0c0,0,0,0-0.1,0c0,0,0,0,0,0v-1.9c0-0.1,0-0.1,0-0.2c0-0.1,0-0.1,0-0.2h0c0,0,0,0.1-0.1,0.1
				c0,0,0,0.1-0.1,0.1s0,0.1-0.1,0.1s-0.1,0.1-0.1,0.1L20.3,48c0,0,0,0,0,0.1c0,0,0,0-0.1,0s-0.1,0-0.1,0c0,0-0.1,0-0.1,0
				c-0.1,0-0.1,0-0.2,0c0,0-0.1,0-0.1,0c0,0,0,0-0.1,0c0,0,0,0,0-0.1v-3.4c0,0,0,0,0,0c0,0,0,0,0.1,0c0,0,0.1,0,0.1,0s0.1,0,0.2,0
				c0.1,0,0.1,0,0.2,0s0.1,0,0.1,0c0,0,0,0,0.1,0c0,0,0,0,0,0v1.9c0,0.1,0,0.1,0,0.2c0,0.1,0,0.1,0,0.2h0c0-0.1,0.1-0.1,0.1-0.2
				c0-0.1,0.1-0.2,0.2-0.2l1.3-1.9c0,0,0,0,0,0c0,0,0,0,0.1,0c0,0,0.1,0,0.1,0s0.1,0,0.1,0c0.1,0,0.1,0,0.2,0s0.1,0,0.1,0
				c0,0,0,0,0.1,0c0,0,0,0,0,0.1V48z"/>
			<path class="st1" d="M26.3,48C26.3,48,26.3,48,26.3,48C26.3,48.1,26.3,48.1,26.3,48c-0.1,0.1-0.1,0.1-0.2,0.1c0,0-0.1,0-0.2,0
				c-0.1,0-0.1,0-0.2,0c0,0-0.1,0-0.1,0c0,0,0,0-0.1,0c0,0,0,0,0,0v-1.9c0-0.1,0-0.1,0-0.2c0-0.1,0-0.1,0-0.2h0c0,0,0,0.1-0.1,0.1
				c0,0,0,0.1-0.1,0.1s0,0.1-0.1,0.1s-0.1,0.1-0.1,0.1L24.1,48c0,0,0,0,0,0.1c0,0,0,0-0.1,0s-0.1,0-0.1,0c0,0-0.1,0-0.1,0
				c-0.1,0-0.1,0-0.2,0c0,0-0.1,0-0.1,0c0,0,0,0-0.1,0c0,0,0,0,0-0.1v-3.4c0,0,0,0,0,0c0,0,0,0,0.1,0c0,0,0.1,0,0.1,0s0.1,0,0.2,0
				c0.1,0,0.1,0,0.2,0s0.1,0,0.1,0c0,0,0,0,0.1,0c0,0,0,0,0,0v1.9c0,0.1,0,0.1,0,0.2c0,0.1,0,0.1,0,0.2h0c0-0.1,0.1-0.1,0.1-0.2
				c0-0.1,0.1-0.2,0.2-0.2l1.3-1.9c0,0,0,0,0,0c0,0,0,0,0.1,0c0,0,0.1,0,0.1,0s0.1,0,0.1,0c0.1,0,0.1,0,0.2,0s0.1,0,0.1,0
				c0,0,0,0,0.1,0c0,0,0,0,0,0.1V48z M25.9,43.5c0,0.1,0,0.2-0.1,0.3c0,0.1-0.1,0.2-0.2,0.2s-0.2,0.1-0.3,0.2s-0.3,0.1-0.5,0.1
				c-0.2,0-0.3,0-0.5-0.1c-0.1,0-0.2-0.1-0.3-0.2C24,44,24,43.9,23.9,43.8c0-0.1-0.1-0.2-0.1-0.3c0,0,0-0.1,0-0.1c0,0,0,0,0.1,0
				c0,0,0.1,0,0.1,0c0,0,0.1,0,0.2,0c0.1,0,0.1,0,0.1,0s0.1,0,0.1,0c0,0,0,0,0,0c0,0,0,0,0,0.1c0,0,0,0.1,0,0.1c0,0,0,0.1,0.1,0.1
				c0,0,0.1,0.1,0.1,0.1s0.1,0,0.2,0c0.1,0,0.1,0,0.2,0c0,0,0.1,0,0.1-0.1c0,0,0.1-0.1,0.1-0.1s0-0.1,0-0.1c0,0,0,0,0-0.1
				c0,0,0,0,0,0c0,0,0.1,0,0.1,0s0.1,0,0.1,0c0.1,0,0.1,0,0.2,0c0,0,0.1,0,0.1,0C25.9,43.4,25.9,43.4,25.9,43.5
				C25.9,43.4,25.9,43.5,25.9,43.5z"/>
			<path class="st1" d="M30,48C30,48,30,48,30,48C29.9,48.1,29.9,48.1,30,48c-0.1,0.1-0.1,0.1-0.2,0.1s-0.1,0-0.2,0
				c-0.1,0-0.1,0-0.2,0s-0.1,0-0.1,0c0,0,0,0-0.1,0c0,0,0,0,0-0.1v-1.5h-1.4V48c0,0,0,0,0,0.1c0,0,0,0-0.1,0c0,0-0.1,0-0.1,0
				s-0.1,0-0.2,0c-0.1,0-0.1,0-0.2,0s-0.1,0-0.1,0c0,0,0,0-0.1,0c0,0,0,0,0-0.1v-3.4c0,0,0,0,0-0.1s0,0,0.1,0c0,0,0.1,0,0.1,0
				c0,0,0.1,0,0.2,0c0.1,0,0.1,0,0.2,0c0,0,0.1,0,0.1,0c0,0,0,0,0.1,0s0,0,0,0.1v1.3h1.4v-1.3c0,0,0,0,0-0.1c0,0,0,0,0.1,0
				c0,0,0.1,0,0.1,0c0,0,0.1,0,0.2,0c0.1,0,0.1,0,0.2,0c0,0,0.1,0,0.1,0c0,0,0,0,0.1,0c0,0,0,0,0,0.1V48z"/>
			<path class="st1" d="M34.1,44.8c0,0.1,0,0.1,0,0.1c0,0,0,0.1,0,0.1s0,0,0,0c0,0,0,0,0,0h-1.2V48c0,0,0,0,0,0c0,0,0,0-0.1,0
				c0,0-0.1,0-0.1,0c0,0-0.1,0-0.2,0c-0.1,0-0.1,0-0.2,0c0,0-0.1,0-0.1,0c0,0,0,0-0.1,0c0,0,0,0,0,0v-3.3c0-0.1,0-0.1,0.1-0.2
				c0,0,0.1-0.1,0.2-0.1H34c0,0,0.1,0,0.1,0.1C34.1,44.6,34.1,44.7,34.1,44.8z"/>
			<path class="st1" d="M37.1,47.8c0,0.1,0,0.1,0,0.2c0,0,0,0.1,0,0.1c0,0-0.1,0-0.1,0c-0.1,0-0.1,0-0.2,0c-0.1,0-0.2,0-0.2,0
				s-0.1,0-0.1,0c0,0,0,0-0.1,0s0,0,0-0.1l-0.2-0.7h-1.4L34.5,48c0,0,0,0,0,0.1s0,0-0.1,0c0,0-0.1,0-0.1,0c0,0-0.1,0-0.2,0
				c-0.1,0-0.2,0-0.2,0c0,0-0.1,0-0.1,0c0,0,0-0.1,0-0.1c0,0,0-0.1,0-0.2l1.1-3.2c0,0,0-0.1,0-0.1c0,0,0,0,0.1,0c0,0,0.1,0,0.1,0
				s0.1,0,0.2,0c0.1,0,0.2,0,0.3,0c0.1,0,0.1,0,0.2,0c0,0,0.1,0,0.1,0c0,0,0,0,0,0.1L37.1,47.8z M35.4,45.2L35.4,45.2l-0.5,1.5h1
				L35.4,45.2z"/>
			<path class="st1" d="M39.8,47c0,0.2,0,0.3-0.1,0.5c-0.1,0.1-0.2,0.3-0.3,0.4c-0.1,0.1-0.3,0.2-0.5,0.2c-0.2,0-0.4,0.1-0.6,0.1
				c-0.1,0-0.2,0-0.3,0c-0.1,0-0.2,0-0.3-0.1c-0.1,0-0.1,0-0.2-0.1c0,0-0.1,0-0.1-0.1s0,0,0,0c0,0,0,0,0-0.1c0,0,0-0.1,0-0.1
				s0-0.1,0-0.2c0-0.1,0-0.1,0-0.2c0,0,0,0,0.1,0c0,0,0.1,0,0.1,0s0.1,0,0.2,0.1c0.1,0,0.1,0.1,0.2,0.1c0.1,0,0.2,0,0.3,0
				c0.1,0,0.2,0,0.3,0c0.1,0,0.2-0.1,0.2-0.1c0.1,0,0.1-0.1,0.1-0.2c0-0.1,0-0.1,0-0.2c0-0.1,0-0.2,0-0.2c0-0.1-0.1-0.1-0.1-0.2
				c-0.1,0-0.1-0.1-0.2-0.1c-0.1,0-0.2,0-0.3,0h-0.4c0,0-0.1,0-0.1,0c0,0,0,0,0,0s0,0,0-0.1c0,0,0-0.1,0-0.1c0-0.1,0-0.1,0-0.1
				c0,0,0-0.1,0-0.1s0,0,0,0c0,0,0,0,0.1,0h0.4c0.1,0,0.2,0,0.3,0s0.2-0.1,0.2-0.1c0.1,0,0.1-0.1,0.1-0.2c0-0.1,0-0.1,0-0.2
				c0-0.1,0-0.1,0-0.2c0-0.1-0.1-0.1-0.1-0.1c0,0-0.1-0.1-0.2-0.1s-0.2,0-0.2,0c-0.1,0-0.2,0-0.3,0s-0.2,0.1-0.2,0.1
				c-0.1,0-0.1,0.1-0.2,0.1s-0.1,0-0.1,0c0,0,0,0,0,0c0,0,0,0,0,0c0,0,0,0,0-0.1c0,0,0-0.1,0-0.1c0,0,0-0.1,0-0.1c0,0,0-0.1,0-0.1
				c0,0,0,0,0-0.1s0,0,0-0.1s0.1,0,0.1-0.1c0.1,0,0.1-0.1,0.2-0.1s0.2,0,0.3-0.1s0.2,0,0.4,0c0.2,0,0.4,0,0.5,0.1
				c0.1,0,0.3,0.1,0.4,0.2c0.1,0.1,0.2,0.2,0.2,0.3c0,0.1,0.1,0.2,0.1,0.4c0,0.1,0,0.2,0,0.3c0,0.1-0.1,0.2-0.1,0.3
				c-0.1,0.1-0.1,0.1-0.2,0.2c-0.1,0-0.2,0.1-0.3,0.1v0c0.1,0,0.2,0,0.3,0.1c0.1,0,0.2,0.1,0.2,0.2c0.1,0.1,0.1,0.2,0.2,0.3
				C39.7,46.8,39.8,46.9,39.8,47z"/>
			<path class="st1" d="M43.3,47.8c0,0.1,0,0.1,0,0.2c0,0,0,0.1,0,0.1c0,0-0.1,0-0.1,0c-0.1,0-0.1,0-0.2,0c-0.1,0-0.2,0-0.2,0
				s-0.1,0-0.1,0c0,0,0,0-0.1,0s0,0,0-0.1l-0.2-0.7h-1.4L40.7,48c0,0,0,0,0,0.1s0,0-0.1,0c0,0-0.1,0-0.1,0c0,0-0.1,0-0.2,0
				c-0.1,0-0.2,0-0.2,0c0,0-0.1,0-0.1,0c0,0,0-0.1,0-0.1c0,0,0-0.1,0-0.2l1.1-3.2c0,0,0-0.1,0-0.1c0,0,0,0,0.1,0c0,0,0.1,0,0.1,0
				s0.1,0,0.2,0c0.1,0,0.2,0,0.3,0c0.1,0,0.1,0,0.2,0c0,0,0.1,0,0.1,0c0,0,0,0,0,0.1L43.3,47.8z M41.6,45.2L41.6,45.2l-0.5,1.5h1
				L41.6,45.2z"/>
			<path class="st1" d="M46.3,45.6c0,0.2,0,0.4-0.1,0.5c-0.1,0.2-0.2,0.3-0.3,0.4s-0.3,0.2-0.4,0.2c-0.2,0.1-0.4,0.1-0.6,0.1h-0.3
				V48c0,0,0,0,0,0.1c0,0,0,0-0.1,0c0,0-0.1,0-0.1,0s-0.1,0-0.2,0c-0.1,0-0.1,0-0.2,0c0,0-0.1,0-0.1,0c0,0,0,0-0.1,0c0,0,0,0,0-0.1
				v-3.3c0-0.1,0-0.2,0.1-0.2s0.1-0.1,0.2-0.1h0.9c0.1,0,0.2,0,0.2,0c0.1,0,0.2,0,0.3,0c0.1,0,0.2,0.1,0.3,0.1
				c0.1,0.1,0.2,0.1,0.3,0.2s0.1,0.2,0.2,0.3C46.3,45.3,46.3,45.4,46.3,45.6z M45.5,45.6c0-0.1,0-0.2-0.1-0.3c0-0.1-0.1-0.1-0.2-0.2
				c-0.1,0-0.1-0.1-0.2-0.1c-0.1,0-0.1,0-0.2,0h-0.3v1.2h0.3c0.1,0,0.2,0,0.3,0c0.1,0,0.1-0.1,0.2-0.1c0.1-0.1,0.1-0.1,0.1-0.2
				C45.5,45.8,45.5,45.7,45.5,45.6z"/>
		</g>
		<path id="rect2887_1_" class="st2" d="M27.3,2.2c0,0-0.5,0.2-0.5,0.4c-0.1,0.3,0.3,0.6,0.3,0.9c0,0.4-0.5,0.8-0.5,1.2
			c0,0.3,0.3,0.6,0.3,0.9c0,0.2-0.2,0.4-0.4,0.4c-0.2,0-0.4-0.3-0.4-0.4c-0.1-0.3,0.4-0.6,0.4-1c0-0.2-0.3-0.4-0.3-0.7
			c0-0.2,0.2-0.4,0.2-0.4s-0.6,0.3-0.6,0.5c-0.1,0.2,0.2,0.4,0.1,0.6c-0.1,0.5-0.7,0.8-0.7,1.3c0,0.5,0.2,1,0.6,1.3
			c0.3,0.3,0.8,0.5,1.3,0.5c0.5,0,1-0.2,1.3-0.5C28.8,7.1,29,6.5,29,6.1c0-0.4-0.4-0.8-0.4-1.2c0-0.2,0.3-0.4,0.2-0.7
			c0-0.3-0.5-0.7-0.5-0.7s0.1,0.4,0.1,0.6c-0.1,0.3-0.4,0.5-0.4,0.7c0,0.3,0.3,0.5,0.3,0.8c0,0.2-0.2,0.4-0.3,0.4
			c-0.2,0-0.3-0.3-0.4-0.4c-0.1-0.4,0.4-0.8,0.3-1.2c0-0.6-0.6-1.1-0.6-1.8C27.2,2.5,27.3,2.2,27.3,2.2z M27.1,8.5
			c-1.6,0-2.9,1.3-2.9,2.9c0,1.6,1.3,2.9,2.9,2.9c1.6,0,2.9-1.3,2.9-2.9C30,9.8,28.7,8.5,27.1,8.5z M23,11.9c0,0.1,0,0.3,0,0.4
			c0,2.3,1.8,4.1,4.1,4.1c2.3,0,4.1-1.8,4.1-4.1c0-0.1,0-0.3,0-0.4C30.6,13.7,29,15,27.1,15C25.1,15,23.5,13.6,23,11.9L23,11.9z
			 M19.3,17v17.2h3.6V17H19.3z M23.5,17l3.6,2.3l3.6-2.3H23.5z M31.2,17v17.2h3.6V17H31.2z M23.5,19.9v1.5h1.6h4h1.6v-1.5h-1.6h-4
			H23.5z M26.5,21.9c-0.2,0-0.3,0-0.5,0.1c-1.6,0.3-2.6,1.9-2.6,3.5c0,1.7,1.1,3.1,2.6,3.5c-0.6-0.3-1-0.9-1-1.6v0
			c0-0.8,0.5-1.6,1.2-1.8c0.2-0.1,0.5-0.1,0.8-0.1h0c1,0,1.7-0.8,1.7-1.7C28.7,22.5,27.6,21.9,26.5,21.9L26.5,21.9z M28.1,22
			c0.6,0.3,1,0.9,1,1.6v0c0,0.8-0.5,1.5-1.2,1.8c-0.2,0.1-0.5,0.1-0.8,0.1h0c-1,0-1.7,0.8-1.7,1.7c0.1,1.2,1.2,1.8,2.3,1.7
			c0.2,0,0.3,0,0.5-0.1c1.5-0.3,2.6-1.9,2.6-3.5C30.7,23.9,29.6,22.5,28.1,22L28.1,22z M27.1,23c0.4,0,0.7,0.3,0.7,0.7
			c0,0.4-0.3,0.7-0.7,0.7c-0.4,0-0.7-0.3-0.7-0.7C26.4,23.3,26.7,23,27.1,23z M27.1,26.7c0.4,0,0.7,0.3,0.7,0.7
			c0,0.4-0.3,0.7-0.7,0.7s-0.7-0.3-0.7-0.7C26.4,27,26.7,26.7,27.1,26.7z M23.5,29.8v1.5h1.6h4h1.6v-1.5h-1.6h-4H23.5z M23.5,31.9
			l3.6,2.3l3.6-2.3H23.5z"/>
	</g>
</g>
</svg>
