<?xml version="1.0" encoding="utf-8"?>
<!-- Generator: Adobe Illustrator 24.0.1, SVG Export Plug-In . SVG Version: 6.00 Build 0)  -->
<svg version="1.1" id="Layer_1" xmlns="http://www.w3.org/2000/svg" xmlns:xlink="http://www.w3.org/1999/xlink" x="0px" y="0px"
	 viewBox="0 0 95 95" style="enable-background:new 0 0 95 95;" xml:space="preserve">
<style type="text/css">
	.st0{fill:#F9662B;}
	.st1{fill:#FB842A;}
	.st2{fill:#FFA05F;}
	.st3{fill:#F48567;}
</style>
<g>
	<g>
		<polygon class="st1" points="17.4,23.6 18.3,21.5 21,20.2 23.8,21.2 22.4,22.1 19.4,24.2 		"/>
		<polygon class="st0" points="42.9,54.9 43.9,57.8 42.8,62.7 43.9,66.8 44.7,68.1 45,68.4 45.3,69.4 44.2,70.8 44.6,72.2 
			40.2,72.2 40.8,70.6 41.6,69.3 41.5,67.1 40.6,64.1 39.9,63.4 39.5,61.1 38.1,56.7 37.8,55.1 		"/>
		<polygon class="st0" points="68.7,58.9 69.7,63 70.4,64.6 69.3,69.5 69.2,70.9 68.1,72.2 67.4,73.9 71.2,73.9 71.6,72.5 
			72.3,71.9 72.1,70 73.7,65.8 72.4,60.4 		"/>
		<path class="st1" d="M15.6,38l-0.9,0.5h-0.5l-1-0.7l-0.4-0.3v-0.5l-0.4-0.3L12,36.2l0.1-0.7l-0.4-0.9l0.2-1.2l2.2-4.9l0.1-1.7
			l0.3-1.3l2-2.6h0.9l2.3-0.2l2.7-1.9l4.1-0.6l3.9,1l3.6,3.2l1.6,3.6l-0.4,0L32.9,25l-2.8-2l-3.3-0.7l-3.4,0.8l-0.7,0.4l2.8,0.4
			l4.5,2.9l4.3,2.5l2.5-0.3l2-0.8l9,1.9c0,0,3.8,1,3.8,1.1c0.1,0.1,9.1-1.7,9.1-1.7l8,0.1l7.5,3.3l1,1.2l4.1,1.3l1.9,1.9L81.3,38
			l-2.4,0.9l-1.3,5.4L77.2,49l-1.8,6.1l0.1,2.1l0.8,1.9L76.1,61l0.5,2.6l-0.1,2.1l1.2,2.6l0.3,1.5l0.6,1.6L77.9,72l-0.4,1.3
			l-0.6,1.5h-4.3l1-1.9l0.9-0.7l-0.6-3l-2.5-5.8l-2.3-2l-1.8-3.7l-3.9,1.1l-13.3,0.2L42,55.8l-3.2,0.1l-0.9,1.8l0.4,2l-0.7,1.6
			l-1.3,2.2L36,65.2l0.4,4.2l-1.1,1.6l-0.1,1.4l-0.5,0.5h-4.3l1.6-2.2l1.3-1.2l0.4-5.2l-0.6-0.9l-0.1-3.1l-1.4-1.7l-0.5-2.6
			l-4.4-2.4l-1.9-5.9l-2-3.2l0.5-1.9l-2.2-2l-1.1-4l-1.5,0.7l-0.3,2.8l-1,5.2l-0.6-3.6L16.3,45L16,41.9l0.1-3L15.6,38z"/>
		<polygon class="st0" points="25.4,23.9 22.6,23.5 23.3,23.1 26.7,22.3 23.1,22.2 21.2,23.3 19.4,24 17.4,26.2 16,27.4 17,28.6 
			15.3,33.6 14.5,36.7 12.8,37.5 13.2,37.8 14.2,38.5 14.7,38.5 15.6,38 16.1,38.9 16,41.9 16.3,45 16.7,41.9 17.3,45.5 18.3,40.3 
			18.6,37.5 20.1,36.8 21.2,40.8 23.3,42.8 22.8,44.7 24.8,47.9 26.8,53.8 31.2,56.2 28.3,45.9 30.9,37.2 34.2,29.3 29.9,26.8 		"/>
		<path class="st1" d="M21.8,25.9L21.2,27l-1.1,0.8l-0.4,4.4l-0.8,1.2l0.1,0.7l2.4-0.1c0,0,2.3-1.7,2.4-1.7c0,0,1.4-3.1,1.4-3.1
			l-0.5-1.5l0.2-1.2"/>
		<path class="st0" d="M69,51.2l-2.1-6.5l-12.2,4.9c0,0-8.4-0.3-8.6-0.5c-0.3-0.2-7.1-3.9-7.1-3.9l0.5,4.8l-1.7,7.8l0.9-1.8l3.2-0.1
			l8.1,3.3l13.3-0.2l3.9-1.1l1.8,3.7l2.3,2l-1.8-3L69,51.2z"/>
	</g>
</g>
</svg>
