<?xml version="1.0" encoding="utf-8"?>
<!-- Generator: Adobe Illustrator 24.0.1, SVG Export Plug-In . SVG Version: 6.00 Build 0)  -->
<svg version="1.1" id="Layer_1" xmlns="http://www.w3.org/2000/svg" xmlns:xlink="http://www.w3.org/1999/xlink" x="0px" y="0px"
	 viewBox="0 0 95 95" style="enable-background:new 0 0 95 95;" xml:space="preserve">
<style type="text/css">
	.st0{fill:#F9662B;}
	.st1{fill:#FB842A;}
	.st2{fill:#FFA05F;}
	.st3{fill:#F48567;}
</style>
<g>
	<g>
		<polygon class="st0" points="14.9,22.8 15.9,18.9 16.6,18.6 16.6,21.5 		"/>
		<polygon class="st0" points="14.4,22.4 14.1,20 22.3,20.3 36.6,27 42.4,32.1 42.4,33.2 37.2,34 17.8,25.7 		"/>
		<polygon class="st0" points="75.2,36.2 77.1,36 81.6,38 85.7,43.2 86.8,71.1 80.7,71.1 80.7,47.5 79.2,42.3 77.3,41 		"/>
		<polygon class="st0" points="38.7,62.9 35.6,62.9 33.9,52.4 39.3,52 		"/>
		<polygon class="st0" points="70,60.7 68.1,62.1 60.7,51.4 60.7,36.2 69.2,38.1 71.9,46.1 		"/>
		<polygon class="st0" points="69.9,72.7 68,72.7 68.1,62.1 69.2,53.3 72.1,62.1 		"/>
		<polygon class="st0" points="38.3,72.7 36.4,72.7 35.6,62.9 38.7,62.1 		"/>
		<polygon class="st1" points="78.3,55.9 80,44.7 77.1,36 68,34 53,34.8 38.6,32.6 18.8,22.5 18.8,20.9 19.1,18.7 18.1,19.4 
			16.3,22.4 14.4,22.4 8.2,36.2 12.4,38.7 18.6,33 31.2,48.6 33.7,52.4 39.4,54 40.3,63 40.3,63 41.3,72.7 43.2,72.6 43.8,62.2 
			44.3,55.3 49.2,55.3 68.1,50.6 75.7,61 76,72.7 78,72.7 80,61 		"/>
		<polygon class="st2" points="15.6,22.4 16.3,26.1 14.1,27.6 10.8,33.4 11.1,35.4 8.9,36.6 8.2,36.2 14.4,22.4 		"/>
		<polygon class="st2" points="33.9,45 34.6,40.1 38.6,32.6 49,34.2 40.3,37.5 36.6,40.1 		"/>
		<polygon class="st0" points="44.3,55.3 45.3,51.2 55.9,50.2 66.9,42.1 68,50.6 49.2,55.3 		"/>
		<polygon class="st0" points="18.6,33 21.2,30.5 20.9,27 34.6,40.1 33.9,45 31.5,49.1 23.8,39.4 		"/>
		<polygon class="st2" points="53,34.8 62,36.2 68,35.5 74,39.2 77.1,36 68,34 		"/>
		<polygon class="st0" points="77.1,36 74,39.2 77.9,45.4 76.9,53.3 78.2,54.6 80,44.7 		"/>
		<polygon class="st0" points="43.8,62.1 43,64.4 41.4,64.7 40.3,63 41.3,72.7 43.2,72.7 		"/>
		<polygon class="st0" points="36.4,72.7 35.6,74.2 34.6,76.4 37.9,76.4 37.7,74.7 38.3,72.7 		"/>
		<polygon class="st0" points="68,72.7 67.2,74.2 66.1,76.4 69.4,76.4 69.2,74.7 69.9,72.7 		"/>
		<polygon class="st0" points="76,72.7 75.3,74.2 74.2,76.4 77.5,76.4 77.3,74.7 78,72.7 		"/>
		<polygon class="st0" points="41.3,72.7 40.5,74.2 39.4,76.4 42.7,76.4 42.5,74.7 43.2,72.7 		"/>
	</g>
</g>
</svg>
