<?xml version="1.0" encoding="utf-8"?>
<!-- Generator: Adobe Illustrator 24.0.1, SVG Export Plug-In . SVG Version: 6.00 Build 0)  -->
<svg version="1.1" id="Layer_1" xmlns="http://www.w3.org/2000/svg" xmlns:xlink="http://www.w3.org/1999/xlink" x="0px" y="0px"
	 viewBox="0 0 95 95" style="enable-background:new 0 0 95 95;" xml:space="preserve">
<style type="text/css">
	.st0{fill:#F9662B;}
	.st1{fill:#FB842A;}
	.st2{fill:#FFA05F;}
	.st3{fill:#F48567;}
</style>
<g>
	<g>
		<g>
			<polygon class="st0" points="80,49.3 81.2,50.9 81.4,55.6 82.1,56.7 82.3,58.8 82,60.2 83,62 83.5,64.5 84.1,65.2 84.1,66.6 
				83.4,67.3 83.1,68.5 82.4,69.6 81.2,74.6 81.2,76.3 80.4,78.4 80,80.7 75.9,80.9 74.8,80.3 75.1,79.4 76.6,79.2 78,77.4 
				78.8,74.7 79.2,69.3 78.5,66.9 78.6,65.5 77,63.4 			"/>
			<polygon class="st0" points="38.2,54.9 37.5,57.9 37.8,61.2 38.8,65.4 40.1,66.5 40.3,65.8 41.3,66.5 41.8,67.4 41.8,68.9 
				42.3,69.6 42.8,71.5 42.6,75.8 42.2,77.1 41.9,78.7 41,79.6 39.7,79.6 39.6,80.8 43.9,80.8 44.9,79.4 45.1,76.5 45,72.6 
				46.2,69.6 46.2,68.2 41.8,54.9 			"/>
			<polygon class="st1" points="10.9,31.6 11.3,33.6 16.1,34.8 16.1,36.3 14.4,40.5 14.1,47.8 15.2,55.6 19.7,62.8 27.2,65.8 
				32.8,65.4 34,60.1 35.9,54.4 40.3,55.5 41.3,62.3 45.9,68.1 47.5,67 48.3,67.7 48.3,68.7 50.2,70.1 50.2,71.5 51.6,76.3 
				51.2,77.6 51.2,78.8 50.2,79.8 48.8,80.1 48.8,81 52.3,81.2 54.1,79.7 54.5,77.3 53.8,75.3 52.9,71.2 53.5,68.9 53,65.5 
				52.3,63.9 54.7,61.9 52.8,59.3 55.7,59.8 65.3,57.9 67.1,56.8 70.7,51.5 70.5,53.6 71.2,55.7 72.2,59 71.9,60.9 72.9,65.9 
				72.5,67.5 72.5,69.7 69.8,76.7 68.7,77.3 68.1,78.6 67.2,79.3 65.7,80 65.2,81.2 70.1,81.2 70.9,79.3 71.9,77.8 75.6,70.1 
				78.1,67.3 78.1,64.6 79.3,60.4 80.7,54.2 80.7,51.5 81.6,48.9 82,50 82,51.5 82.8,53.6 84.1,54.9 83.1,52.5 83,50.9 83.7,48.3 
				83.6,42.1 81.9,37.5 78.2,34.7 74.6,33 73.6,29.1 72.2,26.1 71.9,22.7 70.1,20.4 65.4,20.4 62.4,23.3 61.1,25.5 56.8,29.4 
				52.3,29.8 49.6,25.7 45.1,21.3 42.5,19.8 38.8,20.9 38,24.7 39.4,27.2 39.7,28.2 38.1,32.3 35.3,35.5 32.3,38 31.4,34.5 
				28.6,32.2 27.2,32.2 26,30.3 25.7,29.1 23,26.5 21.2,25.4 18.6,25.9 16.3,27.2 13.8,28.9 10.9,30.5 			"/>
			<polygon class="st0" points="35.9,54.4 32.8,48.8 32.3,38 31.4,34.5 28.6,32.2 27.2,32.2 26,30.3 25.7,29.1 25.1,36.4 24.2,43.3 
				26.9,58.3 32.8,65.4 34,60.1 			"/>
			<polygon class="st0" points="65.3,57.9 67.1,56.8 70.7,51.5 72.5,42 67.9,48.6 64.7,55.7 56.2,57.6 45.1,51.9 48.5,55.3 
				49.5,61.7 47,67.3 47.5,67 48.3,67.7 48.3,68.7 50.2,70.1 50.2,71.5 51.6,76.3 51.2,77.6 51.2,78.8 50.2,79.8 48.8,80.1 48.8,81 
				52.3,81.2 54.1,79.7 54.5,77.3 53.8,75.3 52.9,71.2 53.5,68.9 53,65.5 52.3,63.9 54.7,61.9 52.8,59.3 55.7,59.8 			"/>
			<polygon class="st0" points="45.1,26.9 41.6,27.7 46.2,29.6 48.6,32.5 50.7,36.4 55.4,35.6 60,29.8 61.1,25.5 56.8,29.4 
				52.3,29.8 49.6,25.7 45.1,21.3 42.5,19.8 45.8,23.6 			"/>
			<polygon class="st0" points="83.1,52.5 83,50.9 83.7,48.3 83.6,42.1 81.9,37.5 78.2,34.7 74.6,33 73.6,29.1 72.2,26.1 71.9,22.7 
				70.1,20.4 70.9,23.2 69.1,26.9 69.1,31.9 71.9,34.6 76.9,35.3 80.7,38.4 82.3,42.8 81.6,48.9 82,50 82,51.5 82.8,53.6 84.1,54.9 
							"/>
		</g>
		<polygon class="st0" points="25.1,36.4 23,30.8 21.7,29.1 23,28.1 23,26.5 20.7,26.5 18.6,25.9 21.2,25.4 23.4,26.2 25.7,29.1 
			26.2,35.1 		"/>
	</g>
</g>
</svg>
