<?xml version="1.0" encoding="utf-8"?>
<!-- Generator: Adobe Illustrator 24.0.1, SVG Export Plug-In . SVG Version: 6.00 Build 0)  -->
<svg version="1.1" id="Layer_1" xmlns="http://www.w3.org/2000/svg" xmlns:xlink="http://www.w3.org/1999/xlink" x="0px" y="0px"
	 viewBox="0 0 95 95" style="enable-background:new 0 0 95 95;" xml:space="preserve">
<style type="text/css">
	.st0{fill:#F9662B;}
	.st1{fill:#FB842A;}
	.st2{fill:#FFA05F;}
	.st3{fill:#F48567;}
</style>
<g>
	<g>
		<polygon class="st0" points="83,44.3 83.4,45.3 83.4,56.1 81.2,59.8 82.3,62.3 82.7,63.6 80.7,71.9 80.4,75.7 79.3,76.8 
			79.3,78.7 75.7,78.7 74.5,78.1 75.8,76.4 78,74.4 79.3,65.4 77,61.7 76.6,53.3 		"/>
		<polygon class="st0" points="47.5,59.4 48.5,62.2 47.8,63.5 47.5,65.7 48,69.2 49.2,73.6 48.8,74.3 48.8,75.3 48.3,76.1 48.9,77 
			48.8,77.6 47.2,77.9 44.9,77.4 44.5,76.9 45.5,75.5 45.6,74.5 46.3,73.3 46.2,70.4 45.4,66.6 44.5,65.1 44,59.4 		"/>
		<polygon class="st1" points="11.8,39.6 10.2,39.1 9.7,38.1 9,37.4 9,36 10.8,32.8 14.1,29.8 16.5,29 18.2,27.4 21.8,27.4 24.7,28 
			25.2,27.6 26.2,27.9 27.4,27.4 30.2,28.5 32.1,30.6 34.3,30.7 34.8,32.2 42.7,31.5 46.4,31.9 51.2,32.8 55.7,32.2 57.5,30.9 
			63.3,29.9 69,29.4 72.9,29 75.3,29.2 78.2,30 82.4,33 86,39.6 86,44.5 85.8,46.2 85,46.5 83.4,44.6 83.3,49.1 81.8,56.2 
			77.7,59.3 77.4,60.9 78.5,62.4 78.6,64 78,66.2 76.4,73.7 76.2,75.5 75.7,76.7 74.4,78.3 74.3,79.4 71.2,79.6 70.1,79.3 71,77.8 
			71.2,76.9 72.5,75.1 73.6,71.3 73.9,65.4 72.9,63.2 70.6,61.1 62.3,63.9 55.1,63 47.3,60.5 43.8,60 43.1,62.5 43.2,63.5 
			43.2,65.6 42.8,66.8 43.3,73.4 43.5,75.8 42.6,76.8 42.6,78.2 41.8,79.6 38,79.4 37.6,79 39.2,77.4 39.7,76.2 40.9,74.6 
			40.6,68.5 39.6,66.8 40,62.1 39,60.2 32.3,58.1 27.1,53 25.5,51.8 21.3,42.3 19.6,41.5 18.8,40.2 18.8,39.1 15.1,39.1 14.2,38.9 
					"/>
		<polygon class="st0" points="78.2,30 82.4,33 86,39.6 86,44.5 85.8,46.2 85,46.5 83.4,44.6 83.3,49.1 81.8,56.2 77.7,59.3 
			77.4,60.9 78.5,62.4 78.6,64 78,66.2 76.4,73.7 76.2,75.5 75.7,76.7 74.4,78.3 74.3,79.4 71.2,79.6 70.1,79.3 71,77.8 71.2,76.9 
			72.5,75.1 73.6,71.3 73.9,65.4 72.9,63.2 70.6,61.1 62.3,63.9 55.1,63 47.3,60.5 43.8,60 43.1,62.5 43.2,63.5 43.2,65.6 
			42.8,66.8 43.3,73.4 43.5,75.8 42.6,76.8 42.6,78.2 41.8,79.6 38,79.4 37.6,79 39.2,77.4 39.7,76.2 40.9,74.6 40.6,68.5 
			39.6,66.8 40,62.1 39,60.2 32.3,58.1 27.1,53 25.5,51.8 21.3,42.3 19.6,41.5 18.8,40.2 18.8,39.1 15.1,39.1 14.2,38.9 11.8,39.6 
			10.2,39.1 11.8,38.9 14,37 17.4,34.8 23.5,33.6 24.5,42.7 32.7,53.5 39.8,54.3 46.6,54.1 61.4,59.4 69.9,54.9 78.2,52.9 
			81.2,46.3 81.2,37 		"/>
		<polyline class="st0" points="21.6,31.5 21.3,33.6 22.6,36.1 24.9,37 25.7,33.6 25.4,30.8 		"/>
	</g>
</g>
</svg>
